<?xml version="1.0" encoding="utf-8"?>
<!-- Generator: Adobe Illustrator 18.1.1, SVG Export Plug-In . SVG Version: 6.00 Build 0)  -->
<svg version="1.1" id="Calque_1" xmlns="http://www.w3.org/2000/svg" xmlns:xlink="http://www.w3.org/1999/xlink" x="0px" y="0px"
	 viewBox="0 0 346 192" enable-background="new 0 0 346 192" xml:space="preserve">
<path fill="#FFFFFF" d="M108.9,64.1c0-28-22.8-50.8-50.8-50.8c-28,0-50.8,22.8-50.8,50.8h30.4c0-11.3,9.2-20.4,20.4-20.4
	c11.2,0,20.3,9.2,20.4,20.4L108.9,64.1z"/>
<path fill="#FFFFFF" d="M226.2,64.1c0-28-22.8-50.8-50.8-50.8c-28,0-50.8,22.8-50.8,50.8h30.3c0-11.3,9.2-20.4,20.4-20.4
	c11.2,0,20.3,9.2,20.4,20.4L226.2,64.1z"/>
<path fill="#FFFFFF" d="M335.4,64.1c0-28-22.8-50.8-50.8-50.8c-28,0-50.8,22.8-50.8,50.8h30.4c0-11.3,9.2-20.4,20.4-20.4
	c11.2,0,20.3,9.2,20.4,20.4L335.4,64.1z"/>
<path fill="#FFFFFF" d="M58,152c-13.1,0-23.7-10.6-23.7-23.7c0-13.1,10.6-23.7,23.7-23.7c13.1,0,23.7,10.6,23.7,23.7
	C81.7,141.3,71.1,152,58,152z M58.2,178.7c27,0,50.7-19.5,50.7-51.2c0,0,0-37,0-54.8H78.5V82c-6.2-2.7-13.1-4.3-20.3-4.3
	c-27.8,0-50.8,22.4-50.8,50.5C7.4,156.3,30.3,178.7,58.2,178.7z"/>
<g>
	<rect x="124.7" y="72.7" fill="#FFFFFF" width="30.4" height="102.8"/>
	<g>
		<path fill="#FFFFFF" d="M234,72.7l0.1,54.8c0,31.6,21.6,51.6,50.7,51.6c28,0,50.8-22.8,50.8-50.8h-30.4c0,11.3-9.2,20.4-20.4,20.4
			c-11.3,0-20.4-9.2-20.4-20.4V72.7H234z"/>
	</g>
</g>
</svg>
