<?xml version="1.0" encoding="UTF-8" standalone="no"?>
<!-- Generator: Adobe Illustrator 19.1.1, SVG Export Plug-In . SVG Version: 6.00 Build 0)  -->

<svg
   xmlns:dc="http://purl.org/dc/elements/1.1/"
   xmlns:cc="http://creativecommons.org/ns#"
   xmlns:rdf="http://www.w3.org/1999/02/22-rdf-syntax-ns#"
   xmlns:svg="http://www.w3.org/2000/svg"
   xmlns="http://www.w3.org/2000/svg"
   xmlns:xlink="http://www.w3.org/1999/xlink"
   xmlns:sodipodi="http://sodipodi.sourceforge.net/DTD/sodipodi-0.dtd"
   xmlns:inkscape="http://www.inkscape.org/namespaces/inkscape"
   version="1.1"
   id="Layer_1"
   x="0px"
   y="0px"
   viewBox="0 0 381.3 381.3"
   style="enable-background:new 0 0 381.3 381.3;"
   xml:space="preserve"
   inkscape:version="0.91 r13725"
   sodipodi:docname="step03_ticket.svg"><metadata
     id="metadata332"><rdf:RDF><cc:Work
         rdf:about=""><dc:format>image/svg+xml</dc:format><dc:type
           rdf:resource="http://purl.org/dc/dcmitype/StillImage" /><dc:title></dc:title></cc:Work></rdf:RDF></metadata><defs
     id="defs330" /><sodipodi:namedview
     pagecolor="#ffffff"
     bordercolor="#666666"
     borderopacity="1"
     objecttolerance="10"
     gridtolerance="10"
     guidetolerance="10"
     inkscape:pageopacity="0"
     inkscape:pageshadow="2"
     inkscape:window-width="1564"
     inkscape:window-height="1129"
     id="namedview328"
     showgrid="false"
     inkscape:zoom="1.7506132"
     inkscape:cx="356.13026"
     inkscape:cy="218.26305"
     inkscape:window-x="2746"
     inkscape:window-y="222"
     inkscape:window-maximized="0"
     inkscape:current-layer="g296" /><style
     type="text/css"
     id="style3">
	.st0{clip-path:url(#SVGID_2_);fill:#00425D;}
	.st1{clip-path:url(#SVGID_2_);fill:#006E9F;}
	.st2{clip-path:url(#SVGID_2_);fill:#C8A780;}
	.st3{clip-path:url(#SVGID_4_);fill:url(#SVGID_5_);}
	.st4{clip-path:url(#SVGID_7_);fill:#ECD8BE;}
	.st5{clip-path:url(#SVGID_7_);fill-rule:evenodd;clip-rule:evenodd;}
	.st6{clip-path:url(#SVGID_9_);fill:url(#SVGID_10_);}
	.st7{clip-path:url(#SVGID_12_);fill:url(#SVGID_13_);}
	.st8{clip-path:url(#SVGID_15_);fill:url(#SVGID_16_);}
	.st9{clip-path:url(#SVGID_18_);fill:url(#SVGID_19_);}
	.st10{clip-path:url(#SVGID_21_);fill:#F8F8F8;}
	.st11{clip-path:url(#SVGID_21_);fill:#008FD1;}
	.st12{clip-path:url(#SVGID_21_);fill:#002436;}
	.st13{clip-path:url(#SVGID_23_);fill:#92B43A;}
	.st14{clip-path:url(#SVGID_23_);fill:#EAEAEA;}
	.st15{clip-path:url(#SVGID_23_);fill:#6C852C;}
	.st16{clip-path:url(#SVGID_23_);fill:#D7B395;}
	.st17{clip-path:url(#SVGID_23_);fill:#6E504A;}
	.st18{clip-path:url(#SVGID_25_);fill:#624842;}
	.st19{clip-path:url(#SVGID_27_);fill:#6E504A;}
	.st20{clip-path:url(#SVGID_29_);fill:#624842;}
	.st21{clip-path:url(#SVGID_31_);fill:#DFCDB5;}
	.st22{clip-path:url(#SVGID_33_);fill:#D7B395;}
	.st23{clip-path:url(#SVGID_35_);fill:none;stroke:#FFFFFF;stroke-width:2.9081;stroke-miterlimit:10;}
	.st24{clip-path:url(#SVGID_35_);fill:#00425D;}
	.st25{clip-path:url(#SVGID_37_);fill:none;stroke:#000000;stroke-width:5.8163;stroke-miterlimit:10;}
	.st26{clip-path:url(#SVGID_37_);fill:#CD8D52;}
	.st27{clip-path:url(#SVGID_37_);fill:#002F44;}
	.st28{clip-path:url(#SVGID_39_);fill:#D7B395;}
	.st29{clip-path:url(#SVGID_39_);fill:#008FD1;}
	.st30{clip-path:url(#SVGID_41_);fill:#006E9F;}
	.st31{clip-path:url(#SVGID_41_);fill:#FFFFFF;}
	.st32{clip-path:url(#SVGID_43_);fill:#822927;}
	.st33{clip-path:url(#SVGID_45_);fill:#006998;}
	.st34{clip-path:url(#SVGID_45_);fill:#F4F4F4;}
	.st35{clip-path:url(#SVGID_45_);fill:#7C2724;}
	.st36{clip-path:url(#SVGID_47_);fill:#FFFFFF;}
	.st37{clip-path:url(#SVGID_49_);fill:#006998;}
	.st38{clip-path:url(#SVGID_49_);fill:#F4F4F4;}
	.st39{clip-path:url(#SVGID_49_);fill:#7C2724;}
	.st40{clip-path:url(#SVGID_51_);fill:#FFFFFF;}
	.st41{clip-path:url(#SVGID_53_);fill:#006E9F;}
	.st42{clip-path:url(#SVGID_55_);fill:url(#SVGID_56_);}
	.st43{clip-path:url(#SVGID_58_);fill:#008FD1;}
	.st44{clip-path:url(#SVGID_60_);fill:#006E9F;}
	.st45{clip-path:url(#SVGID_62_);fill:#F4F4F4;}
	.st46{clip-path:url(#SVGID_64_);fill:#C9C9C9;}
	.st47{clip-path:url(#SVGID_66_);fill:#DFCDB5;}
	.st48{clip-path:url(#SVGID_68_);fill:#D7B395;}
	.st49{clip-path:url(#SVGID_70_);fill:none;stroke:#FFFFFF;stroke-width:2.9081;stroke-miterlimit:10;}
	.st50{clip-path:url(#SVGID_70_);fill:#008FD1;}
	.st51{clip-path:url(#SVGID_72_);fill:#006E9F;}
	.st52{clip-path:url(#SVGID_74_);fill:#006E9F;}
	.st53{clip-path:url(#SVGID_74_);fill:#C3C3C3;}
	.st54{clip-path:url(#SVGID_74_);fill:#006591;}
	.st55{clip-path:url(#SVGID_74_);fill:#008FD1;}
	.st56{clip-path:url(#SVGID_74_);fill:#FFFFFF;}
	.st57{clip-path:url(#SVGID_74_);fill:#191918;}
	.st58{clip-path:url(#SVGID_74_);fill:#282827;}
	.st59{clip-path:url(#SVGID_74_);fill:#252524;}
	.st60{clip-path:url(#SVGID_74_);fill:none;stroke:#000000;stroke-width:1.4541;stroke-miterlimit:10;}
	.st61{clip-path:url(#SVGID_74_);fill:#624842;}
	.st62{clip-path:url(#SVGID_74_);fill:#D7B395;}
	.st63{clip-path:url(#SVGID_74_);fill:#DFCDB5;}
	.st64{clip-path:url(#SVGID_76_);fill:#D9BBA0;}
	.st65{clip-path:url(#SVGID_76_);fill:#D7B395;}
	.st66{clip-path:url(#SVGID_78_);fill:#6E504A;}
	.st67{clip-path:url(#SVGID_80_);fill:#86605A;}
	.st68{clip-path:url(#SVGID_80_);fill:#624842;}
	.st69{clip-path:url(#SVGID_82_);fill:#D7B395;}
	.st70{clip-path:url(#SVGID_82_);fill:#3C2B27;}
	.st71{clip-path:url(#SVGID_82_);fill:none;stroke:#AD9175;stroke-width:2.9081;stroke-linecap:round;stroke-miterlimit:10;}
	.st72{clip-path:url(#SVGID_82_);fill:#6B222C;}
	.st73{clip-path:url(#SVGID_84_);fill:#822927;}
	.st74{clip-path:url(#SVGID_84_);fill:#FFFFFF;}
	.st75{clip-path:url(#SVGID_86_);fill:#6E504A;}
	.st76{clip-path:url(#SVGID_86_);fill:#6C852C;}
	.st77{clip-path:url(#SVGID_88_);fill:#92B43A;}
	.st78{clip-path:url(#SVGID_88_);fill:#6C852C;}
	.st79{clip-path:url(#SVGID_88_);fill:#C8A780;}
	.st80{clip-path:url(#SVGID_90_);fill:url(#SVGID_91_);}
	.st81{clip-path:url(#SVGID_93_);fill:#ECD8BE;}
	.st82{clip-path:url(#SVGID_93_);fill-rule:evenodd;clip-rule:evenodd;}
	.st83{clip-path:url(#SVGID_95_);fill:url(#SVGID_96_);}
	.st84{clip-path:url(#SVGID_98_);fill:url(#SVGID_99_);}
	.st85{clip-path:url(#SVGID_101_);fill:url(#SVGID_102_);}
	.st86{clip-path:url(#SVGID_104_);fill:url(#SVGID_105_);}
	.st87{clip-path:url(#SVGID_107_);}
	.st88{font-family:'ArialMT';}
	.st89{font-size:30.6933px;}
	.st90{clip-path:url(#SVGID_107_);fill:#F8F8F8;}
	.st91{clip-path:url(#SVGID_107_);fill:#008FD1;}
	.st92{clip-path:url(#SVGID_107_);fill:none;stroke:#C53988;stroke-width:11.949;stroke-miterlimit:10;}
	.st93{clip-path:url(#SVGID_109_);fill:#92B43A;}
	.st94{clip-path:url(#SVGID_109_);fill:#EAEAEA;}
	.st95{clip-path:url(#SVGID_109_);fill:#C3C3C3;}
	.st96{clip-path:url(#SVGID_109_);fill:#006591;}
	.st97{clip-path:url(#SVGID_109_);fill:#008FD1;}
	.st98{clip-path:url(#SVGID_109_);fill:#006E9F;}
	.st99{clip-path:url(#SVGID_109_);fill:#FFFFFF;}
	.st100{clip-path:url(#SVGID_109_);fill:#191918;}
	.st101{clip-path:url(#SVGID_109_);fill:#282827;}
	.st102{clip-path:url(#SVGID_109_);fill:#252524;}
	.st103{clip-path:url(#SVGID_109_);fill:#6C852C;}
	.st104{clip-path:url(#SVGID_111_);fill:#00577F;}
	.st105{clip-path:url(#SVGID_111_);fill:#9C9B9B;}
	.st106{clip-path:url(#SVGID_113_);fill:#D7B395;}
	.st107{clip-path:url(#SVGID_113_);fill:#624842;}
	.st108{clip-path:url(#SVGID_113_);fill:#6C852C;}
	.st109{clip-path:url(#SVGID_113_);fill:#6E504A;}
	.st110{clip-path:url(#SVGID_115_);}
	.st111{clip-path:url(#SVGID_117_);fill:#624842;}
	.st112{clip-path:url(#SVGID_119_);fill:#6E504A;}
	.st113{clip-path:url(#SVGID_121_);}
	.st114{clip-path:url(#SVGID_123_);fill:#624842;}
	.st115{clip-path:url(#SVGID_125_);fill:#DFCDB5;}
	.st116{clip-path:url(#SVGID_127_);fill:#D7B395;}
	.st117{clip-path:url(#SVGID_129_);fill:none;stroke:#FFFFFF;stroke-width:5.167;stroke-miterlimit:10;}
	.st118{clip-path:url(#SVGID_129_);fill:#00425D;}
	.st119{clip-path:url(#SVGID_131_);fill:none;stroke:#000000;stroke-width:10.335;stroke-miterlimit:10;}
	.st120{clip-path:url(#SVGID_131_);fill:#CD8D52;}
	.st121{clip-path:url(#SVGID_131_);fill:#002F44;}
	.st122{clip-path:url(#SVGID_133_);fill:#D7B395;}
	.st123{clip-path:url(#SVGID_133_);fill:#008FD1;}
	.st124{clip-path:url(#SVGID_135_);fill:#006E9F;}
	.st125{clip-path:url(#SVGID_135_);fill:#FFFFFF;}
	.st126{clip-path:url(#SVGID_137_);fill:#822927;}
	.st127{clip-path:url(#SVGID_139_);fill:#F4F4F4;}
	.st128{clip-path:url(#SVGID_139_);fill:#7C2724;}
	.st129{clip-path:url(#SVGID_141_);fill:#FFFFFF;}
	.st130{clip-path:url(#SVGID_143_);fill:#F4F4F4;}
	.st131{clip-path:url(#SVGID_143_);fill:#7C2724;}
	.st132{clip-path:url(#SVGID_145_);fill:#FFFFFF;}
	.st133{clip-path:url(#SVGID_147_);fill:#006E9F;}
	.st134{clip-path:url(#SVGID_149_);fill:url(#SVGID_150_);}
	.st135{clip-path:url(#SVGID_152_);fill:#008FD1;}
	.st136{clip-path:url(#SVGID_154_);fill:#006E9F;}
	.st137{clip-path:url(#SVGID_156_);fill:#DFCDB5;}
	.st138{clip-path:url(#SVGID_158_);fill:#D9BBA0;}
	.st139{clip-path:url(#SVGID_158_);fill:#D7B395;}
	.st140{clip-path:url(#SVGID_160_);fill:#6E504A;}
	.st141{clip-path:url(#SVGID_162_);fill:#86605A;}
	.st142{clip-path:url(#SVGID_162_);fill:#624842;}
	.st143{clip-path:url(#SVGID_164_);fill:#D7B395;}
	.st144{clip-path:url(#SVGID_164_);fill:none;stroke:#AD9175;stroke-width:5.167;stroke-linecap:round;stroke-miterlimit:10;}
	.st145{clip-path:url(#SVGID_164_);fill:#6E504A;}
	.st146{clip-path:url(#SVGID_164_);fill:#006E9F;}
	.st147{clip-path:url(#SVGID_164_);fill:#191918;}
	.st148{clip-path:url(#SVGID_164_);fill:#282827;}
	.st149{clip-path:url(#SVGID_164_);fill:#252524;}
	.st150{clip-path:url(#SVGID_164_);fill:#DFCDB5;}
	.st151{clip-path:url(#SVGID_166_);fill:#D7B395;}
	.st152{clip-path:url(#SVGID_168_);fill:none;stroke:#FFFFFF;stroke-width:5.167;stroke-miterlimit:10;}
	.st153{clip-path:url(#SVGID_168_);fill:none;stroke:#008FD1;stroke-width:31.004;stroke-miterlimit:10;}
	.st154{clip-path:url(#SVGID_168_);fill:#DFCDB5;}
	.st155{clip-path:url(#SVGID_168_);fill:#F4F4F4;}
	.st156{clip-path:url(#SVGID_168_);fill:#3C2B27;}
	.st157{clip-path:url(#SVGID_168_);fill:#822927;}
	.st158{clip-path:url(#SVGID_168_);fill:none;stroke:#3C2B27;stroke-width:5.167;stroke-miterlimit:10;}
	.st159{clip-path:url(#SVGID_170_);fill:#008FD1;}
	.st160{clip-path:url(#SVGID_172_);fill:#B8B8B8;}
</style><g
     id="g17"><defs
       id="defs19"><path
         id="SVGID_73_"
         d="M-459.5,190.6c0,105.3,85.4,190.6,190.6,190.6s190.6-85.4,190.6-190.6C-78.2,85.4-163.6,0-268.9,0    S-459.5,85.4-459.5,190.6" /></defs><clipPath
       id="SVGID_4_"><use
         xlink:href="#SVGID_73_"
         style="overflow:visible;"
         id="use23" /></clipPath><rect
       x="151.9"
       y="97.3"
       style="clip-path:url(#SVGID_4_);fill:#C3C3C3;"
       width="14.5"
       height="242"
       id="rect25"
       clip-path="url(#SVGID_4_)" /><path
       style="clip-path:url(#SVGID_4_);fill:#006E9F;"
       d="M-12.9,133.1c6.4,3.9,13.9,6.3,13.8,15.8c0,9.4-4.3,101.9-7.4,106.3   c-3.1,4.4-18.9,0.2-18.7-9.3C-22.5,237.2-12.9,133.1-12.9,133.1"
       id="path27"
       clip-path="url(#SVGID_4_)" /><path
       style="clip-path:url(#SVGID_4_);fill:#C3C3C3;"
       d="M38.8,255.8c7,14.4,37,23.6,61.1,22.7c24-0.9,23.3-7.3,25.4-28.4   c2.1-21.1-83.1-6.8-83.5-5.3"
       id="path29"
       clip-path="url(#SVGID_4_)" /><path
       style="clip-path:url(#SVGID_4_);fill:#006591;"
       d="M21.3,235.4c5.2,16.5,26.1,26.8,41.6,30.6c15.5,3.8,58.9,3.6,61.1-10.3   c2.2-13.9-21.2-26.1-21.2-26.1L21.3,235.4z"
       id="path31"
       clip-path="url(#SVGID_4_)" /><path
       style="clip-path:url(#SVGID_4_);fill:#008FD1;"
       d="M117.2,125.5c-18.6,0.9-66.1,5.8-74.1,17c-8,11.2-18.7,44.5-20,58.6   c-1.3,14.1-9.7,39.9,9.3,44.4c19,4.6,57.4,12.4,71.6,0.2c14.3-12.2,24.4-114.3,20.5-114.8C120.7,130.5,117.2,125.5,117.2,125.5"
       id="path33"
       clip-path="url(#SVGID_4_)" /><path
       style="clip-path:url(#SVGID_4_);fill:#006E9F;"
       d="M117.2,125.5c6.8,4.2,14.8,6.8,14.8,16.8S127.3,251,124,255.7   c-3.3,4.7-20.1,0.2-20-9.9C106.9,236.5,117.2,125.5,117.2,125.5"
       id="path35"
       clip-path="url(#SVGID_4_)" /><path
       style="clip-path:url(#SVGID_4_);fill:#FFFFFF;"
       d="M89.6,171.5l-2.6,0.1c-1.5,0.1-2.7-1.1-2.6-2.6l0.2-2.6   c0.1-1.5,1.4-2.8,2.9-2.9l2.6-0.1c1.5-0.1,2.7,1.1,2.6,2.6l-0.1,2.6C92.4,170.1,91.1,171.5,89.6,171.5"
       id="path37"
       clip-path="url(#SVGID_4_)" /><path
       style="clip-path:url(#SVGID_4_);fill:#FFFFFF;"
       d="M89.6,171.5l-2.6,0.1c-1.5,0.1-2.7-1.1-2.6-2.6l0.2-2.6   c0.1-1.5,1.4-2.8,2.9-2.9l2.6-0.1c1.5-0.1,2.7,1.1,2.6,2.6l-0.1,2.6C92.4,170.1,91.1,171.5,89.6,171.5"
       id="path39"
       clip-path="url(#SVGID_4_)" /><path
       style="clip-path:url(#SVGID_4_);fill:#FFFFFF;"
       d="M80.4,171.9l-2.6,0.1c-1.5,0.1-2.7-1.1-2.6-2.6l0.2-2.6   c0.1-1.5,1.4-2.8,3-2.9l2.6-0.1c1.5-0.1,2.7,1.1,2.6,2.6l-0.2,2.6C83.2,170.6,81.9,171.9,80.4,171.9"
       id="path41"
       clip-path="url(#SVGID_4_)" /><path
       style="clip-path:url(#SVGID_4_);fill:#FFFFFF;"
       d="M71.1,172.4l-2.6,0.1c-1.5,0.1-2.7-1.1-2.6-2.6l0.2-2.5   c0.1-1.5,1.5-2.8,3-2.9l2.6-0.1c1.5-0.1,2.7,1.1,2.6,2.6l-0.2,2.6C74,171,72.7,172.3,71.1,172.4"
       id="path43"
       clip-path="url(#SVGID_4_)" /><path
       style="clip-path:url(#SVGID_4_);fill:#FFFFFF;"
       d="M61.9,172.8l-2.6,0.1c-1.5,0.1-2.7-1.1-2.5-2.5l0.2-2.5   c0.1-1.5,1.5-2.7,3-2.8l2.6-0.1c1.5-0.1,2.7,1.1,2.5,2.5l-0.2,2.5C64.8,171.4,63.4,172.7,61.9,172.8"
       id="path45"
       clip-path="url(#SVGID_4_)" /><path
       style="clip-path:url(#SVGID_4_);fill:#FFFFFF;"
       d="M88.9,184.1l-2.6,0.1c-1.6,0-2.8-1.2-2.7-2.7l0.1-2.6   c0.1-1.5,1.4-2.8,3-2.9l2.6-0.1c1.5-0.1,2.7,1.1,2.7,2.7l-0.1,2.6C91.8,182.7,90.5,184,88.9,184.1"
       id="path47"
       clip-path="url(#SVGID_4_)" /><path
       style="clip-path:url(#SVGID_4_);fill:#FFFFFF;"
       d="M79.6,184.4l-2.6,0.1c-1.6,0-2.7-1.1-2.6-2.7l0.2-2.6   c0.1-1.5,1.4-2.8,3-2.8l2.6-0.1c1.5-0.1,2.7,1.1,2.6,2.7l-0.2,2.6C82.5,183,81.1,184.3,79.6,184.4"
       id="path49"
       clip-path="url(#SVGID_4_)" /><path
       style="clip-path:url(#SVGID_4_);fill:#FFFFFF;"
       d="M70.2,184.6l-2.6,0.1c-1.6,0-2.7-1.1-2.6-2.6l0.2-2.5   c0.1-1.5,1.5-2.8,3-2.8l2.6-0.1c1.5-0.1,2.7,1.1,2.6,2.6l-0.2,2.6C73.1,183.3,71.8,184.6,70.2,184.6"
       id="path51"
       clip-path="url(#SVGID_4_)" /><path
       style="clip-path:url(#SVGID_4_);fill:#FFFFFF;"
       d="M60.9,184.9l-2.6,0.1c-1.6,0-2.7-1.1-2.6-2.6l0.2-2.5   c0.1-1.5,1.5-2.7,3-2.8l2.6-0.1c1.5-0.1,2.7,1.1,2.6,2.6l-0.2,2.5C63.8,183.6,62.4,184.9,60.9,184.9"
       id="path53"
       clip-path="url(#SVGID_4_)" /><path
       style="clip-path:url(#SVGID_4_);fill:#FFFFFF;"
       d="M88.3,196.7l-2.7,0c-1.6,0-2.8-1.2-2.7-2.7l0.2-2.6c0.1-1.5,1.4-2.8,3-2.8   l2.7-0.1c1.6,0,2.8,1.2,2.7,2.7l-0.1,2.6C91.2,195.4,89.8,196.6,88.3,196.7"
       id="path55"
       clip-path="url(#SVGID_4_)" /><path
       style="clip-path:url(#SVGID_4_);fill:#FFFFFF;"
       d="M78.8,196.8l-2.7,0c-1.6,0-2.8-1.2-2.7-2.7l0.2-2.6c0.1-1.5,1.5-2.8,3-2.8   l2.7-0.1c1.6,0,2.8,1.2,2.7,2.7l-0.2,2.6C81.7,195.5,80.4,196.8,78.8,196.8"
       id="path57"
       clip-path="url(#SVGID_4_)" /><path
       style="clip-path:url(#SVGID_4_);fill:#FFFFFF;"
       d="M69.3,196.9l-2.7,0c-1.6,0-2.8-1.2-2.6-2.7l0.2-2.5   c0.1-1.5,1.5-2.7,3.1-2.8l2.7-0.1c1.6,0,2.8,1.2,2.6,2.7l-0.2,2.6C72.3,195.7,70.9,196.9,69.3,196.9"
       id="path59"
       clip-path="url(#SVGID_4_)" /><path
       style="clip-path:url(#SVGID_4_);fill:#FFFFFF;"
       d="M59.8,197.1l-2.7,0c-1.6,0-2.8-1.2-2.6-2.6l0.2-2.5   c0.1-1.5,1.5-2.7,3.1-2.7l2.7-0.1c1.6,0,2.7,1.1,2.6,2.6l-0.2,2.5C62.8,195.8,61.4,197.1,59.8,197.1"
       id="path61"
       clip-path="url(#SVGID_4_)" /><path
       style="clip-path:url(#SVGID_4_);fill:#FFFFFF;"
       d="M87.6,209.2h-2.7c-1.6,0-2.8-1.2-2.7-2.8l0.2-2.6c0.1-1.5,1.5-2.8,3-2.8   l2.7,0c1.6,0,2.8,1.2,2.7,2.8l-0.1,2.6C90.6,208,89.2,209.2,87.6,209.2"
       id="path63"
       clip-path="url(#SVGID_4_)" /><path
       style="clip-path:url(#SVGID_4_);fill:#FFFFFF;"
       d="M78,209.2h-2.7c-1.6,0-2.8-1.2-2.7-2.7l0.2-2.6c0.1-1.5,1.5-2.7,3.1-2.8   l2.7,0c1.6,0,2.8,1.2,2.7,2.7l-0.2,2.6C81,208,79.6,209.2,78,209.2"
       id="path65"
       clip-path="url(#SVGID_4_)" /><path
       style="clip-path:url(#SVGID_4_);fill:#FFFFFF;"
       d="M68.4,209.2h-2.7c-1.6,0-2.8-1.2-2.7-2.7l0.2-2.5c0.1-1.5,1.5-2.7,3.1-2.7   l2.7,0c1.6,0,2.8,1.2,2.7,2.7l-0.2,2.6C71.4,208,70,209.2,68.4,209.2"
       id="path67"
       clip-path="url(#SVGID_4_)" /><path
       style="clip-path:url(#SVGID_4_);fill:#FFFFFF;"
       d="M58.8,209.2h-2.7c-1.6,0-2.8-1.2-2.7-2.7l0.2-2.5c0.1-1.5,1.5-2.7,3.1-2.7   l2.7,0c1.6,0,2.8,1.2,2.7,2.7l-0.2,2.5C61.8,208,60.4,209.2,58.8,209.2"
       id="path69"
       clip-path="url(#SVGID_4_)" /><path
       style="clip-path:url(#SVGID_4_);fill:#006E9F;"
       d="M51.4,149.9v5.4l-4.3,19.6c0,0-7.7,9.6-7.7,15c0,5.4-4.9,45.1-4.9,45.1   s-9.9,0.8-10.9,0c-1.1-0.8-3.6-7.3-3.6-7.3l13.9-62l11.6-17.3L51.4,149.9z"
       id="path71"
       clip-path="url(#SVGID_4_)" /><polygon
       style="clip-path:url(#SVGID_4_);fill:#191918;"
       points="25.1,172.5 45,170.2 39.6,153.8 25.1,154.7  "
       id="polygon73"
       clip-path="url(#SVGID_4_)" /><path
       style="clip-path:url(#SVGID_4_);fill:#282827;"
       d="M24.9,140c1.7-2.8,13.2-3.3,16.2-1.4c-3.9,9.7-19.4,48-16.2,58   c3.2,10,3.2,8.3,4.9,9c1.7,0.7,2.2,6.9,1.9,10.5c-0.3,3.8-1.4,12.4-1.6,13.6c-0.2,1.2-16.5,1-19.4,0c-4.2-1.4-4.4-1.2-5.2-5.7   C4.8,219.4,2.1,177.8,24.9,140"
       id="path75"
       clip-path="url(#SVGID_4_)" /><path
       style="clip-path:url(#SVGID_4_);fill:#252524;"
       d="M51.4,150.4c0,0-9.3-12.5-10.5-11.9c-1.3,0.6-8.8,23.7-8.8,23.7l12.9,7.9   L51.4,150.4z"
       id="path77"
       clip-path="url(#SVGID_4_)" /></g><g
     id="g79"><defs
       id="defs81"><path
         id="SVGID_85_"
         d="M-459.5,190.6c0,105.3,85.4,190.6,190.6,190.6s190.6-85.4,190.6-190.6C-78.2,85.4-163.6,0-268.9,0    S-459.5,85.4-459.5,190.6" /></defs><clipPath
       id="SVGID_5_"><use
         xlink:href="#SVGID_85_"
         style="overflow:visible;"
         id="use85" /></clipPath><polygon
       style="clip-path:url(#SVGID_5_);fill:#6C852C;"
       points="166.4,339.4 195.2,338.8 166.4,333.4  "
       id="polygon87"
       clip-path="url(#SVGID_5_)" /></g><g
     id="g89"><defs
       id="defs91"><path
         id="SVGID_87_"
         d="M0,190.6c0,105.3,85.4,190.6,190.6,190.6s190.6-85.4,190.6-190.6C381.3,85.4,295.9,0,190.6,0    S0,85.4,0,190.6" /></defs><clipPath
       id="SVGID_7_"><use
         xlink:href="#SVGID_87_"
         style="overflow:visible;"
         id="use95" /></clipPath><rect
       x="-101.5"
       y="-108.8"
       style="clip-path:url(#SVGID_7_);fill:#92B43A;"
       width="584.3"
       height="598.8"
       id="rect97"
       clip-path="url(#SVGID_7_)" /><polygon
       style="clip-path:url(#SVGID_7_);fill:#6C852C;"
       points="315.2,-108.8 -101.5,490 482.8,490 482.8,-108.8  "
       id="polygon99"
       clip-path="url(#SVGID_7_)" /><path
       style="clip-path:url(#SVGID_7_);fill:#C8A780;"
       d="M218.8,290.7c0.4-15.8-8.4-42-5.8-55.2c2.6-13.2,4.7-22.2-2.6-30.3   c-7.2-8.1-26.4-6.4-29.8,2.1c-3.4,8.5,1.7,31.1,1.7,43.5C182.2,263.2,218.8,290.7,218.8,290.7"
       id="path101"
       clip-path="url(#SVGID_7_)" /></g><g
     id="g103"><defs
       id="defs105"><polygon
         id="SVGID_89_"
         points="128.2,47.5 128.2,47.5 128.2,237.4 239.6,237.4 239.6,237.4 239.6,47.5 239.6,47.5   " /></defs><clipPath
       id="SVGID_9_"><use
         xlink:href="#SVGID_89_"
         style="overflow:visible;"
         id="use109" /></clipPath><linearGradient
       id="SVGID_10_"
       gradientUnits="userSpaceOnUse"
       x1="-1000"
       y1="760"
       x2="-999"
       y2="760"
       gradientTransform="matrix(-1.3276 -144.0475 -144.0475 1.3276 108333 -144844.0156)"><stop
         offset="0"
         style="stop-color:#D1D1D1"
         id="stop112" /><stop
         offset="0.3112"
         style="stop-color:#F4F4F4"
         id="stop114" /><stop
         offset="1"
         style="stop-color:#F4F4F4"
         id="stop116" /></linearGradient><polygon
       class="st6"
       points="128.2,238.4 126.5,47.5 239.6,46.5 241.3,237.4  "
       id="polygon118"
       clip-path="url(#SVGID_9_)" /></g><g
     id="g120"><defs
       id="defs122"><path
         id="SVGID_92_"
         d="M0,190.6c0,105.3,85.4,190.6,190.6,190.6s190.6-85.4,190.6-190.6C381.3,85.4,295.9,0,190.6,0    S0,85.4,0,190.6" /></defs><clipPath
       id="SVGID_12_"><use
         xlink:href="#SVGID_92_"
         style="overflow:visible;"
         id="use126" /></clipPath><path
       style="clip-path:url(#SVGID_12_);fill:#ECD8BE;"
       d="M221,429.9c-2.1-11.1-6.4-30.3-1.3-40.1s12.8-52.4,8.5-67.8   c-4.3-15.3-6.8-38.8-17.1-47.7c-10.2-9-63.1,1.3-66.9,13.2c-3.8,11.9-17.1,54.6-11.9,65.7c5.1,11.1,16.6,23.9,17.1,31.5   c0.4,7.7,2.1,45.6,2.1,49C151.5,435.4,221,429.9,221,429.9"
       id="path128"
       clip-path="url(#SVGID_12_)" /><rect
       x="141.7"
       y="178.2"
       style="clip-path:url(#SVGID_12_);fill-rule:evenodd;clip-rule:evenodd;"
       width="3.4"
       height="3.4"
       id="rect130"
       clip-path="url(#SVGID_12_)" /><path
       style="clip-path:url(#SVGID_12_);fill-rule:evenodd;clip-rule:evenodd;"
       d="M148.4,161.3h16.9v-23.6h-23.6v23.6H148.4z    M145.1,154.6V141h16.9v16.9h-16.9V154.6z"
       id="path132"
       clip-path="url(#SVGID_12_)" /><polygon
       style="clip-path:url(#SVGID_12_);fill-rule:evenodd;clip-rule:evenodd;"
       points="148.4,164.7 141.7,164.7 141.7,174.8    145.1,174.8 145.1,171.4 148.4,171.4  "
       id="polygon134"
       clip-path="url(#SVGID_12_)" /><polygon
       style="clip-path:url(#SVGID_12_);fill-rule:evenodd;clip-rule:evenodd;"
       points="148.4,181.6 145.1,181.6 145.1,195.1    148.4,195.1 148.4,184.9 151.8,184.9 151.8,181.6  "
       id="polygon136"
       clip-path="url(#SVGID_12_)" /><polygon
       style="clip-path:url(#SVGID_12_);fill-rule:evenodd;clip-rule:evenodd;"
       points="155.2,154.6 158.6,154.6 158.6,144.4    148.4,144.4 148.4,154.6  "
       id="polygon138"
       clip-path="url(#SVGID_12_)" /><polygon
       style="clip-path:url(#SVGID_12_);fill-rule:evenodd;clip-rule:evenodd;"
       points="151.8,174.8 151.8,171.4 148.4,171.4    148.4,178.2 158.6,178.2 158.6,174.8  "
       id="polygon140"
       clip-path="url(#SVGID_12_)" /><polygon
       style="clip-path:url(#SVGID_12_);fill-rule:evenodd;clip-rule:evenodd;"
       points="155.2,184.9 151.8,184.9 151.8,191.7    158.6,191.7 158.6,188.3 155.2,188.3  "
       id="polygon142"
       clip-path="url(#SVGID_12_)" /><polygon
       style="clip-path:url(#SVGID_12_);fill-rule:evenodd;clip-rule:evenodd;"
       points="151.8,205.2 148.4,205.2 148.4,215.3    158.6,215.3 158.6,205.2  "
       id="polygon144"
       clip-path="url(#SVGID_12_)" /><rect
       x="155.2"
       y="168.1"
       style="clip-path:url(#SVGID_12_);fill-rule:evenodd;clip-rule:evenodd;"
       width="3.4"
       height="3.4"
       id="rect146"
       clip-path="url(#SVGID_12_)" /><rect
       x="155.2"
       y="181.6"
       style="clip-path:url(#SVGID_12_);fill-rule:evenodd;clip-rule:evenodd;"
       width="3.4"
       height="3.4"
       id="rect148"
       clip-path="url(#SVGID_12_)" /><polygon
       style="clip-path:url(#SVGID_12_);fill-rule:evenodd;clip-rule:evenodd;"
       points="161.9,195.1 165.3,195.1 165.3,191.7    158.6,191.7 158.6,195.1  "
       id="polygon150"
       clip-path="url(#SVGID_12_)" /><path
       style="clip-path:url(#SVGID_12_);fill-rule:evenodd;clip-rule:evenodd;"
       d="M158.6,198.4h-16.9v23.6h23.6v-23.6H158.6z    M161.9,205.2v13.5h-16.9v-16.9h16.9V205.2z"
       id="path152"
       clip-path="url(#SVGID_12_)" /><polygon
       style="clip-path:url(#SVGID_12_);fill-rule:evenodd;clip-rule:evenodd;"
       points="165.3,168.1 165.3,171.4 168.7,171.4    168.7,164.7 158.6,164.7 158.6,168.1  "
       id="polygon154"
       clip-path="url(#SVGID_12_)" /><polygon
       style="clip-path:url(#SVGID_12_);fill-rule:evenodd;clip-rule:evenodd;"
       points="161.9,171.4 158.6,171.4 158.6,174.8    165.3,174.8 165.3,171.4  "
       id="polygon156"
       clip-path="url(#SVGID_12_)" /><rect
       x="161.9"
       y="178.2"
       style="clip-path:url(#SVGID_12_);fill-rule:evenodd;clip-rule:evenodd;"
       width="3.4"
       height="3.4"
       id="rect158"
       clip-path="url(#SVGID_12_)" /><rect
       x="165.3"
       y="174.8"
       style="clip-path:url(#SVGID_12_);fill-rule:evenodd;clip-rule:evenodd;"
       width="3.4"
       height="3.4"
       id="rect160"
       clip-path="url(#SVGID_12_)" /><rect
       x="168.7"
       y="147.8"
       style="clip-path:url(#SVGID_12_);fill-rule:evenodd;clip-rule:evenodd;"
       width="3.4"
       height="6.8"
       id="rect162"
       clip-path="url(#SVGID_12_)" /><rect
       x="168.7"
       y="157.9"
       style="clip-path:url(#SVGID_12_);fill-rule:evenodd;clip-rule:evenodd;"
       width="3.4"
       height="3.4"
       id="rect164"
       clip-path="url(#SVGID_12_)" /><polygon
       style="clip-path:url(#SVGID_12_);fill-rule:evenodd;clip-rule:evenodd;"
       points="172.1,174.8 175.5,174.8 175.5,171.4    168.7,171.4 168.7,174.8  "
       id="polygon166"
       clip-path="url(#SVGID_12_)" /><path
       style="clip-path:url(#SVGID_12_);fill-rule:evenodd;clip-rule:evenodd;"
       d="M172.1,198.4h6.8v-20.3h3.4v-3.4h3.4v-3.4h-6.8   v3.4h-3.4v3.4h-6.8v3.4h-3.4v3.4h-6.8v3.4h10.1v3.4h3.4v3.4h-3.4v10.1h3.4V198.4z M172.1,184.9h3.4v3.4h-3.4V184.9z"
       id="path168"
       clip-path="url(#SVGID_12_)" /><polygon
       style="clip-path:url(#SVGID_12_);fill-rule:evenodd;clip-rule:evenodd;"
       points="168.7,218.7 168.7,222.1 172.1,222.1    172.1,215.3 168.7,215.3  "
       id="polygon170"
       clip-path="url(#SVGID_12_)" /><rect
       x="172.1"
       y="205.2"
       style="clip-path:url(#SVGID_12_);fill-rule:evenodd;clip-rule:evenodd;"
       width="3.4"
       height="3.4"
       id="rect172"
       clip-path="url(#SVGID_12_)" /><polygon
       style="clip-path:url(#SVGID_12_);fill-rule:evenodd;clip-rule:evenodd;"
       points="175.5,161.3 178.8,161.3 178.8,151.2    182.2,151.2 182.2,144.4 185.6,144.4 185.6,141 182.2,141 182.2,137.7 172.1,137.7 172.1,141 178.8,141 178.8,144.4 172.1,144.4    172.1,147.8 175.5,147.8 175.5,154.6 172.1,154.6 172.1,157.9 175.5,157.9  "
       id="polygon174"
       clip-path="url(#SVGID_12_)" /><polygon
       style="clip-path:url(#SVGID_12_);fill-rule:evenodd;clip-rule:evenodd;"
       points="178.8,168.1 178.8,164.7 175.5,164.7    175.5,161.3 172.1,161.3 172.1,168.1 175.5,168.1 175.5,171.4 178.8,171.4  "
       id="polygon176"
       clip-path="url(#SVGID_12_)" /><polygon
       style="clip-path:url(#SVGID_12_);fill-rule:evenodd;clip-rule:evenodd;"
       points="182.2,201.8 175.5,201.8 175.5,205.2    178.8,205.2 178.8,208.6 182.2,208.6  "
       id="polygon178"
       clip-path="url(#SVGID_12_)" /><polygon
       style="clip-path:url(#SVGID_12_);fill-rule:evenodd;clip-rule:evenodd;"
       points="182.2,151.2 182.2,154.6 185.6,154.6    185.6,157.9 189,157.9 189,161.3 192.3,161.3 192.3,154.6 189,154.6 189,151.2  "
       id="polygon180"
       clip-path="url(#SVGID_12_)" /><rect
       x="185.6"
       y="137.7"
       style="clip-path:url(#SVGID_12_);fill-rule:evenodd;clip-rule:evenodd;"
       width="3.4"
       height="3.4"
       id="rect182"
       clip-path="url(#SVGID_12_)" /><polygon
       style="clip-path:url(#SVGID_12_);fill-rule:evenodd;clip-rule:evenodd;"
       points="185.6,161.3 185.6,157.9 182.2,157.9    182.2,168.1 185.6,168.1 185.6,164.7 189,164.7 189,161.3  "
       id="polygon184"
       clip-path="url(#SVGID_12_)" /><polygon
       style="clip-path:url(#SVGID_12_);fill-rule:evenodd;clip-rule:evenodd;"
       points="185.6,198.4 182.2,198.4 182.2,201.8    189,201.8 189,205.2 192.3,205.2 192.3,198.4  "
       id="polygon186"
       clip-path="url(#SVGID_12_)" /><rect
       x="189"
       y="141"
       style="clip-path:url(#SVGID_12_);fill-rule:evenodd;clip-rule:evenodd;"
       width="3.4"
       height="3.4"
       id="rect188"
       clip-path="url(#SVGID_12_)" /><rect
       x="189"
       y="147.8"
       style="clip-path:url(#SVGID_12_);fill-rule:evenodd;clip-rule:evenodd;"
       width="3.4"
       height="3.4"
       id="rect190"
       clip-path="url(#SVGID_12_)" /><polygon
       style="clip-path:url(#SVGID_12_);fill-rule:evenodd;clip-rule:evenodd;"
       points="189,164.7 189,171.4 192.3,171.4    192.3,174.8 195.7,174.8 195.7,171.4 202.5,171.4 202.5,168.1 199.1,168.1 199.1,154.6 195.7,154.6 195.7,161.3 192.3,161.3    192.3,164.7  "
       id="polygon192"
       clip-path="url(#SVGID_12_)" /><polygon
       style="clip-path:url(#SVGID_12_);fill-rule:evenodd;clip-rule:evenodd;"
       points="195.7,147.8 199.1,147.8 199.1,137.7    195.7,137.7 195.7,144.4 192.3,144.4 192.3,147.8  "
       id="polygon194"
       clip-path="url(#SVGID_12_)" /><rect
       x="202.5"
       y="198.4"
       style="clip-path:url(#SVGID_12_);fill-rule:evenodd;clip-rule:evenodd;"
       width="3.4"
       height="3.4"
       id="rect196"
       clip-path="url(#SVGID_12_)" /><rect
       x="205.8"
       y="171.4"
       style="clip-path:url(#SVGID_12_);fill-rule:evenodd;clip-rule:evenodd;"
       width="3.4"
       height="3.4"
       id="rect198"
       clip-path="url(#SVGID_12_)" /><rect
       x="209.2"
       y="174.8"
       style="clip-path:url(#SVGID_12_);fill-rule:evenodd;clip-rule:evenodd;"
       width="3.4"
       height="3.4"
       id="rect200"
       clip-path="url(#SVGID_12_)" /><polygon
       style="clip-path:url(#SVGID_12_);fill-rule:evenodd;clip-rule:evenodd;"
       points="212.6,144.4 209.2,144.4 209.2,154.5    219.3,154.5 219.3,144.4  "
       id="polygon202"
       clip-path="url(#SVGID_12_)" /><polygon
       style="clip-path:url(#SVGID_12_);fill-rule:evenodd;clip-rule:evenodd;"
       points="212.6,174.8 216,174.8 216,164.7    209.2,164.7 209.2,171.4 212.6,171.4  "
       id="polygon204"
       clip-path="url(#SVGID_12_)" /><polygon
       style="clip-path:url(#SVGID_12_);fill-rule:evenodd;clip-rule:evenodd;"
       points="212.6,215.3 216,215.3 216,211.9    222.7,211.9 222.7,222.1 226.1,222.1 226.1,205.2 222.7,205.2 222.7,208.6 219.3,208.6 219.3,205.2 216,205.2 216,208.6    212.6,208.6  "
       id="polygon206"
       clip-path="url(#SVGID_12_)" /><polygon
       style="clip-path:url(#SVGID_12_);fill-rule:evenodd;clip-rule:evenodd;"
       points="219.3,171.4 219.3,178.2 222.7,178.2    222.7,181.6 226.1,181.6 226.1,171.4  "
       id="polygon208"
       clip-path="url(#SVGID_12_)" /><path
       style="clip-path:url(#SVGID_12_);fill-rule:evenodd;clip-rule:evenodd;"
       d="M219.3,184.9v-3.4H216v3.4h-6.8v3.4h-3.4v-3.4   h-3.4v-3.4h3.4v-6.8h-3.4v3.4h-3.4v10.1h3.4v3.4h-6.8v-10.1h-3.4v-6.8H189v3.4h-3.4v3.4h-3.4v3.4h3.4v3.4h-3.4v6.8h3.4v-3.4h3.4   v3.4h3.4v3.4h3.4v6.8h-3.4v6.8H189v-3.4h-6.8v3.4h3.4v3.4h-3.4v3.4h-3.4v-10.1h-3.4v13.5H189v-6.8h3.4v6.8h6.8v-3.4h3.4v3.4h10.1   v-3.4h-3.4v-3.4h-6.8v-3.4h-3.4v3.4h-3.4v-6.8h6.8v3.4h6.8v-3.4h3.4v-13.5h3.4v3.4h6.8v-3.4h3.4v-10.1H219.3z M209.2,198.4v6.8   h-10.1v-10.1h10.1V198.4z M212.6,188.3h3.4v3.4h-3.4V188.3z M222.7,191.7h-3.4v-3.4h3.4V191.7z"
       id="path210"
       clip-path="url(#SVGID_12_)" /><path
       style="clip-path:url(#SVGID_12_);fill-rule:evenodd;clip-rule:evenodd;"
       d="M222.7,137.7h-20.3v23.6h23.6v-23.6H222.7z    M222.7,144.4v13.5h-16.9V141h16.9V144.4z"
       id="path212"
       clip-path="url(#SVGID_12_)" /><rect
       x="222.7"
       y="198.4"
       style="clip-path:url(#SVGID_12_);fill-rule:evenodd;clip-rule:evenodd;"
       width="3.4"
       height="3.4"
       id="rect214"
       clip-path="url(#SVGID_12_)" /></g><g
     id="g216"><defs
       id="defs218"><path
         id="SVGID_94_"
         d="M190.3,213.7c-8.5,1.7-33.2,8.5-38.4,14.5c-5.1,6-20.5,37.1-22.6,39.6c-2.1,2.6-15.8,26-14.5,31.1    c1.3,5.1,70.3-45.6,72-49.9c2.6-6.4,5.1-4.7,5.5-7.2c4.3,2.6,16.2,6.4,24.7,2.1c8.5-4.3,14.9-11.9,11.1-17.9    c-3.5-5.4-24.9-12.6-35.2-12.6C192.1,213.5,191.1,213.6,190.3,213.7" /></defs><clipPath
       id="SVGID_13_"><use
         xlink:href="#SVGID_94_"
         style="overflow:visible;"
         id="use222" /></clipPath><linearGradient
       id="SVGID_15_"
       gradientUnits="userSpaceOnUse"
       x1="-1000"
       y1="760.0708"
       x2="-999"
       y2="760.0708"
       gradientTransform="matrix(14.7135 33.9228 33.9228 -14.7135 -10908.8799 45338.3203)"><stop
         offset="0"
         style="stop-color:#D7BA94"
         id="stop225" /><stop
         offset="0.3622"
         style="stop-color:#E4C9A6"
         id="stop227" /><stop
         offset="1"
         style="stop-color:#ECD8BF"
         id="stop229" /></linearGradient><polygon
       style="clip-path:url(#SVGID_13_);fill:url(#SVGID_15_);"
       points="213.4,170.2 265.2,289.8 132.4,347.4 80.5,227.9  "
       id="polygon231"
       clip-path="url(#SVGID_13_)" /></g><g
     id="g233"><defs
       id="defs235"><path
         id="SVGID_97_"
         d="M157.3,333.1c0,14.7,4.8,41.8,17.9,47.5c3.4,0.3,6.8,0.5,10.2,0.5c17.5-3.5,43.8-23.3,43.8-38.3    c0-16.5-24.2-39.7-41.2-39.7C171.1,303.3,157.3,316.6,157.3,333.1" /></defs><clipPath
       id="SVGID_16_"><use
         xlink:href="#SVGID_97_"
         style="overflow:visible;"
         id="use239" /></clipPath><linearGradient
       id="SVGID_18_"
       gradientUnits="userSpaceOnUse"
       x1="-1000"
       y1="760.0607"
       x2="-999"
       y2="760.0607"
       gradientTransform="matrix(15.3266 28.2009 28.2009 -15.3266 -5928.5234 40166.5547)"><stop
         offset="0"
         style="stop-color:#D7BA94"
         id="stop242" /><stop
         offset="1.020410e-002"
         style="stop-color:#D7BA94"
         id="stop244" /><stop
         offset="0.2092"
         style="stop-color:#E4C9A6"
         id="stop246" /><stop
         offset="1"
         style="stop-color:#ECD8BF"
         id="stop248" /></linearGradient><polygon
       style="clip-path:url(#SVGID_16_);fill:url(#SVGID_18_);"
       points="212.8,273.1 261.9,363.5 173.7,411.4 124.6,321.1  "
       id="polygon250"
       clip-path="url(#SVGID_16_)" /></g><g
     id="g252"><defs
       id="defs254"><path
         id="SVGID_100_"
         d="M181.8,244c-9.8,1.3-40.1,29.8-47.3,34.5c-7.2,4.7-22.2,15.8-21.7,27.7c0.4,11.9,8.8,21.6,13.3,34.3    c2.1,5.9,70.7-44.2,70.7-44.2c9.4,3,24.7-7.2,20.9-16.1c-3.8-8.8-25-36.3-35.1-36.3C182.2,244,182,244,181.8,244" /></defs><clipPath
       id="SVGID_19_"><use
         xlink:href="#SVGID_100_"
         style="overflow:visible;"
         id="use258" /></clipPath><linearGradient
       id="SVGID_21_"
       gradientUnits="userSpaceOnUse"
       x1="-1000"
       y1="760.0468"
       x2="-999"
       y2="760.0468"
       gradientTransform="matrix(4.0335 28.7389 28.7389 -4.0335 -17646.8047 32069.0898)"><stop
         offset="0"
         style="stop-color:#D7BA94"
         id="stop261" /><stop
         offset="0.3622"
         style="stop-color:#E4C9A6"
         id="stop263" /><stop
         offset="1"
         style="stop-color:#ECD8BF"
         id="stop265" /></linearGradient><polygon
       style="clip-path:url(#SVGID_19_);fill:url(#SVGID_21_);"
       points="219.4,228.9 235.6,344.5 114.4,361.5 98.2,245.9  "
       id="polygon267"
       clip-path="url(#SVGID_19_)" /></g><g
     id="g269"><defs
       id="defs271"><path
         id="SVGID_103_"
         d="M133.6,302.4c-9.8,5.1-13.2,11.9-12.8,21.3c0.4,9.4,16.6,43.5,24.3,51.2c0.3,0.3,0.7,0.7,1,1.2    c9.5,2.3,19.3,3.8,29.3,4.6c0.5-2.5,0.5-4.4,0-5.7c-3.9-9.2-10.1-24.6-10.1-34c0-9.4,22.6-31.4,24.3-29.7    c1.7,1.7,3.9,7.3,14.1,6.4c10.2-0.9,11.4-2.1,11.4-15.3c0-13.2-14.9-25.6-27.3-29.4c-0.8-0.2-1.6-0.4-2.6-0.4    C171.5,272.6,142.8,297.6,133.6,302.4" /></defs><clipPath
       id="SVGID_23_"><use
         xlink:href="#SVGID_103_"
         style="overflow:visible;"
         id="use275" /></clipPath><linearGradient
       id="SVGID_25_"
       gradientUnits="userSpaceOnUse"
       x1="-1000"
       y1="759.967"
       x2="-999"
       y2="759.967"
       gradientTransform="matrix(6.8208 56.6976 56.6976 -6.8208 -36103.375 62177.8164)"><stop
         offset="0"
         style="stop-color:#D7BA94"
         id="stop278" /><stop
         offset="1.020410e-002"
         style="stop-color:#D7BA94"
         id="stop280" /><stop
         offset="0.2092"
         style="stop-color:#E4C9A6"
         id="stop282" /><stop
         offset="1"
         style="stop-color:#ECD8BF"
         id="stop284" /></linearGradient><polygon
       style="clip-path:url(#SVGID_23_);fill:url(#SVGID_25_);"
       points="213.7,261.4 227.9,379.2 121.8,391.9 107.6,274.2  "
       id="polygon286"
       clip-path="url(#SVGID_23_)" /></g><g
     id="g288"><defs
       id="defs290"><path
         id="SVGID_106_"
         d="M0,190.6c0,105.3,85.4,190.6,190.6,190.6s190.6-85.4,190.6-190.6C381.3,85.4,295.9,0,190.6,0    S0,85.4,0,190.6" /></defs><clipPath
       id="SVGID_27_"><use
         xlink:href="#SVGID_106_"
         style="overflow:visible;"
         id="use294" /></clipPath><g
       style="clip-path:url(#SVGID_27_);"
       id="g296"
       clip-path="url(#SVGID_27_)"><text
         transform="translate(139.9844,110.7847)"
         class="st88 st89"
         id="text298"
         x="40.419842"
         y="0"
         style="font-size:30.69330025px;font-family:ArialMT"><tspan
           style="font-style:normal;font-variant:normal;font-weight:normal;font-stretch:normal;font-family:Arial;-inkscape-font-specification:Arial;text-align:center;text-anchor:middle"
           id="code">12345</tspan></text>
</g><ellipse
       style="clip-path:url(#SVGID_27_);fill:none;stroke:#C53988;stroke-width:11.949;stroke-miterlimit:10;"
       cx="183"
       cy="96.3"
       rx="94.8"
       ry="37.8"
       id="ellipse300"
       clip-path="url(#SVGID_27_)" /></g><g
     id="g312"><defs
       id="defs314"><rect
         id="SVGID_169_"
         x="-1000"
         y="-320"
         width="1920"
         height="1080" /></defs><clipPath
       id="SVGID_31_"><use
         xlink:href="#SVGID_169_"
         style="overflow:visible;"
         id="use318" /></clipPath></g><g
     id="g320"><defs
       id="defs322"><rect
         id="SVGID_171_"
         x="-1000"
         y="-320"
         width="1920"
         height="1080" /></defs><clipPath
       id="SVGID_33_"><use
         xlink:href="#SVGID_171_"
         style="overflow:visible;"
         id="use326" /></clipPath></g></svg>