<?xml version="1.0" encoding="utf-8"?>
<!-- Generator: Adobe Illustrator 19.1.1, SVG Export Plug-In . SVG Version: 6.00 Build 0)  -->
<svg version="1.1" id="Layer_1" xmlns="http://www.w3.org/2000/svg" xmlns:xlink="http://www.w3.org/1999/xlink" x="0px" y="0px"
	 viewBox="0 0 381.3 381.3" style="enable-background:new 0 0 381.3 381.3;" xml:space="preserve">
<style type="text/css">
	.st0{clip-path:url(#SVGID_2_);fill:#00425D;}
	.st1{clip-path:url(#SVGID_2_);fill:#006E9F;}
	.st2{clip-path:url(#SVGID_2_);fill:#C8A780;}
	.st3{clip-path:url(#SVGID_4_);fill:url(#SVGID_5_);}
	.st4{clip-path:url(#SVGID_7_);fill:#ECD8BE;}
	.st5{clip-path:url(#SVGID_7_);fill-rule:evenodd;clip-rule:evenodd;}
	.st6{clip-path:url(#SVGID_9_);fill:url(#SVGID_10_);}
	.st7{clip-path:url(#SVGID_12_);fill:url(#SVGID_13_);}
	.st8{clip-path:url(#SVGID_15_);fill:url(#SVGID_16_);}
	.st9{clip-path:url(#SVGID_18_);fill:url(#SVGID_19_);}
	.st10{clip-path:url(#SVGID_21_);}
	.st11{font-family:'ArialMT';}
	.st12{font-size:20.0289px;}
	.st13{clip-path:url(#SVGID_21_);fill:#F8F8F8;}
	.st14{clip-path:url(#SVGID_21_);fill:#008FD1;}
	.st15{clip-path:url(#SVGID_21_);fill:#002436;}
	.st16{clip-path:url(#SVGID_23_);fill:#92B43A;}
	.st17{clip-path:url(#SVGID_23_);fill:#EAEAEA;}
	.st18{clip-path:url(#SVGID_23_);fill:#6C852C;}
	.st19{clip-path:url(#SVGID_23_);fill:#D7B395;}
	.st20{clip-path:url(#SVGID_23_);fill:#6E504A;}
	.st21{clip-path:url(#SVGID_25_);fill:#624842;}
	.st22{clip-path:url(#SVGID_27_);fill:#6E504A;}
	.st23{clip-path:url(#SVGID_29_);fill:#624842;}
	.st24{clip-path:url(#SVGID_31_);fill:#DFCDB5;}
	.st25{clip-path:url(#SVGID_33_);fill:#D7B395;}
	.st26{clip-path:url(#SVGID_35_);fill:none;stroke:#FFFFFF;stroke-width:2.9081;stroke-miterlimit:10;}
	.st27{clip-path:url(#SVGID_35_);fill:#00425D;}
	.st28{clip-path:url(#SVGID_37_);fill:none;stroke:#000000;stroke-width:5.8163;stroke-miterlimit:10;}
	.st29{clip-path:url(#SVGID_37_);fill:#CD8D52;}
	.st30{clip-path:url(#SVGID_37_);fill:#002F44;}
	.st31{clip-path:url(#SVGID_39_);fill:#D7B395;}
	.st32{clip-path:url(#SVGID_39_);fill:#008FD1;}
	.st33{clip-path:url(#SVGID_41_);fill:#006E9F;}
	.st34{clip-path:url(#SVGID_41_);fill:#FFFFFF;}
	.st35{clip-path:url(#SVGID_43_);fill:#822927;}
	.st36{clip-path:url(#SVGID_45_);fill:#006998;}
	.st37{clip-path:url(#SVGID_45_);fill:#F4F4F4;}
	.st38{clip-path:url(#SVGID_45_);fill:#7C2724;}
	.st39{clip-path:url(#SVGID_47_);fill:#FFFFFF;}
	.st40{clip-path:url(#SVGID_49_);fill:#006998;}
	.st41{clip-path:url(#SVGID_49_);fill:#F4F4F4;}
	.st42{clip-path:url(#SVGID_49_);fill:#7C2724;}
	.st43{clip-path:url(#SVGID_51_);fill:#FFFFFF;}
	.st44{clip-path:url(#SVGID_53_);fill:#006E9F;}
	.st45{clip-path:url(#SVGID_55_);fill:url(#SVGID_56_);}
	.st46{clip-path:url(#SVGID_58_);fill:#008FD1;}
	.st47{clip-path:url(#SVGID_60_);fill:#006E9F;}
	.st48{clip-path:url(#SVGID_62_);fill:#F4F4F4;}
	.st49{clip-path:url(#SVGID_64_);fill:#C9C9C9;}
	.st50{clip-path:url(#SVGID_66_);fill:#DFCDB5;}
	.st51{clip-path:url(#SVGID_68_);fill:#D7B395;}
	.st52{clip-path:url(#SVGID_70_);fill:none;stroke:#FFFFFF;stroke-width:2.9081;stroke-miterlimit:10;}
	.st53{clip-path:url(#SVGID_70_);fill:#008FD1;}
	.st54{clip-path:url(#SVGID_72_);fill:#006E9F;}
	.st55{clip-path:url(#SVGID_74_);fill:#006E9F;}
	.st56{clip-path:url(#SVGID_74_);fill:#C3C3C3;}
	.st57{clip-path:url(#SVGID_74_);fill:#006591;}
	.st58{clip-path:url(#SVGID_74_);fill:#008FD1;}
	.st59{clip-path:url(#SVGID_74_);fill:#FFFFFF;}
	.st60{clip-path:url(#SVGID_74_);fill:#191918;}
	.st61{clip-path:url(#SVGID_74_);fill:#282827;}
	.st62{clip-path:url(#SVGID_74_);fill:#252524;}
	.st63{clip-path:url(#SVGID_74_);fill:none;stroke:#000000;stroke-width:1.4541;stroke-miterlimit:10;}
	.st64{clip-path:url(#SVGID_74_);fill:#624842;}
	.st65{clip-path:url(#SVGID_74_);fill:#D7B395;}
	.st66{clip-path:url(#SVGID_74_);fill:#DFCDB5;}
	.st67{clip-path:url(#SVGID_76_);fill:#D9BBA0;}
	.st68{clip-path:url(#SVGID_76_);fill:#D7B395;}
	.st69{clip-path:url(#SVGID_78_);fill:#6E504A;}
	.st70{clip-path:url(#SVGID_80_);fill:#86605A;}
	.st71{clip-path:url(#SVGID_80_);fill:#624842;}
	.st72{clip-path:url(#SVGID_82_);fill:#D7B395;}
	.st73{clip-path:url(#SVGID_82_);fill:#3C2B27;}
	.st74{clip-path:url(#SVGID_82_);fill:none;stroke:#AD9175;stroke-width:2.9081;stroke-linecap:round;stroke-miterlimit:10;}
	.st75{clip-path:url(#SVGID_82_);fill:#6B222C;}
	.st76{clip-path:url(#SVGID_84_);fill:#822927;}
	.st77{clip-path:url(#SVGID_84_);fill:#FFFFFF;}
	.st78{clip-path:url(#SVGID_86_);fill:#6E504A;}
	.st79{clip-path:url(#SVGID_86_);fill:#6C852C;}
	.st80{clip-path:url(#SVGID_88_);fill:#92B43A;}
	.st81{clip-path:url(#SVGID_88_);fill:#6C852C;}
	.st82{clip-path:url(#SVGID_88_);fill:#C8A780;}
	.st83{clip-path:url(#SVGID_90_);fill:url(#SVGID_91_);}
	.st84{clip-path:url(#SVGID_93_);fill:#ECD8BE;}
	.st85{clip-path:url(#SVGID_93_);fill-rule:evenodd;clip-rule:evenodd;}
	.st86{clip-path:url(#SVGID_95_);fill:url(#SVGID_96_);}
	.st87{clip-path:url(#SVGID_98_);fill:url(#SVGID_99_);}
	.st88{clip-path:url(#SVGID_101_);fill:url(#SVGID_102_);}
	.st89{clip-path:url(#SVGID_104_);fill:url(#SVGID_105_);}
	.st90{clip-path:url(#SVGID_107_);fill:#F8F8F8;}
	.st91{clip-path:url(#SVGID_107_);fill:#008FD1;}
	.st92{clip-path:url(#SVGID_107_);fill:none;stroke:#C53988;stroke-width:11.949;stroke-miterlimit:10;}
	.st93{clip-path:url(#SVGID_109_);fill:#92B43A;}
	.st94{clip-path:url(#SVGID_109_);fill:#EAEAEA;}
	.st95{clip-path:url(#SVGID_109_);fill:#C3C3C3;}
	.st96{clip-path:url(#SVGID_109_);fill:#006591;}
	.st97{clip-path:url(#SVGID_109_);fill:#008FD1;}
	.st98{clip-path:url(#SVGID_109_);fill:#006E9F;}
	.st99{clip-path:url(#SVGID_109_);fill:#FFFFFF;}
	.st100{clip-path:url(#SVGID_109_);fill:#191918;}
	.st101{clip-path:url(#SVGID_109_);fill:#282827;}
	.st102{clip-path:url(#SVGID_109_);fill:#252524;}
	.st103{clip-path:url(#SVGID_109_);fill:#6C852C;}
	.st104{clip-path:url(#SVGID_111_);fill:#00577F;}
	.st105{clip-path:url(#SVGID_111_);fill:#9C9B9B;}
	.st106{clip-path:url(#SVGID_113_);fill:#D7B395;}
	.st107{clip-path:url(#SVGID_113_);fill:#624842;}
	.st108{clip-path:url(#SVGID_113_);fill:#6C852C;}
	.st109{clip-path:url(#SVGID_113_);fill:#6E504A;}
	.st110{clip-path:url(#SVGID_115_);}
	.st111{clip-path:url(#SVGID_117_);fill:#624842;}
	.st112{clip-path:url(#SVGID_119_);fill:#6E504A;}
	.st113{clip-path:url(#SVGID_121_);}
	.st114{clip-path:url(#SVGID_123_);fill:#624842;}
	.st115{clip-path:url(#SVGID_125_);fill:#DFCDB5;}
	.st116{clip-path:url(#SVGID_127_);fill:#D7B395;}
	.st117{clip-path:url(#SVGID_129_);fill:none;stroke:#FFFFFF;stroke-width:5.167;stroke-miterlimit:10;}
	.st118{clip-path:url(#SVGID_129_);fill:#00425D;}
	.st119{clip-path:url(#SVGID_131_);fill:none;stroke:#000000;stroke-width:10.335;stroke-miterlimit:10;}
	.st120{clip-path:url(#SVGID_131_);fill:#CD8D52;}
	.st121{clip-path:url(#SVGID_131_);fill:#002F44;}
	.st122{clip-path:url(#SVGID_133_);fill:#D7B395;}
	.st123{clip-path:url(#SVGID_133_);fill:#008FD1;}
	.st124{clip-path:url(#SVGID_135_);fill:#006E9F;}
	.st125{clip-path:url(#SVGID_135_);fill:#FFFFFF;}
	.st126{clip-path:url(#SVGID_137_);fill:#822927;}
	.st127{clip-path:url(#SVGID_139_);fill:#F4F4F4;}
	.st128{clip-path:url(#SVGID_139_);fill:#7C2724;}
	.st129{clip-path:url(#SVGID_141_);fill:#FFFFFF;}
	.st130{clip-path:url(#SVGID_143_);fill:#F4F4F4;}
	.st131{clip-path:url(#SVGID_143_);fill:#7C2724;}
	.st132{clip-path:url(#SVGID_145_);fill:#FFFFFF;}
	.st133{clip-path:url(#SVGID_147_);fill:#006E9F;}
	.st134{clip-path:url(#SVGID_149_);fill:url(#SVGID_150_);}
	.st135{clip-path:url(#SVGID_152_);fill:#008FD1;}
	.st136{clip-path:url(#SVGID_154_);fill:#006E9F;}
	.st137{clip-path:url(#SVGID_156_);fill:#DFCDB5;}
	.st138{clip-path:url(#SVGID_158_);fill:#D9BBA0;}
	.st139{clip-path:url(#SVGID_158_);fill:#D7B395;}
	.st140{clip-path:url(#SVGID_160_);fill:#6E504A;}
	.st141{clip-path:url(#SVGID_162_);fill:#86605A;}
	.st142{clip-path:url(#SVGID_162_);fill:#624842;}
	.st143{clip-path:url(#SVGID_164_);fill:#D7B395;}
	.st144{clip-path:url(#SVGID_164_);fill:none;stroke:#AD9175;stroke-width:5.167;stroke-linecap:round;stroke-miterlimit:10;}
	.st145{clip-path:url(#SVGID_164_);fill:#6E504A;}
	.st146{clip-path:url(#SVGID_164_);fill:#006E9F;}
	.st147{clip-path:url(#SVGID_164_);fill:#191918;}
	.st148{clip-path:url(#SVGID_164_);fill:#282827;}
	.st149{clip-path:url(#SVGID_164_);fill:#252524;}
	.st150{clip-path:url(#SVGID_164_);fill:#DFCDB5;}
	.st151{clip-path:url(#SVGID_166_);fill:#D7B395;}
	.st152{clip-path:url(#SVGID_168_);fill:none;stroke:#FFFFFF;stroke-width:5.167;stroke-miterlimit:10;}
	.st153{clip-path:url(#SVGID_168_);fill:none;stroke:#008FD1;stroke-width:31.004;stroke-miterlimit:10;}
	.st154{clip-path:url(#SVGID_168_);fill:#DFCDB5;}
	.st155{clip-path:url(#SVGID_168_);fill:#F4F4F4;}
	.st156{clip-path:url(#SVGID_168_);fill:#3C2B27;}
	.st157{clip-path:url(#SVGID_168_);fill:#822927;}
	.st158{clip-path:url(#SVGID_168_);fill:none;stroke:#3C2B27;stroke-width:5.167;stroke-miterlimit:10;}
	.st159{clip-path:url(#SVGID_170_);fill:#008FD1;}
	.st160{clip-path:url(#SVGID_172_);fill:#B8B8B8;}
</style>
<g>
	<defs>
		<path id="SVGID_1_" d="M0,190.6c0,105.3,85.4,190.6,190.6,190.6c105.3,0,190.6-85.4,190.6-190.6C381.3,85.4,295.9,0,190.6,0
			C85.4,0,0,85.4,0,190.6"/>
	</defs>
	<clipPath id="SVGID_2_">
		<use xlink:href="#SVGID_1_"  style="overflow:visible;"/>
	</clipPath>
	<rect y="-4.7" class="st0" width="381.3" height="390.8"/>
	<polygon class="st1" points="296.4,-4.7 72,386 381.3,386 381.3,-4.7 	"/>
	<path class="st2" d="M209,255.9c0.3-10.3-5.5-27.4-3.8-36c1.7-8.6,3.1-14.5-1.7-19.8c-4.7-5.3-17.2-4.2-19.5,1.4
		c-2.2,5.6,1.1,20.3,1.1,28.4C185.2,238,209,255.9,209,255.9"/>
</g>
<g>
	<defs>
		<rect id="SVGID_3_" x="149.9" y="97.2" width="72.7" height="123.9"/>
	</defs>
	<clipPath id="SVGID_4_">
		<use xlink:href="#SVGID_3_"  style="overflow:visible;"/>
	</clipPath>
	
		<linearGradient id="SVGID_5_" gradientUnits="userSpaceOnUse" x1="-78.709" y1="759.9999" x2="-77.709" y2="759.9999" gradientTransform="matrix(0 25.6038 25.6038 0 -19272.6875 2116.8494)">
		<stop  offset="0" style="stop-color:#D1D1D1"/>
		<stop  offset="0.3112" style="stop-color:#F4F4F4"/>
		<stop  offset="1" style="stop-color:#F4F4F4"/>
	</linearGradient>
	<rect x="149.9" y="97.2" class="st3" width="72.7" height="123.9"/>
</g>
<g>
	<defs>
		<path id="SVGID_6_" d="M0,190.6c0,105.3,85.4,190.6,190.6,190.6c105.3,0,190.6-85.4,190.6-190.6C381.3,85.4,295.9,0,190.6,0
			C85.4,0,0,85.4,0,190.6"/>
	</defs>
	<clipPath id="SVGID_7_">
		<use xlink:href="#SVGID_6_"  style="overflow:visible;"/>
	</clipPath>
	<path class="st4" d="M210.5,346.8c-1.4-7.2-4.2-19.8-0.8-26.1s8.3-34.2,5.6-44.2c-2.8-10-4.5-25.3-11.1-31.2
		c-6.7-5.8-41.2,0.8-43.7,8.6c-2.5,7.8-11.1,35.6-7.8,42.8c3.3,7.2,10.9,15.6,11.1,20.6c0.3,5,1.4,29.7,1.4,32
		C165.1,350.4,210.5,346.8,210.5,346.8"/>
	<rect x="158.7" y="182.5" class="st5" width="2.2" height="2.2"/>
	<path class="st5" d="M163.1,171.5h11v-15.4h-15.4v15.4H163.1z M160.9,167.1v-8.8h11v11h-11V167.1z"/>
	<polygon class="st5" points="163.1,173.7 158.7,173.7 158.7,180.3 160.9,180.3 160.9,178.1 163.1,178.1 	"/>
	<polygon class="st5" points="163.1,184.7 160.9,184.7 160.9,193.5 163.1,193.5 163.1,186.9 165.3,186.9 165.3,184.7 	"/>
	<polygon class="st5" points="167.5,167.1 169.7,167.1 169.7,160.5 163.1,160.5 163.1,167.1 	"/>
	<polygon class="st5" points="165.3,180.3 165.3,178.1 163.1,178.1 163.1,182.5 169.7,182.5 169.7,180.3 	"/>
	<polygon class="st5" points="167.5,186.9 165.3,186.9 165.3,191.3 169.7,191.3 169.7,189.1 167.5,189.1 	"/>
	<polygon class="st5" points="165.3,200.1 163.1,200.1 163.1,206.7 169.7,206.7 169.7,200.1 	"/>
	<rect x="167.5" y="175.9" class="st5" width="2.2" height="2.2"/>
	<rect x="167.5" y="184.7" class="st5" width="2.2" height="2.2"/>
	<polygon class="st5" points="171.9,193.5 174.1,193.5 174.1,191.3 169.7,191.3 169.7,193.5 	"/>
	<path class="st5" d="M169.7,195.7h-11v15.4h15.4v-15.4H169.7z M171.9,200.1v8.8h-11v-11h11V200.1z"/>
	<polygon class="st5" points="174.1,175.9 174.1,178.1 176.3,178.1 176.3,173.7 169.7,173.7 169.7,175.9 	"/>
	<polygon class="st5" points="171.9,178.1 169.7,178.1 169.7,180.3 174.1,180.3 174.1,178.1 	"/>
	<rect x="171.9" y="182.5" class="st5" width="2.2" height="2.2"/>
	<rect x="174.1" y="180.3" class="st5" width="2.2" height="2.2"/>
	<rect x="176.3" y="162.7" class="st5" width="2.2" height="4.4"/>
	<rect x="176.3" y="169.3" class="st5" width="2.2" height="2.2"/>
	<polygon class="st5" points="178.5,180.3 180.7,180.3 180.7,178.1 176.3,178.1 176.3,180.3 	"/>
	<path class="st5" d="M178.5,195.7h4.4v-13.2h2.2v-2.2h2.2v-2.2h-4.4v2.2h-2.2v2.2h-4.4v2.2h-2.2v2.2h-4.4v2.2h6.6v2.2h2.2v2.2h-2.2
		v6.6h2.2V195.7z M178.5,186.9h2.2v2.2h-2.2V186.9z"/>
	<polygon class="st5" points="176.3,209 176.3,211.2 178.5,211.2 178.5,206.7 176.3,206.7 	"/>
	<rect x="178.5" y="200.1" class="st5" width="2.2" height="2.2"/>
	<polygon class="st5" points="180.7,171.5 182.9,171.5 182.9,164.9 185.1,164.9 185.1,160.5 187.3,160.5 187.3,158.3 185.1,158.3 
		185.1,156.1 178.5,156.1 178.5,158.3 182.9,158.3 182.9,160.5 178.5,160.5 178.5,162.7 180.7,162.7 180.7,167.1 178.5,167.1 
		178.5,169.3 180.7,169.3 	"/>
	<polygon class="st5" points="182.9,175.9 182.9,173.7 180.7,173.7 180.7,171.5 178.5,171.5 178.5,175.9 180.7,175.9 180.7,178.1 
		182.9,178.1 	"/>
	<polygon class="st5" points="185.1,197.9 180.7,197.9 180.7,200.1 182.9,200.1 182.9,202.3 185.1,202.3 	"/>
	<polygon class="st5" points="185.1,164.9 185.1,167.1 187.3,167.1 187.3,169.3 189.5,169.3 189.5,171.5 191.7,171.5 191.7,167.1 
		189.5,167.1 189.5,164.9 	"/>
	<rect x="187.3" y="156.1" class="st5" width="2.2" height="2.2"/>
	<polygon class="st5" points="187.3,171.5 187.3,169.3 185.1,169.3 185.1,175.9 187.3,175.9 187.3,173.7 189.5,173.7 189.5,171.5 	
		"/>
	<polygon class="st5" points="187.3,195.7 185.1,195.7 185.1,197.9 189.5,197.9 189.5,200.1 191.7,200.1 191.7,195.7 	"/>
	<rect x="189.5" y="158.3" class="st5" width="2.2" height="2.2"/>
	<rect x="189.5" y="162.7" class="st5" width="2.2" height="2.2"/>
	<polygon class="st5" points="189.5,173.7 189.5,178.1 191.7,178.1 191.7,180.3 193.9,180.3 193.9,178.1 198.4,178.1 198.4,175.9 
		196.2,175.9 196.2,167.1 193.9,167.1 193.9,171.5 191.7,171.5 191.7,173.7 	"/>
	<polygon class="st5" points="193.9,162.7 196.2,162.7 196.2,156.1 193.9,156.1 193.9,160.5 191.7,160.5 191.7,162.7 	"/>
	<rect x="198.4" y="195.7" class="st5" width="2.2" height="2.2"/>
	<rect x="200.6" y="178.1" class="st5" width="2.2" height="2.2"/>
	<rect x="202.8" y="180.3" class="st5" width="2.2" height="2.2"/>
	<polygon class="st5" points="205,160.5 202.8,160.5 202.8,167.1 209.4,167.1 209.4,160.5 	"/>
	<polygon class="st5" points="205,180.3 207.2,180.3 207.2,173.7 202.8,173.7 202.8,178.1 205,178.1 	"/>
	<polygon class="st5" points="205,206.7 207.2,206.7 207.2,204.5 211.6,204.5 211.6,211.2 213.8,211.2 213.8,200.1 211.6,200.1 
		211.6,202.3 209.4,202.3 209.4,200.1 207.2,200.1 207.2,202.3 205,202.3 	"/>
	<polygon class="st5" points="209.4,178.1 209.4,182.5 211.6,182.5 211.6,184.7 213.8,184.7 213.8,178.1 	"/>
	<path class="st5" d="M209.4,186.9v-2.2h-2.2v2.2h-4.4v2.2h-2.2v-2.2h-2.2v-2.2h2.2v-4.4h-2.2v2.2h-2.2v6.6h2.2v2.2h-4.4v-6.6h-2.2
		v-4.4h-2.2v2.2h-2.2v2.2h-2.2v2.2h2.2v2.2h-2.2v4.4h2.2v-2.2h2.2v2.2h2.2v2.2h2.2v4.4h-2.2v4.4h-2.2v-2.2h-4.4v2.2h2.2v2.2h-2.2
		v2.2h-2.2v-6.6h-2.2v8.8h8.8v-4.4h2.2v4.4h4.4V209h2.2v2.2h6.6V209h-2.2v-2.2h-4.4v-2.2h-2.2v2.2h-2.2v-4.4h4.4v2.2h4.4v-2.2h2.2
		v-8.8h2.2v2.2h4.4v-2.2h2.2v-6.6H209.4z M202.8,195.7v4.4h-6.6v-6.6h6.6V195.7z M205,189.1h2.2v2.2H205V189.1z M211.6,191.3h-2.2
		v-2.2h2.2V191.3z"/>
	<path class="st5" d="M211.6,156.1h-13.2v15.4h15.4v-15.4H211.6z M211.6,160.5v8.8h-11v-11h11V160.5z"/>
	<rect x="211.6" y="195.7" class="st5" width="2.2" height="2.2"/>
</g>
<g>
	<defs>
		<path id="SVGID_8_" d="M190.4,205.7c-5.6,1.1-21.7,5.6-25,9.5c-3.3,3.9-13.4,24.2-14.7,25.9c-1.4,1.7-10.3,17-9.5,20.3
			c0.8,3.3,45.9-29.8,47-32.5c1.7-4.2,3.3-3.1,3.6-4.7c2.8,1.7,10.6,4.2,16.1,1.4c5.6-2.8,9.7-7.8,7.2-11.7
			c-2.3-3.5-16.2-8.2-23-8.2C191.6,205.6,191,205.6,190.4,205.7"/>
	</defs>
	<clipPath id="SVGID_9_">
		<use xlink:href="#SVGID_8_"  style="overflow:visible;"/>
	</clipPath>
	
		<linearGradient id="SVGID_10_" gradientUnits="userSpaceOnUse" x1="-78.709" y1="760.0708" x2="-77.709" y2="760.0708" gradientTransform="matrix(9.6013 22.1364 22.1364 -9.6013 -15897.9697 9257.7998)">
		<stop  offset="0" style="stop-color:#D7BA94"/>
		<stop  offset="0.3622" style="stop-color:#E4C9A6"/>
		<stop  offset="1" style="stop-color:#ECD8BF"/>
	</linearGradient>
	<polygon class="st6" points="205.5,177.3 239.3,255.3 152.6,292.9 118.8,214.9 	"/>
</g>
<g>
	<defs>
		<path id="SVGID_11_" d="M168.9,283.6c0,10.8,4,31.7,15.1,31.7c11.1,0,31.9-14.6,31.9-25.3c0-10.8-15.8-25.9-26.9-25.9
			C177.9,264.1,168.9,272.9,168.9,283.6"/>
	</defs>
	<clipPath id="SVGID_12_">
		<use xlink:href="#SVGID_11_"  style="overflow:visible;"/>
	</clipPath>
	
		<linearGradient id="SVGID_13_" gradientUnits="userSpaceOnUse" x1="-78.709" y1="760.0566" x2="-77.709" y2="760.0566" gradientTransform="matrix(10.0014 18.4025 18.4025 -10.0014 -13016.5986 9322.915)">
		<stop  offset="0" style="stop-color:#D7BA94"/>
		<stop  offset="1.020410e-002" style="stop-color:#D7BA94"/>
		<stop  offset="0.2092" style="stop-color:#E4C9A6"/>
		<stop  offset="1" style="stop-color:#ECD8BF"/>
	</linearGradient>
	<polygon class="st7" points="205.1,244.5 237.3,303.7 179.6,335 147.4,275.8 	"/>
</g>
<g>
	<defs>
		<path id="SVGID_14_" d="M184.9,225.5c-6.4,0.8-26.1,19.5-30.9,22.5c-4.7,3.1-14.5,10.3-14.2,18.1c0.3,7.8,5.8,14.1,8.7,22.4
			c1.4,3.9,46.1-28.8,46.1-28.8c6.1,2,16.1-4.7,13.6-10.5c-2.4-5.7-16.3-23.7-22.9-23.7C185.2,225.4,185,225.4,184.9,225.5"/>
	</defs>
	<clipPath id="SVGID_15_">
		<use xlink:href="#SVGID_14_"  style="overflow:visible;"/>
	</clipPath>
	
		<linearGradient id="SVGID_16_" gradientUnits="userSpaceOnUse" x1="-78.709" y1="760.0468" x2="-77.709" y2="760.0468" gradientTransform="matrix(2.6321 18.7536 18.7536 -2.6321 -13874.1289 3715.4285)">
		<stop  offset="0" style="stop-color:#D7BA94"/>
		<stop  offset="0.3622" style="stop-color:#E4C9A6"/>
		<stop  offset="1" style="stop-color:#ECD8BF"/>
	</linearGradient>
	<polygon class="st8" points="209.4,215.6 220,291 140.9,302.1 130.3,226.7 	"/>
</g>
<g>
	<defs>
		<path id="SVGID_17_" d="M153.4,263.6c-6.4,3.3-8.6,7.8-8.3,13.9c0.3,6.1,10.8,28.4,15.9,33.4c5,5,4.5,28.1,4.2,38.4
			c0,0,18.2-32.3,15.6-38.3c-2.5-6-6.6-16.1-6.6-22.2c0-6.1,14.7-20.5,15.8-19.4c1.1,1.1,2.5,4.8,9.2,4.2c6.7-0.6,7.4-1.4,7.4-10
			c0-8.6-9.7-16.7-17.8-19.2c-0.5-0.2-1.1-0.2-1.7-0.2C178.1,244.2,159.4,260.5,153.4,263.6"/>
	</defs>
	<clipPath id="SVGID_18_">
		<use xlink:href="#SVGID_17_"  style="overflow:visible;"/>
	</clipPath>
	
		<linearGradient id="SVGID_19_" gradientUnits="userSpaceOnUse" x1="-78.709" y1="759.9116" x2="-77.709" y2="759.9116" gradientTransform="matrix(4.4509 36.9981 36.9981 -4.4509 -27593.6484 6554.4688)">
		<stop  offset="0" style="stop-color:#D7BA94"/>
		<stop  offset="1.020410e-002" style="stop-color:#D7BA94"/>
		<stop  offset="0.2092" style="stop-color:#E4C9A6"/>
		<stop  offset="1" style="stop-color:#ECD8BF"/>
	</linearGradient>
	<polygon class="st9" points="205.7,236.8 219,347.8 145.7,356.6 132.4,245.6 	"/>
</g>
<g>
	<defs>
		<path id="SVGID_20_" d="M0,190.6c0,105.3,85.4,190.6,190.6,190.6c105.3,0,190.6-85.4,190.6-190.6C381.3,85.4,295.9,0,190.6,0
			C85.4,0,0,85.4,0,190.6"/>
	</defs>
	<clipPath id="SVGID_21_">
		<use xlink:href="#SVGID_20_"  style="overflow:visible;"/>
	</clipPath>
	<g class="st10">
		<text transform="matrix(1 0 0 1 157.5879 138.5322)" class="st11 st12">12345</text>
	</g>
	<rect x="157.4" y="335.1" class="st13" width="63.5" height="18.9"/>
	<rect x="153.1" y="351.1" class="st14" width="72" height="35.5"/>
	<rect x="149.9" y="83" class="st15" width="72.7" height="14.2"/>
</g>
<g>
	<defs>
		<rect id="SVGID_169_" x="-78.7" y="-320" width="1920" height="1080"/>
	</defs>
	<clipPath id="SVGID_23_">
		<use xlink:href="#SVGID_169_"  style="overflow:visible;"/>
	</clipPath>
</g>
<g>
	<defs>
		<rect id="SVGID_171_" x="-78.7" y="-320" width="1920" height="1080"/>
	</defs>
	<clipPath id="SVGID_25_">
		<use xlink:href="#SVGID_171_"  style="overflow:visible;"/>
	</clipPath>
</g>
</svg>
