<?xml version="1.0" encoding="UTF-8" standalone="no"?>
<!-- Generator: Adobe Illustrator 19.1.1, SVG Export Plug-In . SVG Version: 6.00 Build 0)  -->

<svg
   xmlns:dc="http://purl.org/dc/elements/1.1/"
   xmlns:cc="http://creativecommons.org/ns#"
   xmlns:rdf="http://www.w3.org/1999/02/22-rdf-syntax-ns#"
   xmlns:svg="http://www.w3.org/2000/svg"
   xmlns="http://www.w3.org/2000/svg"
   xmlns:xlink="http://www.w3.org/1999/xlink"
   xmlns:sodipodi="http://sodipodi.sourceforge.net/DTD/sodipodi-0.dtd"
   xmlns:inkscape="http://www.inkscape.org/namespaces/inkscape"
   version="1.1"
   id="Layer_1"
   x="0px"
   y="0px"
   viewBox="0 0 381.3 381.3"
   style="enable-background:new 0 0 381.3 381.3;"
   xml:space="preserve"
   inkscape:version="0.91 r13725"
   sodipodi:docname="test2-05.svg"><metadata
     id="metadata378"><rdf:RDF><cc:Work
         rdf:about=""><dc:format>image/svg+xml</dc:format><dc:type
           rdf:resource="http://purl.org/dc/dcmitype/StillImage" /><dc:title></dc:title></cc:Work></rdf:RDF></metadata><defs
     id="defs376" /><sodipodi:namedview
     pagecolor="#ffffff"
     bordercolor="#666666"
     borderopacity="1"
     objecttolerance="10"
     gridtolerance="10"
     guidetolerance="10"
     inkscape:pageopacity="0"
     inkscape:pageshadow="2"
     inkscape:window-width="1078"
     inkscape:window-height="910"
     id="namedview374"
     showgrid="false"
     inkscape:zoom="0.61893524"
     inkscape:cx="190.64999"
     inkscape:cy="190.64999"
     inkscape:window-x="2714"
     inkscape:window-y="280"
     inkscape:window-maximized="0"
     inkscape:current-layer="Layer_1" /><style
     type="text/css"
     id="style3">
	.st0{clip-path:url(#SVGID_2_);fill:#92B43A;}
	.st1{clip-path:url(#SVGID_2_);fill:#DFCDB5;}
	.st2{clip-path:url(#SVGID_2_);fill:#006E9F;}
	.st3{clip-path:url(#SVGID_2_);fill:#EAEAEA;}
	.st4{clip-path:url(#SVGID_2_);fill:#C3C3C3;}
	.st5{clip-path:url(#SVGID_2_);fill:#006591;}
	.st6{clip-path:url(#SVGID_2_);fill:#008FD1;}
	.st7{clip-path:url(#SVGID_2_);fill:#FFFFFF;}
	.st8{clip-path:url(#SVGID_2_);fill:#191918;}
	.st9{clip-path:url(#SVGID_2_);fill:#282827;}
	.st10{clip-path:url(#SVGID_2_);fill:#252524;}
	.st11{clip-path:url(#SVGID_2_);fill:#D7B395;}
	.st12{clip-path:url(#SVGID_2_);fill:none;stroke:#00425D;stroke-width:12.107;stroke-miterlimit:10;}
	.st13{clip-path:url(#SVGID_2_);fill:#00425D;}
	.st14{clip-path:url(#SVGID_4_);fill:#006E9F;}
	.st15{clip-path:url(#SVGID_6_);fill:#92B43A;}
	.st16{clip-path:url(#SVGID_6_);fill:#EAEAEA;}
	.st17{clip-path:url(#SVGID_6_);fill:#C3C3C3;}
	.st18{clip-path:url(#SVGID_6_);fill:#006591;}
	.st19{clip-path:url(#SVGID_6_);fill:#008FD1;}
	.st20{clip-path:url(#SVGID_6_);fill:#006E9F;}
	.st21{clip-path:url(#SVGID_6_);fill:#FFFFFF;}
	.st22{clip-path:url(#SVGID_6_);fill:#191918;}
	.st23{clip-path:url(#SVGID_6_);fill:#282827;}
	.st24{clip-path:url(#SVGID_6_);fill:#252524;}
	.st25{clip-path:url(#SVGID_6_);fill:none;stroke:#000000;stroke-width:2.3841;stroke-miterlimit:10;}
	.st26{clip-path:url(#SVGID_8_);fill:#92B43A;}
	.st27{clip-path:url(#SVGID_8_);fill:none;stroke:#008FD1;stroke-width:16.3815;stroke-miterlimit:10;}
	.st28{clip-path:url(#SVGID_8_);fill:#624842;}
	.st29{clip-path:url(#SVGID_8_);fill:#6C852C;}
	.st30{clip-path:url(#SVGID_8_);fill:#6E504A;}
	.st31{clip-path:url(#SVGID_10_);fill:#624842;}
	.st32{clip-path:url(#SVGID_12_);fill:#6E504A;}
	.st33{clip-path:url(#SVGID_14_);fill:#624842;}
	.st34{clip-path:url(#SVGID_16_);fill:#00425D;}
	.st35{clip-path:url(#SVGID_18_);fill:none;stroke:#000000;stroke-width:5.4605;stroke-miterlimit:10;}
	.st36{clip-path:url(#SVGID_18_);fill:#CD8D52;}
	.st37{clip-path:url(#SVGID_18_);fill:#002F44;}
	.st38{clip-path:url(#SVGID_20_);fill:#D7B395;}
	.st39{clip-path:url(#SVGID_20_);fill:#008FD1;}
	.st40{clip-path:url(#SVGID_22_);fill:#006E9F;}
	.st41{clip-path:url(#SVGID_22_);fill:#FFFFFF;}
	.st42{clip-path:url(#SVGID_24_);fill:#822927;}
	.st43{clip-path:url(#SVGID_26_);fill:#006998;}
	.st44{clip-path:url(#SVGID_26_);fill:#F4F4F4;}
	.st45{clip-path:url(#SVGID_26_);fill:#7C2724;}
	.st46{clip-path:url(#SVGID_28_);fill:#FFFFFF;}
	.st47{clip-path:url(#SVGID_30_);fill:#F4F4F4;}
	.st48{clip-path:url(#SVGID_30_);fill:#7C2724;}
	.st49{clip-path:url(#SVGID_32_);fill:#FFFFFF;}
	.st50{clip-path:url(#SVGID_34_);fill:#006E9F;}
	.st51{clip-path:url(#SVGID_36_);fill:url(#SVGID_37_);}
	.st52{clip-path:url(#SVGID_39_);fill:#DFCDB5;}
	.st53{clip-path:url(#SVGID_41_);fill:#D9BBA0;}
	.st54{clip-path:url(#SVGID_41_);fill:#D7B395;}
	.st55{clip-path:url(#SVGID_43_);fill:#6E504A;}
	.st56{clip-path:url(#SVGID_45_);fill:#86605A;}
	.st57{clip-path:url(#SVGID_45_);fill:#624842;}
	.st58{clip-path:url(#SVGID_47_);fill:#D7B395;}
	.st59{clip-path:url(#SVGID_47_);fill:#3C2B27;}
	.st60{clip-path:url(#SVGID_47_);fill:none;stroke:#AD9175;stroke-width:2.7302;stroke-linecap:round;stroke-miterlimit:10;}
	.st61{clip-path:url(#SVGID_47_);fill:#6B222C;}
	.st62{clip-path:url(#SVGID_49_);fill:#822927;}
	.st63{clip-path:url(#SVGID_49_);fill:#FFFFFF;}
	.st64{clip-path:url(#SVGID_51_);fill:#6E504A;}
	.st65{clip-path:url(#SVGID_51_);fill:#006E9F;}
	.st66{clip-path:url(#SVGID_51_);fill:#D7B395;}
	.st67{clip-path:url(#SVGID_51_);fill:#191918;}
	.st68{clip-path:url(#SVGID_51_);fill:#282827;}
	.st69{clip-path:url(#SVGID_51_);fill:#252524;}
	.st70{clip-path:url(#SVGID_51_);fill:#DFCDB5;}
	.st71{clip-path:url(#SVGID_53_);fill:#D7B395;}
	.st72{clip-path:url(#SVGID_55_);fill:none;stroke:#FFFFFF;stroke-width:2.7302;stroke-miterlimit:10;}
	.st73{clip-path:url(#SVGID_55_);fill:none;stroke:#008FD1;stroke-width:16.3815;stroke-miterlimit:10;}
	.st74{clip-path:url(#SVGID_55_);fill:none;stroke:#624842;stroke-width:2.7302;stroke-miterlimit:10;}
	.st75{clip-path:url(#SVGID_55_);fill:#FFF491;}
	.st76{clip-path:url(#SVGID_55_);fill:none;stroke:#ECBD32;stroke-width:4.4203;}
	.st77{clip-path:url(#SVGID_55_);fill:none;stroke:#A8A8A8;stroke-width:2.7302;stroke-linecap:round;}
	.st78{clip-path:url(#SVGID_55_);fill:none;stroke:#959595;stroke-width:2.7302;stroke-linecap:round;}
	.st79{clip-path:url(#SVGID_55_);fill:none;stroke:#6F6F6E;stroke-width:2.7302;stroke-linecap:round;}
	.st80{clip-path:url(#SVGID_55_);fill:none;stroke:#5F5F5E;stroke-width:2.7302;stroke-linecap:round;}
	.st81{clip-path:url(#SVGID_55_);fill:#FFFFFF;}
	.st82{clip-path:url(#SVGID_55_);fill:none;stroke:#000000;stroke-width:2.7302;stroke-miterlimit:10;}
	.st83{clip-path:url(#SVGID_55_);}
	.st84{clip-path:url(#SVGID_55_);fill:#F4F4F4;}
	.st85{clip-path:url(#SVGID_57_);fill:#92B43A;}
	.st86{clip-path:url(#SVGID_57_);fill:#EAEAEA;}
	.st87{clip-path:url(#SVGID_57_);fill:#C3C3C3;}
	.st88{clip-path:url(#SVGID_57_);fill:#006591;}
	.st89{clip-path:url(#SVGID_57_);fill:#008FD1;}
	.st90{clip-path:url(#SVGID_57_);fill:#006E9F;}
	.st91{clip-path:url(#SVGID_57_);fill:#FFFFFF;}
	.st92{clip-path:url(#SVGID_57_);fill:#191918;}
	.st93{clip-path:url(#SVGID_57_);fill:#282827;}
	.st94{clip-path:url(#SVGID_57_);fill:#252524;}
	.st95{clip-path:url(#SVGID_57_);fill:#6C852C;}
	.st96{clip-path:url(#SVGID_59_);fill:#00577F;}
	.st97{clip-path:url(#SVGID_59_);fill:#9C9B9B;}
	.st98{clip-path:url(#SVGID_61_);fill:#D7B395;}
	.st99{clip-path:url(#SVGID_61_);fill:#624842;}
	.st100{clip-path:url(#SVGID_61_);fill:#6C852C;}
	.st101{clip-path:url(#SVGID_61_);fill:#6E504A;}
	.st102{clip-path:url(#SVGID_63_);}
	.st103{clip-path:url(#SVGID_65_);fill:#624842;}
	.st104{clip-path:url(#SVGID_67_);fill:#6E504A;}
	.st105{clip-path:url(#SVGID_69_);fill:#624842;}
	.st106{clip-path:url(#SVGID_71_);fill:#DFCDB5;}
	.st107{clip-path:url(#SVGID_73_);fill:#D7B395;}
	.st108{clip-path:url(#SVGID_75_);fill:none;stroke:#FFFFFF;stroke-width:3.96;stroke-miterlimit:10;}
	.st109{clip-path:url(#SVGID_75_);fill:#00425D;}
	.st110{clip-path:url(#SVGID_77_);fill:none;stroke:#000000;stroke-width:7.9199;stroke-miterlimit:10;}
	.st111{clip-path:url(#SVGID_77_);fill:#CD8D52;}
	.st112{clip-path:url(#SVGID_77_);fill:#002F44;}
	.st113{clip-path:url(#SVGID_79_);fill:#D7B395;}
	.st114{clip-path:url(#SVGID_79_);fill:#008FD1;}
	.st115{clip-path:url(#SVGID_81_);fill:#006E9F;}
	.st116{clip-path:url(#SVGID_81_);fill:#FFFFFF;}
	.st117{clip-path:url(#SVGID_83_);fill:#822927;}
	.st118{clip-path:url(#SVGID_85_);fill:#F4F4F4;}
	.st119{clip-path:url(#SVGID_85_);fill:#7C2724;}
	.st120{clip-path:url(#SVGID_87_);fill:#FFFFFF;}
	.st121{clip-path:url(#SVGID_89_);fill:#F4F4F4;}
	.st122{clip-path:url(#SVGID_89_);fill:#7C2724;}
	.st123{clip-path:url(#SVGID_91_);fill:#FFFFFF;}
	.st124{clip-path:url(#SVGID_93_);fill:#006E9F;}
	.st125{clip-path:url(#SVGID_95_);fill:url(#SVGID_96_);}
	.st126{clip-path:url(#SVGID_98_);fill:#008FD1;}
	.st127{clip-path:url(#SVGID_100_);fill:#006E9F;}
	.st128{clip-path:url(#SVGID_102_);fill:#DFCDB5;}
	.st129{clip-path:url(#SVGID_104_);fill:#D9BBA0;}
	.st130{clip-path:url(#SVGID_104_);fill:#D7B395;}
	.st131{clip-path:url(#SVGID_106_);fill:#6E504A;}
	.st132{clip-path:url(#SVGID_108_);fill:#86605A;}
	.st133{clip-path:url(#SVGID_108_);fill:#624842;}
	.st134{clip-path:url(#SVGID_110_);fill:#D7B395;}
	.st135{clip-path:url(#SVGID_110_);fill:none;stroke:#3C2B27;stroke-width:3.96;stroke-miterlimit:10;}
	.st136{clip-path:url(#SVGID_110_);fill:none;stroke:#AD9175;stroke-width:3.96;stroke-linecap:round;stroke-miterlimit:10;}
	.st137{clip-path:url(#SVGID_110_);fill:#6E504A;}
	.st138{clip-path:url(#SVGID_110_);fill:#006E9F;}
	.st139{clip-path:url(#SVGID_110_);fill:#191918;}
	.st140{clip-path:url(#SVGID_110_);fill:#282827;}
	.st141{clip-path:url(#SVGID_110_);fill:#252524;}
	.st142{clip-path:url(#SVGID_110_);fill:#DFCDB5;}
	.st143{clip-path:url(#SVGID_112_);fill:#D7B395;}
	.st144{clip-path:url(#SVGID_114_);fill:none;stroke:#FFFFFF;stroke-width:3.96;stroke-miterlimit:10;}
	.st145{clip-path:url(#SVGID_114_);fill:none;stroke:#008FD1;stroke-width:23.7598;stroke-miterlimit:10;}
	.st146{clip-path:url(#SVGID_114_);fill:#DFCDB5;}
	.st147{clip-path:url(#SVGID_114_);fill:none;stroke:#3C2B27;stroke-width:3.96;stroke-miterlimit:10;}
	.st148{clip-path:url(#SVGID_114_);fill:#F4F4F4;}
	.st149{clip-path:url(#SVGID_116_);fill:#B8B8B8;}
	.st150{clip-path:url(#SVGID_118_);fill:#008FD1;}
</style><g
     id="g5"><defs
       id="defs7"><path
         id="SVGID_7_"
         d="M0,190.6c0,105.3,85.4,190.6,190.6,190.6c105.3,0,190.6-85.4,190.6-190.6C381.3,85.4,295.9,0,190.6,0    C85.4,0,0,85.4,0,190.6" /></defs><clipPath
       id="SVGID_2_"><use
         xlink:href="#SVGID_7_"
         style="overflow:visible;"
         id="use11" /></clipPath><rect
       x="-15.5"
       y="-13"
       class="st0"
       width="403.1"
       height="406.8"
       id="rect13"
       clip-path="url(#SVGID_2_)" /><path
       style="clip-path:url(#SVGID_2_);fill:none;stroke:#008FD1;stroke-width:16.3815;stroke-miterlimit:10;"
       d="M215.6,223.9   c22,16.5,35.2,20.8,2.9,38.4"
       id="path15"
       clip-path="url(#SVGID_2_)" /><path
       style="clip-path:url(#SVGID_2_);fill:#624842;"
       d="M138,146.4c1.5,10.3,3.3,33.2,24.6,32.9c21.3-0.3,23.4-40,23.4-40   L138,146.4z"
       id="path17"
       clip-path="url(#SVGID_2_)" /><path
       style="clip-path:url(#SVGID_2_);fill:#6C852C;"
       d="M260.5,348.9c0,6-29.8,10.9-66.6,10.9c-36.8,0-66.6-4.9-66.6-10.9   c0-6,29.8-10.9,66.6-10.9C230.6,338,260.5,342.9,260.5,348.9"
       id="path19"
       clip-path="url(#SVGID_2_)" /><path
       style="clip-path:url(#SVGID_2_);fill:#6E504A;"
       d="M167.1,349.6c0.2,0,0.5,0,0.9,0.1c3.6,0.2,14.1,0.6,14.9-0.1   c0.9-0.7,2-0.7,1.8-2.7c-0.1-2,1-5.9-1.6-5.4c-2.6,0.5-11.2,0.8-13.2,0.8c-2,0-2-0.8-2-0.8c-1,1-1.6,3-1.6,4.6   C166.4,347.8,166.1,349.5,167.1,349.6"
       id="path21"
       clip-path="url(#SVGID_2_)" /></g><g
     id="g23"><defs
       id="defs25"><path
         id="SVGID_9_"
         d="M166.4,346.2c0,1.6-0.3,3.4,0.7,3.5c0.2,0,0.5,0,0.9,0.1c3.6,0.2,14.1,0.6,14.9-0.1c0.9-0.7,2-0.7,1.8-2.7    c-0.1-2,1-5.9-1.6-5.4c-2.6,0.5-11.2,0.8-13.2,0.8c-2,0-2-0.8-2-0.8C167,342.6,166.4,344.5,166.4,346.2" /></defs><clipPath
       id="SVGID_4_"><use
         xlink:href="#SVGID_9_"
         style="overflow:visible;"
         id="use29" /></clipPath><path
       style="clip-path:url(#SVGID_4_);fill:#624842;"
       d="M165.1,346.6c1.8,1.9,8,2.3,10.5,2.3c2.5,0,8.2-0.5,9.3-1.6   c1.1-1.1,2.1,2.7,2.1,2.7l-11,4.1l-11.4-2L165.1,346.6z"
       id="path31"
       clip-path="url(#SVGID_4_)" /><path
       style="clip-path:url(#SVGID_4_);fill:#624842;"
       d="M167.4,342c1,1.4,4.9,2.3,9.7,1.7c4.8-0.6,6.7-1.2,8.1-2.7   c1.4-1.4-18-0.5-18-0.5L167.4,342z"
       id="path33"
       clip-path="url(#SVGID_4_)" /></g><g
     id="g35"><defs
       id="defs37"><path
         id="SVGID_11_"
         d="M0,190.6c0,105.3,85.4,190.6,190.6,190.6c105.3,0,190.6-85.4,190.6-190.6C381.3,85.4,295.9,0,190.6,0    C85.4,0,0,85.4,0,190.6" /></defs><clipPath
       id="SVGID_6_"><use
         xlink:href="#SVGID_11_"
         style="overflow:visible;"
         id="use41" /></clipPath><path
       style="clip-path:url(#SVGID_6_);fill:#6E504A;"
       d="M199.6,343.5c-0.1,4-1.3,5.8,1.3,6.1c2.7,0.3,25-0.5,28.7,0   c3.7-1.3,2.6-4.8-1.9-6.1c-4.5-1.3-7.9-3.9-12.2-3.9c-4.3,0-14.7-0.2-15.4,0C199.4,339.8,199.7,342.6,199.6,343.5"
       id="path43"
       clip-path="url(#SVGID_6_)" /></g><g
     id="g45"><defs
       id="defs47"><path
         id="SVGID_13_"
         d="M200.2,339.6c-0.7,0.2-0.5,2.9-0.5,3.9c-0.1,4-1.3,5.8,1.3,6.1c1.2,0.1,6.3,0,11.9-0.1    c7-0.1,14.8-0.2,16.8,0.1c3.7-1.3,2.6-4.8-1.9-6.1c-4.5-1.3-7.9-3.9-12.2-3.9c-2.8,0-8.4-0.1-12-0.1    C201.7,339.5,200.4,339.6,200.2,339.6" /></defs><clipPath
       id="SVGID_8_"><use
         xlink:href="#SVGID_13_"
         style="overflow:visible;"
         id="use51" /></clipPath><path
       class="st28"
       d="M231.4,344.6c1,0.7,0.9,2.1-0.9,3.3c-1.8,1.1-15.1-0.3-18.4-0.4c-3.3-0.1-6.2,0.8-8.7,0.9   c-2.5,0.1-4.5-1.6-4.9-2c-0.4-0.4-0.8,4.7-0.8,4.7l38.5-0.2c0,0-1.1-7.6-1.3-7.8C234.8,343,231.4,344.6,231.4,344.6"
       id="path53"
       clip-path="url(#SVGID_8_)" /><path
       class="st28"
       d="M199.7,341.4c2,0.6,5.9,1.1,13.1-0.1c3.2-0.5,6-0.6,7-1.8c2.5-3,0.8-2.3,0.7-2.4c-0.1-0.2-22.2,3.1-22.2,3.1"
       id="path55"
       clip-path="url(#SVGID_8_)" /></g><g
     id="g57"><defs
       id="defs59"><path
         id="SVGID_15_"
         d="M0,190.6c0,105.3,85.4,190.6,190.6,190.6c105.3,0,190.6-85.4,190.6-190.6C381.3,85.4,295.9,0,190.6,0    C85.4,0,0,85.4,0,190.6" /></defs><clipPath
       id="SVGID_10_"><use
         xlink:href="#SVGID_15_"
         style="overflow:visible;"
         id="use63" /></clipPath><path
       style="clip-path:url(#SVGID_10_);fill:#00425D;"
       d="M171.1,262.6c0.8,10.6,0.8,51.5,0.4,55.8c-0.4,4.3-5.1,21.4-5.1,23.8   c0,2.4,17.4-0.2,18.2-0.6c2-12.6,14.6-45.9,15.9-56c1.3,25,2.7,44.2,0,47.8c-2.7,3.5-2.1,6.4-0.8,7.6c1.3,1.2,15.2-0.5,18.6-0.9   c3.3-0.4-2-3.6-1.1-7.9c0.9-4.3,2.6-66.1,1.3-69.8C207.2,259.8,171.1,262.6,171.1,262.6"
       id="path65"
       clip-path="url(#SVGID_10_)" /></g><g
     id="g67"><defs
       id="defs69"><path
         id="SVGID_17_"
         d="M171.1,262.6c0.8,10.6,0.8,51.5,0.4,55.8c-0.4,4.3-5.1,21.4-5.1,23.8c0,2.4,17.4-0.2,18.2-0.6    c2-12.6,14.6-45.9,15.9-56c1.3,24.9,2.7,44.2,0,47.8c-2.7,3.5-2.1,6.4-0.8,7.6c1.3,1.2,15.3-0.5,18.6-0.9s-2-3.6-1.1-7.9    c0.9-4.3,2.6-66.1,1.3-69.8c-3.5-0.8-9.5-1.1-16-1.1C188.1,261.3,171.1,262.6,171.1,262.6" /></defs><clipPath
       id="SVGID_12_"><use
         xlink:href="#SVGID_17_"
         style="overflow:visible;"
         id="use73" /></clipPath><path
       style="clip-path:url(#SVGID_12_);fill:none;stroke:#000000;stroke-width:5.4605;stroke-miterlimit:10;"
       d="M171.1,274.4   c3.4,0.9,24,2.5,29.5,2.5c5.5,0.1,17-1.2,20-3"
       id="path75"
       clip-path="url(#SVGID_12_)" /><rect
       x="198.9"
       y="275.6"
       style="clip-path:url(#SVGID_12_);fill:#CD8D52;"
       width="5.5"
       height="4.1"
       id="rect77"
       clip-path="url(#SVGID_12_)" /><path
       style="clip-path:url(#SVGID_12_);fill:#002F44;"
       d="M218.9,282c-0.8,7.8-1.5,51.9-4,53.1c-2.5,1.2-7.4,1.8-5.6,2.3   c1.8,0.5,4-0.7,2.9,1.1c-1.1,1.8,1.5,2.9,4.2,2.3c2.8-0.6,7.8-1.1,8.6-2.4c0.8-1.2-3-58-3-58L218.9,282"
       id="path79"
       clip-path="url(#SVGID_12_)" /><path
       style="clip-path:url(#SVGID_12_);fill:#002F44;"
       d="M200.4,285.9c-2.6,6.4-16.8,48.6-18,49.6c-1.2,1-4.8,1.9-3.5,2.2   c1.3,0.3,1.8,0.7,0.7,1.1c-1.1,0.4-2.9,1.3-2.1,1.4c0.8,0.1,1,0.6-0.7,1.9c-1.6,1.3-2.8,2-4,2.5c-1.2,0.4,16-0.1,16,0   c0,0.1,11.1-48.9,11.1-48.9"
       id="path81"
       clip-path="url(#SVGID_12_)" /></g><g
     id="g83"><defs
       id="defs85"><path
         id="SVGID_19_"
         d="M0,190.6c0,105.3,85.4,190.6,190.6,190.6c105.3,0,190.6-85.4,190.6-190.6C381.3,85.4,295.9,0,190.6,0    C85.4,0,0,85.4,0,190.6" /></defs><clipPath
       id="SVGID_14_"><use
         xlink:href="#SVGID_19_"
         style="overflow:visible;"
         id="use89" /></clipPath><path
       style="clip-path:url(#SVGID_14_);fill:#D7B395;"
       d="M183.5,201.3c1.2,6.1-0.3,15-1.3,16.7c-0.5,0.9,8.2,4.2,16.7,4.2   c8.3,0,16.3-3.5,15.6-5.3c-1.5-3.7-3.4-8.2-4.4-14.9C209.1,195.3,183.5,201.3,183.5,201.3"
       id="path91"
       clip-path="url(#SVGID_14_)" /><path
       style="clip-path:url(#SVGID_14_);fill:#008FD1;"
       d="M194.9,219.1c0.5-0.1,6.8,0,7.3-0.2c3.9-0.9,6.7-1.4,12.4-2.7   c5.8-0.2,5.5,0.2,7.4,1.8c4.1,3.6,1,49.8-1.6,61.9c-3.4,1.6-10.7-1.6-19.4-4c-2.5,2.9-26.3,6.7-30.9,4.9   c-0.4-9.5-10.5-59.7-6.4-62.8c1.8-1.4,13-1.7,18.6-1.5C189.9,218.2,194.9,219.1,194.9,219.1"
       id="path93"
       clip-path="url(#SVGID_14_)" /></g><g
     id="g95"><defs
       id="defs97"><path
         id="SVGID_21_"
         d="M214.6,216.2c-5.6,1.3-8.4,1.8-12.4,2.7c-0.5,0.1-6.9,0.1-7.3,0.2c0,0-5-0.9-12.7-2.6    c-5.6-0.1-16.7,0.1-18.6,1.5c-4.1,3.1,6.1,53.3,6.4,62.8c4.7,1.8,28.4-2,30.9-4.9c8.8,2.3,16.1,5.5,19.4,4    c2.6-12.1,5.7-58.2,1.6-61.9c-1.6-1.4-1.6-1.9-5.3-1.9C216.1,216.2,215.4,216.2,214.6,216.2" /></defs><clipPath
       id="SVGID_16_"><use
         xlink:href="#SVGID_21_"
         style="overflow:visible;"
         id="use101" /></clipPath><polygon
       style="clip-path:url(#SVGID_16_);fill:#006E9F;"
       points="182.2,216.5 184.1,225.7 188.2,226.3 188.3,229.1 198.5,232.8    183.3,216.2  "
       id="polygon103"
       clip-path="url(#SVGID_16_)" /><polygon
       style="clip-path:url(#SVGID_16_);fill:#006E9F;"
       points="214.9,216.5 213,225.7 208.9,226.3 208.8,229.1 198.5,232.8    213.8,216.2  "
       id="polygon105"
       clip-path="url(#SVGID_16_)" /><path
       style="clip-path:url(#SVGID_16_);fill:#FFFFFF;"
       d="M181.7,215.2c1.9,3.9,16.8,17.5,16.8,17.5c3.1-2,15.7-15.2,16.3-18.1   C215.3,211.8,181.7,215.2,181.7,215.2"
       id="path107"
       clip-path="url(#SVGID_16_)" /></g><g
     id="g109"><defs
       id="defs111"><path
         id="SVGID_23_"
         d="M202.3,218.9c-0.5,0.1-6.9,0.1-7.3,0.2c0,0-4.9-0.9-12.3-2.5c3.7,5,15.9,16.2,15.9,16.2    c2.7-1.8,12.6-11.9,15.5-16.4C208.8,217.6,206.1,218.1,202.3,218.9" /></defs><clipPath
       id="SVGID_18_"><use
         xlink:href="#SVGID_23_"
         style="overflow:visible;"
         id="use115" /></clipPath><polygon
       style="clip-path:url(#SVGID_18_);fill:#822927;"
       points="200.4,222 196.7,222 191.2,217.6 205.9,217.6  "
       id="polygon117"
       clip-path="url(#SVGID_18_)" /><polygon
       style="clip-path:url(#SVGID_18_);fill:#822927;"
       points="205.1,249.3 192,249.3 196.7,222 200.4,222  "
       id="polygon119"
       clip-path="url(#SVGID_18_)" /></g><g
     id="g121"><defs
       id="defs123"><path
         id="SVGID_25_"
         d="M185.5,218.6v1.4c1.6,1.7,3.5,3.7,5.3,5.5h5.2V219c-0.6,0-1,0-1.1,0.1c0,0-0.9-0.2-2.5-0.5H185.5z" /></defs><clipPath
       id="SVGID_20_"><use
         xlink:href="#SVGID_25_"
         style="overflow:visible;"
         id="use127" /></clipPath><path
       style="clip-path:url(#SVGID_20_);fill:#006998;"
       d="M186.9,221.5L186.9,221.5c0.9,0.9,1.8,1.8,2.7,2.8h0   C188.7,223.4,187.8,222.4,186.9,221.5"
       id="path129"
       clip-path="url(#SVGID_20_)" /><path
       style="clip-path:url(#SVGID_20_);fill:#F4F4F4;"
       d="M193.3,219.2L190,220l-3.1,1.5c0.9,0.9,1.8,1.8,2.7,2.8l4.7-4.2   L193.3,219.2"
       id="path131"
       clip-path="url(#SVGID_20_)" /><path
       style="clip-path:url(#SVGID_20_);fill:#7C2724;"
       d="M194.4,219l-1.1,0.2l1.1,0.9l1.2-1c-0.3,0-0.5,0-0.6,0h0c0,0,0,0,0,0   C194.9,219.1,194.7,219.1,194.4,219"
       id="path133"
       clip-path="url(#SVGID_20_)" /></g><g
     id="g135"><defs
       id="defs137"><path
         id="SVGID_27_"
         d="M202.3,218.9c-0.5,0.1-6.9,0.1-7.3,0.2c0,0-4.9-0.9-12.3-2.5c3.7,5,15.9,16.2,15.9,16.2    c2.7-1.8,12.6-11.9,15.5-16.4C208.8,217.6,206.1,218.1,202.3,218.9" /></defs><clipPath
       id="SVGID_22_"><use
         xlink:href="#SVGID_27_"
         style="overflow:visible;"
         id="use141" /></clipPath><polygon
       class="st41"
       points="195.2,219.1 188.1,224.3 179.7,216.2 187.1,216.2  "
       id="polygon143"
       clip-path="url(#SVGID_22_)" /></g><g
     id="g145"><defs
       id="defs147"><path
         id="SVGID_29_"
         d="M203.6,218.6c-0.4,0.1-0.9,0.2-1.3,0.3c-0.1,0-0.5,0-1.1,0.1v6.5h5.1c1.9-2,3.8-4.2,5.4-6v-0.9H203.6z" /></defs><clipPath
       id="SVGID_24_"><use
         xlink:href="#SVGID_29_"
         style="overflow:visible;"
         id="use151" /></clipPath><path
       style="clip-path:url(#SVGID_24_);fill:#F4F4F4;"
       d="M203.8,219.2l-1,0.8l4.7,4.2c0.9-0.9,1.7-1.9,2.5-2.8l-2.8-1.4   L203.8,219.2"
       id="path153"
       clip-path="url(#SVGID_24_)" /><path
       style="clip-path:url(#SVGID_24_);fill:#7C2724;"
       d="M202.4,218.9c0,0-0.1,0-0.1,0c-0.1,0-0.3,0-0.7,0l1.2,1.1l1-0.8   L202.4,218.9"
       id="path155"
       clip-path="url(#SVGID_24_)" /></g><g
     id="g157"><defs
       id="defs159"><path
         id="SVGID_31_"
         d="M202.3,218.9c-0.5,0.1-6.9,0.1-7.3,0.2c0,0-4.9-0.9-12.3-2.5c3.7,5,15.9,16.2,15.9,16.2    c2.7-1.8,12.6-11.9,15.5-16.4C208.8,217.6,206.1,218.1,202.3,218.9" /></defs><clipPath
       id="SVGID_26_"><use
         xlink:href="#SVGID_31_"
         style="overflow:visible;"
         id="use163" /></clipPath><polygon
       style="clip-path:url(#SVGID_26_);fill:#FFFFFF;"
       points="202.1,218.8 209.1,224.3 217.5,216.2 210.1,216.2  "
       id="polygon165"
       clip-path="url(#SVGID_26_)" /></g><g
     id="g167"><defs
       id="defs169"><path
         id="SVGID_33_"
         d="M214.6,216.2c-5.6,1.3-8.4,1.8-12.4,2.7c-0.5,0.1-6.9,0.1-7.3,0.2c0,0-5-0.9-12.7-2.6    c-5.6-0.1-16.7,0.1-18.6,1.5c-4.1,3.1,6.1,53.3,6.4,62.8c4.7,1.8,28.4-2,30.9-4.9c8.8,2.3,16.1,5.5,19.4,4    c2.6-12.1,5.7-58.2,1.6-61.9c-1.6-1.4-1.6-1.9-5.3-1.9C216.1,216.2,215.4,216.2,214.6,216.2" /></defs><clipPath
       id="SVGID_28_"><use
         xlink:href="#SVGID_33_"
         style="overflow:visible;"
         id="use173" /></clipPath><path
       style="clip-path:url(#SVGID_28_);fill:#006E9F;"
       d="M223.7,239.5c-4.8,9.8-3,31.8-17.3,38.5c-14,6.5-19.5,14.6-1.9,16.4   c16.8,1.7,21.5-10.1,22.1-10.6c1.2-1.1,6.8-45.5,6.8-45.5L223.7,239.5z"
       id="path175"
       clip-path="url(#SVGID_28_)" /><path
       style="clip-path:url(#SVGID_28_);fill:#006E9F;"
       d="M200.5,237.8c1.4,4.3,4,35.8,2.8,37.2c-1.1,1.4-3.3,2.3-3.2,0.4   C200.2,274.1,200.5,237.8,200.5,237.8"
       id="path177"
       clip-path="url(#SVGID_28_)" /></g><g
     id="g179"><defs
       id="defs181"><path
         id="SVGID_35_"
         d="M185.9,280.2L185.9,280.2L185.9,280.2c6.7-1,13.2-2.6,14.9-4.1c1.2-4.7,0.3-33.3-0.3-39    C200.4,246,191.3,272.4,185.9,280.2" /></defs><clipPath
       id="SVGID_30_"><use
         xlink:href="#SVGID_35_"
         style="overflow:visible;"
         id="use185" /></clipPath><linearGradient
       id="SVGID_32_"
       gradientUnits="userSpaceOnUse"
       x1="-80"
       y1="759.9426"
       x2="-79"
       y2="759.9426"
       gradientTransform="matrix(-3.4235 -0.9894 -1.002 3.3803 689.9869 -2386.8555)"><stop
         offset="0"
         style="stop-color:#399AD6"
         id="stop188" /><stop
         offset="0.4867"
         style="stop-color:#1B94D3"
         id="stop190" /><stop
         offset="1"
         style="stop-color:#008FD1"
         id="stop192" /></linearGradient><polygon
       style="clip-path:url(#SVGID_30_);fill:url(#SVGID_32_);"
       points="200.6,284.5 174.1,276.8 187.1,232.8 213.7,240.5  "
       id="polygon194"
       clip-path="url(#SVGID_30_)" /></g><g
     id="g196"><defs
       id="defs198"><path
         id="SVGID_38_"
         d="M0,190.6c0,105.3,85.4,190.6,190.6,190.6c105.3,0,190.6-85.4,190.6-190.6C381.3,85.4,295.9,0,190.6,0    C85.4,0,0,85.4,0,190.6" /></defs><clipPath
       id="SVGID_34_"><use
         xlink:href="#SVGID_38_"
         style="overflow:visible;"
         id="use202" /></clipPath><path
       style="clip-path:url(#SVGID_34_);fill:#DFCDB5;"
       d="M145.3,114.5c-2.6,18.8,6.9,67.1,16.5,82.1c8.2,12.9,26.4,17.5,48.1,18.3   c22.4,0.8,46.7-17,50.1-44.8c3.4-27.8,3.8-62.7,0.4-69.5C257.1,93.8,150.8,74.5,145.3,114.5"
       id="path204"
       clip-path="url(#SVGID_34_)" /></g><g
     id="g206"><defs
       id="defs208"><path
         id="SVGID_40_"
         d="M145.3,114.5c-2.6,18.8,6.9,67.1,16.5,82.1c8.2,12.9,26.4,17.5,48.1,18.3c22.4,0.8,46.7-17,50.1-44.8    c3.4-27.8,3.8-62.7,0.4-69.5C258.7,97,228.2,90,199.1,90C173,90,147.9,95.6,145.3,114.5" /></defs><clipPath
       id="SVGID_36_"><use
         xlink:href="#SVGID_40_"
         style="overflow:visible;"
         id="use212" /></clipPath><path
       style="clip-path:url(#SVGID_36_);fill:#D9BBA0;"
       d="M258.4,177.5c-8.2,13.8-25.7,33.6-50.7,35.9c-25,2.3-37-4.6-43.2-8.4   c-6.2-3.8-16,16.5-14.9,17.4c1.1,0.8,132.9,0.8,132.1,0.9c-0.8,0.2-11.5-54.6-11.5-54.6L258.4,177.5z"
       id="path214"
       clip-path="url(#SVGID_36_)" /><path
       style="clip-path:url(#SVGID_36_);fill:#D7B395;"
       d="M161.4,81.5c22.9-4.1,33.9-0.5,43.5,6.3c11.9-5,43.5-7.8,54,10.1   c10.5,17.9,12.5,34.6,9.9,41.3c-2.6,6.8-40.6-0.9-44.2-17.8c1.8,7.1,2.3,12.1,4.3,15.7c0.3,0.6-1.2,2.5-1.8,2.3   c-8.7-3.2-28.5-13.3-32.9-21.9c-1.5,9.9-7.9,19.9-18.3,21.9c-3.9,0.8-26.1,2.8-25.1,1.7c0.1,3-2.6,18-3.9,18.8   c-1,0.5-0.8-2.6-1.3-7.6c-1.8,2.3,0.1,6.7-0.8,7.6c-2.3,2.3-1,6.2-1,6.2s-11.8-1.9-11.8-27.7S138.5,85.6,161.4,81.5"
       id="path216"
       clip-path="url(#SVGID_36_)" /></g><g
     id="g218"><defs
       id="defs220"><path
         id="SVGID_42_"
         d="M0,190.6c0,105.3,85.4,190.6,190.6,190.6c105.3,0,190.6-85.4,190.6-190.6C381.3,85.4,295.9,0,190.6,0    C85.4,0,0,85.4,0,190.6" /></defs><clipPath
       id="SVGID_37_"><use
         xlink:href="#SVGID_42_"
         style="overflow:visible;"
         id="use224" /></clipPath><path
       style="clip-path:url(#SVGID_37_);fill:#6E504A;"
       d="M202.1,79.7c11.9-5,43.5-7.8,54,10.1c10.5,17.9,14.6,47.2,12,54   c-2.6,6.8-38.4-10.4-44.4-24c1.8,7.1,3.2,13.7,5.2,17.4c0.3,0.6-0.1,1.4-0.7,1.2c-8.7-3.2-29.6-12.1-34-20.8   c-1.5,9.9-20.5,20-33.3,20.9c-12.8,0.9-13.7,13.6-16,15.9c-2.3,2.3-3.8,3.6-3.8,3.6s-9,0.8-9-25s8.1-47.8,31-51.8   C186,77.2,192.5,72.9,202.1,79.7"
       id="path226"
       clip-path="url(#SVGID_37_)" /></g><g
     id="g228"><defs
       id="defs230"><path
         id="SVGID_44_"
         d="M202.1,79.7c-9.6-6.8-16.2-2.5-39.1,1.5c-22.9,4.1-31,26.1-31,51.8c0,25.8,9,25,9,25s1.5-1.4,3.8-3.6    c2.3-2.3,3.2-15,16-15.9c12.8-0.9,31.9-11,33.3-20.9c4.4,8.7,25.3,17.6,34,20.8c0.6,0.2,1-0.6,0.7-1.2c-2.1-3.7-3.4-10.3-5.2-17.4    c6,13.6,41.8,30.7,44.4,24c2.6-6.8-1.4-36.1-12-54c-6.2-10.5-19.5-13.9-31.9-13.9C215.4,75.9,207.1,77.6,202.1,79.7" /></defs><clipPath
       id="SVGID_39_"><use
         xlink:href="#SVGID_44_"
         style="overflow:visible;"
         id="use234" /></clipPath><path
       style="clip-path:url(#SVGID_39_);fill:#86605A;"
       d="M266.6,118.3c-6.6-21-34.5-45.2-51.2-39.5c-16.7,5.7-40.6,5.7-46.6,5.7   c-6,0-30.1,11.1-39.5,30.5c-9.4,19.4-17.6-52.4-17.6-52.4l161.4-22.6L266.6,118.3z"
       id="path236"
       clip-path="url(#SVGID_39_)" /><path
       style="clip-path:url(#SVGID_39_);fill:#624842;"
       d="M268.8,139.5c-2.2,2.1-37.3-7.1-44.6-19.7c0.7,5.7,16.1,20.8,28.7,24.5   c12.6,3.7,15.3,1.9,15.9,1.3C269.4,145,268.8,139.5,268.8,139.5"
       id="path238"
       clip-path="url(#SVGID_39_)" /><path
       style="clip-path:url(#SVGID_39_);fill:#624842;"
       d="M229.6,136.9c-2.8-0.2-30.6-12.9-35.3-19.3c1.1,7.8,33.2,24.8,34.4,23.9   C229.9,140.5,229.6,136.9,229.6,136.9"
       id="path240"
       clip-path="url(#SVGID_39_)" /><path
       style="clip-path:url(#SVGID_39_);fill:#624842;"
       d="M186.4,132.2c-4.9,3.5-25.6,4.8-33.2,6.5c-3.8,0.8-6.9,17.6-10.6,14.4   c3.8,3.3-14.7-23.7-12.4-39.2c2.2-14.7-21.4,22.7-21.4,22.7s21.1,29.3,22,29.3c0.9,0,16.7-1.4,17.8-1.6   C149.7,164.1,186.4,132.2,186.4,132.2"
       id="path242"
       clip-path="url(#SVGID_39_)" /></g><g
     id="g244"><defs
       id="defs246"><path
         id="SVGID_46_"
         d="M0,190.6c0,105.3,85.4,190.6,190.6,190.6c105.3,0,190.6-85.4,190.6-190.6C381.3,85.4,295.9,0,190.6,0    C85.4,0,0,85.4,0,190.6" /></defs><clipPath
       id="SVGID_41_"><use
         xlink:href="#SVGID_46_"
         style="overflow:visible;"
         id="use250" /></clipPath><path
       class="st54"
       d="M151.4,146.6c-3-2.7-5.3,0.4-5.3,9.1c0,8.7,8.7,21,8,14.5l-0.7-6.5"
       id="path252"
       clip-path="url(#SVGID_41_)" /><path
       style="clip-path:url(#SVGID_41_);fill:#3C2B27;"
       d="M238.4,169.2L238.4,169.2c4,0,7.2-3.2,7.2-7.1v-6.6   c0-3.9-3.2-7.1-7.2-7.1c-4,0-7.2,3.2-7.2,7.1v6.6C231.2,166,234.5,169.2,238.4,169.2"
       id="path254"
       clip-path="url(#SVGID_41_)" /><path
       style="clip-path:url(#SVGID_41_);fill:#3C2B27;"
       d="M203.2,169.2L203.2,169.2c4,0,7.2-3.2,7.2-7.1v-6.6   c0-3.9-3.2-7.1-7.2-7.1c-4,0-7.2,3.2-7.2,7.1v6.6C195.9,166,199.2,169.2,203.2,169.2"
       id="path256"
       clip-path="url(#SVGID_41_)" /><path
       style="clip-path:url(#SVGID_41_);fill:none;stroke:#AD9175;stroke-width:2.7302;stroke-linecap:round;stroke-miterlimit:10;"
       d="   M227,168.9c-2.4,1.9-10.6,1.9-12,0"
       id="path258"
       clip-path="url(#SVGID_41_)" /><path
       style="clip-path:url(#SVGID_41_);fill:#6B222C;"
       d="M196,181.5c0,12.7,9.5,20.8,23.3,20.8c5.5,0,15.7-2.2,15.7-14.9   L196,181.5z"
       id="path260"
       clip-path="url(#SVGID_41_)" /></g><g
     id="g262"><defs
       id="defs264"><path
         id="SVGID_48_"
         d="M219.3,202.3c5.5,0,15.7-2.2,15.7-14.9l-39-5.9C196,194.2,205.6,202.3,219.3,202.3" /></defs><clipPath
       id="SVGID_43_"><use
         xlink:href="#SVGID_48_"
         style="overflow:visible;"
         id="use268" /></clipPath><path
       style="clip-path:url(#SVGID_43_);fill:#822927;"
       d="M234.6,205.6c0.7-5.1-20.9-20.5-35.3-12.6c-14.4,7.9,3,23.7,7.6,23.7   C211.5,216.7,234,211,234.6,205.6"
       id="path270"
       clip-path="url(#SVGID_43_)" /><path
       style="clip-path:url(#SVGID_43_);fill:#FFFFFF;"
       d="M212.6,185.2h13.7c2.3,0,20.7-1.9,20.7-4.2c0-2.3-1.9-4.2-4.2-4.2h-46.7   c-2.3,0-4.2,1.9-4.2,4.2C191.9,183.4,210.3,185.2,212.6,185.2"
       id="path272"
       clip-path="url(#SVGID_43_)" /></g><g
     id="g274"><defs
       id="defs276"><path
         id="SVGID_50_"
         d="M0,190.6c0,105.3,85.4,190.6,190.6,190.6c105.3,0,190.6-85.4,190.6-190.6C381.3,85.4,295.9,0,190.6,0    C85.4,0,0,85.4,0,190.6" /></defs><clipPath
       id="SVGID_45_"><use
         xlink:href="#SVGID_50_"
         style="overflow:visible;"
         id="use280" /></clipPath><path
       style="clip-path:url(#SVGID_45_);fill:#6E504A;"
       d="M148.1,142.3c3.5,2.8,5.3,15.9,6.5,14.8c1.2-1.1,0.7-15.2-0.4-16.4   C153.2,139.4,148.1,142.3,148.1,142.3"
       id="path282"
       clip-path="url(#SVGID_45_)" /><path
       style="clip-path:url(#SVGID_45_);fill:#006E9F;"
       d="M199.9,244.7c0,0.8-0.7,1.4-1.5,1.4c-0.8,0-1.5-0.6-1.5-1.4   c0-0.8,0.7-1.4,1.5-1.4C199.2,243.2,199.9,243.9,199.9,244.7"
       id="path284"
       clip-path="url(#SVGID_45_)" /><path
       style="clip-path:url(#SVGID_45_);fill:#006E9F;"
       d="M199.9,258.2c0,0.8-0.7,1.4-1.5,1.4c-0.8,0-1.5-0.6-1.5-1.4   c0-0.8,0.7-1.4,1.5-1.4C199.2,256.8,199.9,257.4,199.9,258.2"
       id="path286"
       clip-path="url(#SVGID_45_)" /><path
       style="clip-path:url(#SVGID_45_);fill:#D7B395;"
       d="M150,188.9c0.5-1.6,4.8-7.6,7.5-7.8c2.7-0.2,3.1,2.6,1.2,4.6   c-2,2.1-3.3,4.9-4.5,4.8C153,190.5,150,188.9,150,188.9"
       id="path288"
       clip-path="url(#SVGID_45_)" /><polygon
       style="clip-path:url(#SVGID_45_);fill:#191918;"
       points="161.2,179.5 168.5,165.4 154.9,161.4 149,171.3  "
       id="polygon290"
       clip-path="url(#SVGID_45_)" /><path
       style="clip-path:url(#SVGID_45_);fill:#282827;"
       d="M138.9,164.7c-1.1-2.4,3.7-10.2,6.3-11.2c4.9,7,24,34.7,32.3,37.2   c8.2,2.5,7.1,1.7,8.4,0.9c1.3-0.8,5.7,1.7,8,3.6c2.4,2,7.8,6.6,8.5,7.3c0.7,0.7-6.8,11.2-8.7,12.7c-2.8,2.1-2.8,2.3-6.2,0.7   C184,214.2,154.4,196.9,138.9,164.7"
       id="path292"
       clip-path="url(#SVGID_45_)" /><path
       style="clip-path:url(#SVGID_45_);fill:#252524;"
       d="M157.9,152.2c0,0-12.7,0.3-12.9,1.4c-0.2,1.1,12.2,16.6,12.2,16.6   l11.2-4.8L157.9,152.2z"
       id="path294"
       clip-path="url(#SVGID_45_)" /><path
       style="clip-path:url(#SVGID_45_);fill:#DFCDB5;"
       d="M146.7,199c2.2-4.3,0.9-6.3,1.1-7.8c0.2-1.6,1.8-3,6.9-5.6   c6.8-3.5,8.3-1,8.5,0.7c5.5-0.3,2.9,1.8,6.4,2.9c2.9,0.9,4.3,0.9-0.1,9.4c-4.4,8.5-7.4,6-8.9,7.8c-0.8,0.9-2.9,0.8-5.4-0.3   c-5.2-2.3-7.3-3.3-6.8-4.2C148.8,201.1,145.7,200.9,146.7,199"
       id="path296"
       clip-path="url(#SVGID_45_)" /></g><g
     id="g298"><defs
       id="defs300"><path
         id="SVGID_52_"
         d="M154.7,185.6c-5.1,2.6-6.6,4.1-6.9,5.6c-0.2,1.6,1.1,3.5-1.1,7.8c-1,1.8,2.1,2,1.6,2.9    c-0.5,0.9,1.6,1.9,6.9,4.2c2.5,1.1,4.6,1.2,5.4,0.3c1.5-1.9,4.6,0.6,8.9-7.8c4.3-8.5,3-8.5,0.1-9.4c-3.5-1.1-0.9-3.1-6.4-2.9    c-0.1-1.1-0.8-2.4-2.9-2.4C159,183.8,157.2,184.3,154.7,185.6" /></defs><clipPath
       id="SVGID_47_"><use
         xlink:href="#SVGID_52_"
         style="overflow:visible;"
         id="use304" /></clipPath><path
       class="st58"
       d="M139.7,218.1c9.1-2.2,20.3-4.3,25.1-13c4.7-8.7,11.8-14.6,11.8-14.6S162.9,231,162.1,231   C161.4,231.1,139.7,218.1,139.7,218.1"
       id="path306"
       clip-path="url(#SVGID_47_)" /></g><g
     id="g308"><defs
       id="defs310"><path
         id="SVGID_54_"
         d="M0,190.6c0,105.3,85.4,190.6,190.6,190.6c105.3,0,190.6-85.4,190.6-190.6C381.3,85.4,295.9,0,190.6,0    C85.4,0,0,85.4,0,190.6" /></defs><clipPath
       id="SVGID_49_"><use
         xlink:href="#SVGID_54_"
         style="overflow:visible;"
         id="use314" /></clipPath><line
       style="clip-path:url(#SVGID_49_);fill:none;stroke:#FFFFFF;stroke-width:2.7302;stroke-miterlimit:10;"
       x1="146.1"
       y1="199.9"
       x2="160.3"
       y2="207.1"
       id="line316"
       clip-path="url(#SVGID_49_)" /><path
       style="clip-path:url(#SVGID_49_);fill:none;stroke:#008FD1;stroke-width:16.3815;stroke-miterlimit:10;"
       d="M168.9,225.2   c-11.1,3.8-29.7,15.4-32.3,13.2c-2.3-1.9,15-31.5,16.7-34.9"
       id="path318"
       clip-path="url(#SVGID_49_)" /><path
       style="clip-path:url(#SVGID_49_);fill:none;stroke:#624842;stroke-width:2.7302;stroke-miterlimit:10;"
       d="M192.8,137.6   c6.6-6,21,1.2,22.7,8"
       id="path320"
       clip-path="url(#SVGID_49_)" /><path
       style="clip-path:url(#SVGID_49_);fill:none;stroke:#624842;stroke-width:2.7302;stroke-miterlimit:10;"
       d="M228.8,140.2   c4-7.7,13.9-8.9,18.7,0"
       id="path322"
       clip-path="url(#SVGID_49_)" /><path
       style="clip-path:url(#SVGID_49_);fill:#FFF491;"
       d="M297.6,100.9c0.4-0.4,1.5-0.9,1.8-1.8c0.3-1,0.8-3.5,1.2-4.9   c0.3-1.4,3.1-5.6,3.7-7c0.6-1.4,3.7-4.4,3.5-10.7c-0.2-6.2-4.9-16.6-17.3-16.6c-12.3,0-16.5,11.4-16.6,16.2   c-0.1,4.8,2.3,9.4,3.4,10.9c1.1,1.4,3.5,6.9,3.9,7.7c0.4,0.9,0.3,2.9,0.3,3.9c0.1,1.1,0.9,1.8,1.4,2.2H297.6z"
       id="path324"
       clip-path="url(#SVGID_49_)" /><path
       style="clip-path:url(#SVGID_49_);fill:none;stroke:#ECBD32;stroke-width:4.4203;"
       d="M297.6,100.9c0.4-0.4,1.5-0.9,1.8-1.8   c0.3-0.9,0.8-3.5,1.2-4.9c0.3-1.4,3.1-5.6,3.7-7c0.6-1.4,3.7-4.4,3.5-10.7c-0.2-6.2-4.9-16.6-17.3-16.6S274,71.3,273.8,76.2   c-0.1,4.8,2.3,9.4,3.4,10.9c1.1,1.4,3.5,6.9,3.9,7.7c0.4,0.9,0.3,2.9,0.3,3.9c0.1,1.1,0.9,1.8,1.4,2.2H297.6z"
       id="path326"
       clip-path="url(#SVGID_49_)" /><line
       style="clip-path:url(#SVGID_49_);fill:none;stroke:#A8A8A8;stroke-width:2.7302;stroke-linecap:round;"
       x1="282.9"
       y1="102.8"
       x2="297.6"
       y2="102.8"
       id="line328"
       clip-path="url(#SVGID_49_)" /><line
       style="clip-path:url(#SVGID_49_);fill:none;stroke:#959595;stroke-width:2.7302;stroke-linecap:round;"
       x1="282.9"
       y1="104.7"
       x2="297.6"
       y2="104.7"
       id="line330"
       clip-path="url(#SVGID_49_)" /><line
       style="clip-path:url(#SVGID_49_);fill:none;stroke:#6F6F6E;stroke-width:2.7302;stroke-linecap:round;"
       x1="283.3"
       y1="106.6"
       x2="297.1"
       y2="106.6"
       id="line332"
       clip-path="url(#SVGID_49_)" /><line
       style="clip-path:url(#SVGID_49_);fill:none;stroke:#5F5F5E;stroke-width:2.7302;stroke-linecap:round;"
       x1="285.6"
       y1="108.4"
       x2="294.9"
       y2="108.4"
       id="line334"
       clip-path="url(#SVGID_49_)" /><path
       class="st63"
       d="M144.9,92.9V75.3c0-8.5-7-15.4-15.6-15.4H93.4c-8.6,0-15.6,6.9-15.6,15.4v17.6c0,8.5,7,15.4,15.6,15.4h24.3   l6.6,7.9l-9.8,1.5c-0.1,0-0.2,0-0.3,0.1c-0.3,0.1-0.6,0.4-0.7,0.7c-0.2,0.4-0.1,0.9,0.2,1.2l25.3,24.8c0.4,0.3,0.9,0.4,1.3,0.2   c0.1,0,0.2-0.1,0.3-0.2c0.5-0.4,0.6-1.1,0.3-1.5l-10.7-18.9l9.4-1.4c0.1,0,0.2-0.1,0.3-0.1c0.3-0.1,0.6-0.3,0.7-0.6   c0.2-0.4,0.2-0.8,0-1.1l-8.2-12.9C139.5,106.6,144.9,100.4,144.9,92.9"
       id="path336"
       clip-path="url(#SVGID_49_)" /><path
       style="clip-path:url(#SVGID_49_);fill:none;stroke:#000000;stroke-width:2.7302;stroke-miterlimit:10;"
       d="M144.9,92.9V75.3   c0-8.5-7-15.4-15.6-15.4H93.4c-8.6,0-15.6,6.9-15.6,15.4v17.6c0,8.5,7,15.4,15.6,15.4h24.3l6.6,7.9l-9.8,1.5c-0.1,0-0.2,0-0.3,0.1   c-0.3,0.1-0.6,0.4-0.7,0.7c-0.2,0.4-0.1,0.9,0.2,1.2l25.3,24.8c0.4,0.3,0.9,0.4,1.3,0.2c0.1,0,0.2-0.1,0.3-0.2   c0.5-0.4,0.6-1.1,0.3-1.5l-10.7-18.9l9.4-1.4c0.1,0,0.2-0.1,0.3-0.1c0.3-0.1,0.6-0.3,0.7-0.6c0.2-0.4,0.2-0.8,0-1.1l-8.2-12.9   C139.5,106.6,144.9,100.4,144.9,92.9z"
       id="path338"
       clip-path="url(#SVGID_49_)" /><path
       style="clip-path:url(#SVGID_49_);"
       d="M97,84.1c0-0.9,0.3-1.8,1-2.4c0.7-0.7,1.5-1,2.5-1c1,0,1.8,0.3,2.5,1   c0.7,0.7,1,1.5,1,2.4c0,1-0.3,1.8-1,2.5c-0.7,0.7-1.5,1-2.5,1c-1,0-1.8-0.3-2.5-1C97.3,85.9,97,85.1,97,84.1"
       id="path340"
       clip-path="url(#SVGID_49_)" /><path
       style="clip-path:url(#SVGID_49_);"
       d="M107.8,84.1c0-0.9,0.3-1.8,1-2.4c0.7-0.7,1.5-1,2.5-1c1,0,1.8,0.3,2.5,1   c0.7,0.7,1,1.5,1,2.4c0,1-0.3,1.8-1,2.5c-0.7,0.7-1.5,1-2.5,1c-1,0-1.8-0.3-2.5-1C108.2,85.9,107.8,85.1,107.8,84.1"
       id="path342"
       clip-path="url(#SVGID_49_)" /><path
       style="clip-path:url(#SVGID_49_);"
       d="M118.7,84.1c0-0.9,0.3-1.8,1-2.4c0.7-0.7,1.5-1,2.5-1c1,0,1.8,0.3,2.5,1   c0.7,0.7,1,1.5,1,2.4c0,1-0.3,1.8-1,2.5c-0.7,0.7-1.5,1-2.5,1c-1,0-1.8-0.3-2.5-1C119,85.9,118.7,85.1,118.7,84.1"
       id="path344"
       clip-path="url(#SVGID_49_)" /><path
       style="clip-path:url(#SVGID_49_);fill:#F4F4F4;"
       d="M185.5,273.7l3.1,8.6c-1.8,1.6-5.8,3.6-11.9,4.2l-3.1-8.6L185.5,273.7z"
       id="path346"
       clip-path="url(#SVGID_49_)" /></g><g
     id="g358"><defs
       id="defs360"><rect
         id="SVGID_115_"
         x="-80"
         y="-320"
         width="1920"
         height="1080" /></defs><clipPath
       id="SVGID_53_"><use
         xlink:href="#SVGID_115_"
         style="overflow:visible;"
         id="use364" /></clipPath></g><g
     id="g366"><defs
       id="defs368"><rect
         id="SVGID_117_"
         x="-80"
         y="-320"
         width="1920"
         height="1080" /></defs><clipPath
       id="SVGID_55_"><use
         xlink:href="#SVGID_117_"
         style="overflow:visible;"
         id="use372" /></clipPath></g></svg>