<?xml version="1.0" encoding="utf-8"?>
<!-- Generator: Adobe Illustrator 19.1.1, SVG Export Plug-In . SVG Version: 6.00 Build 0)  -->
<svg version="1.1" id="Layer_1" xmlns="http://www.w3.org/2000/svg" xmlns:xlink="http://www.w3.org/1999/xlink" x="0px" y="0px"
	 viewBox="0 0 381.3 381.3" style="enable-background:new 0 0 381.3 381.3;" xml:space="preserve">
<style type="text/css">
	.st0{clip-path:url(#SVGID_2_);fill:#92B43A;}
	.st1{clip-path:url(#SVGID_2_);fill:#DFCDB5;}
	.st2{clip-path:url(#SVGID_2_);fill:#006E9F;}
	.st3{clip-path:url(#SVGID_2_);fill:#EAEAEA;}
	.st4{clip-path:url(#SVGID_2_);fill:#C3C3C3;}
	.st5{clip-path:url(#SVGID_2_);fill:#006591;}
	.st6{clip-path:url(#SVGID_2_);fill:#008FD1;}
	.st7{clip-path:url(#SVGID_2_);fill:#FFFFFF;}
	.st8{clip-path:url(#SVGID_2_);fill:#191918;}
	.st9{clip-path:url(#SVGID_2_);fill:#282827;}
	.st10{clip-path:url(#SVGID_2_);fill:#252524;}
	.st11{clip-path:url(#SVGID_2_);fill:#D7B395;}
	.st12{clip-path:url(#SVGID_2_);fill:none;stroke:#00425D;stroke-width:12.107;stroke-miterlimit:10;}
	.st13{clip-path:url(#SVGID_2_);fill:#00425D;}
	.st14{clip-path:url(#SVGID_4_);fill:#006E9F;}
	.st15{clip-path:url(#SVGID_6_);fill:#92B43A;}
	.st16{clip-path:url(#SVGID_6_);fill:#EAEAEA;}
	.st17{clip-path:url(#SVGID_6_);fill:#C3C3C3;}
	.st18{clip-path:url(#SVGID_6_);fill:#006591;}
	.st19{clip-path:url(#SVGID_6_);fill:#008FD1;}
	.st20{clip-path:url(#SVGID_6_);fill:#006E9F;}
	.st21{clip-path:url(#SVGID_6_);fill:#FFFFFF;}
	.st22{clip-path:url(#SVGID_6_);fill:#191918;}
	.st23{clip-path:url(#SVGID_6_);fill:#282827;}
	.st24{clip-path:url(#SVGID_6_);fill:#252524;}
	.st25{clip-path:url(#SVGID_6_);fill:none;stroke:#000000;stroke-width:2.3841;stroke-miterlimit:10;}
	.st26{clip-path:url(#SVGID_8_);fill:#92B43A;}
	.st27{clip-path:url(#SVGID_8_);fill:none;stroke:#008FD1;stroke-width:16.3815;stroke-miterlimit:10;}
	.st28{clip-path:url(#SVGID_8_);fill:#624842;}
	.st29{clip-path:url(#SVGID_8_);fill:#6C852C;}
	.st30{clip-path:url(#SVGID_8_);fill:#6E504A;}
	.st31{clip-path:url(#SVGID_10_);fill:#624842;}
	.st32{clip-path:url(#SVGID_12_);fill:#6E504A;}
	.st33{clip-path:url(#SVGID_14_);fill:#624842;}
	.st34{clip-path:url(#SVGID_16_);fill:#00425D;}
	.st35{clip-path:url(#SVGID_18_);fill:none;stroke:#000000;stroke-width:5.4605;stroke-miterlimit:10;}
	.st36{clip-path:url(#SVGID_18_);fill:#CD8D52;}
	.st37{clip-path:url(#SVGID_18_);fill:#002F44;}
	.st38{clip-path:url(#SVGID_20_);fill:#D7B395;}
	.st39{clip-path:url(#SVGID_20_);fill:#008FD1;}
	.st40{clip-path:url(#SVGID_22_);fill:#006E9F;}
	.st41{clip-path:url(#SVGID_22_);fill:#FFFFFF;}
	.st42{clip-path:url(#SVGID_24_);fill:#822927;}
	.st43{clip-path:url(#SVGID_26_);fill:#006998;}
	.st44{clip-path:url(#SVGID_26_);fill:#F4F4F4;}
	.st45{clip-path:url(#SVGID_26_);fill:#7C2724;}
	.st46{clip-path:url(#SVGID_28_);fill:#FFFFFF;}
	.st47{clip-path:url(#SVGID_30_);fill:#F4F4F4;}
	.st48{clip-path:url(#SVGID_30_);fill:#7C2724;}
	.st49{clip-path:url(#SVGID_32_);fill:#FFFFFF;}
	.st50{clip-path:url(#SVGID_34_);fill:#006E9F;}
	.st51{clip-path:url(#SVGID_36_);fill:url(#SVGID_37_);}
	.st52{clip-path:url(#SVGID_39_);fill:#DFCDB5;}
	.st53{clip-path:url(#SVGID_41_);fill:#D9BBA0;}
	.st54{clip-path:url(#SVGID_41_);fill:#D7B395;}
	.st55{clip-path:url(#SVGID_43_);fill:#6E504A;}
	.st56{clip-path:url(#SVGID_45_);fill:#86605A;}
	.st57{clip-path:url(#SVGID_45_);fill:#624842;}
	.st58{clip-path:url(#SVGID_47_);fill:#D7B395;}
	.st59{clip-path:url(#SVGID_47_);fill:#3C2B27;}
	.st60{clip-path:url(#SVGID_47_);fill:none;stroke:#AD9175;stroke-width:2.7302;stroke-linecap:round;stroke-miterlimit:10;}
	.st61{clip-path:url(#SVGID_47_);fill:#6B222C;}
	.st62{clip-path:url(#SVGID_49_);fill:#822927;}
	.st63{clip-path:url(#SVGID_49_);fill:#FFFFFF;}
	.st64{clip-path:url(#SVGID_51_);fill:#6E504A;}
	.st65{clip-path:url(#SVGID_51_);fill:#006E9F;}
	.st66{clip-path:url(#SVGID_51_);fill:#D7B395;}
	.st67{clip-path:url(#SVGID_51_);fill:#191918;}
	.st68{clip-path:url(#SVGID_51_);fill:#282827;}
	.st69{clip-path:url(#SVGID_51_);fill:#252524;}
	.st70{clip-path:url(#SVGID_51_);fill:#DFCDB5;}
	.st71{clip-path:url(#SVGID_53_);fill:#D7B395;}
	.st72{clip-path:url(#SVGID_55_);fill:none;stroke:#FFFFFF;stroke-width:2.7302;stroke-miterlimit:10;}
	.st73{clip-path:url(#SVGID_55_);fill:none;stroke:#008FD1;stroke-width:16.3815;stroke-miterlimit:10;}
	.st74{clip-path:url(#SVGID_55_);fill:none;stroke:#624842;stroke-width:2.7302;stroke-miterlimit:10;}
	.st75{clip-path:url(#SVGID_55_);fill:#FFF491;}
	.st76{clip-path:url(#SVGID_55_);fill:none;stroke:#ECBD32;stroke-width:4.4203;}
	.st77{clip-path:url(#SVGID_55_);fill:none;stroke:#A8A8A8;stroke-width:2.7302;stroke-linecap:round;}
	.st78{clip-path:url(#SVGID_55_);fill:none;stroke:#959595;stroke-width:2.7302;stroke-linecap:round;}
	.st79{clip-path:url(#SVGID_55_);fill:none;stroke:#6F6F6E;stroke-width:2.7302;stroke-linecap:round;}
	.st80{clip-path:url(#SVGID_55_);fill:none;stroke:#5F5F5E;stroke-width:2.7302;stroke-linecap:round;}
	.st81{clip-path:url(#SVGID_55_);fill:#FFFFFF;}
	.st82{clip-path:url(#SVGID_55_);fill:none;stroke:#000000;stroke-width:2.7302;stroke-miterlimit:10;}
	.st83{clip-path:url(#SVGID_55_);}
	.st84{clip-path:url(#SVGID_55_);fill:#F4F4F4;}
	.st85{clip-path:url(#SVGID_57_);fill:#92B43A;}
	.st86{clip-path:url(#SVGID_57_);fill:#EAEAEA;}
	.st87{clip-path:url(#SVGID_57_);fill:#C3C3C3;}
	.st88{clip-path:url(#SVGID_57_);fill:#006591;}
	.st89{clip-path:url(#SVGID_57_);fill:#008FD1;}
	.st90{clip-path:url(#SVGID_57_);fill:#006E9F;}
	.st91{clip-path:url(#SVGID_57_);fill:#FFFFFF;}
	.st92{clip-path:url(#SVGID_57_);fill:#191918;}
	.st93{clip-path:url(#SVGID_57_);fill:#282827;}
	.st94{clip-path:url(#SVGID_57_);fill:#252524;}
	.st95{clip-path:url(#SVGID_57_);fill:#6C852C;}
	.st96{clip-path:url(#SVGID_59_);fill:#00577F;}
	.st97{clip-path:url(#SVGID_59_);fill:#9C9B9B;}
	.st98{clip-path:url(#SVGID_61_);fill:#D7B395;}
	.st99{clip-path:url(#SVGID_61_);fill:#624842;}
	.st100{clip-path:url(#SVGID_61_);fill:#6C852C;}
	.st101{clip-path:url(#SVGID_61_);fill:#6E504A;}
	.st102{clip-path:url(#SVGID_63_);}
	.st103{clip-path:url(#SVGID_65_);fill:#624842;}
	.st104{clip-path:url(#SVGID_67_);fill:#6E504A;}
	.st105{clip-path:url(#SVGID_69_);fill:#624842;}
	.st106{clip-path:url(#SVGID_71_);fill:#DFCDB5;}
	.st107{clip-path:url(#SVGID_73_);fill:#D7B395;}
	.st108{clip-path:url(#SVGID_75_);fill:none;stroke:#FFFFFF;stroke-width:3.96;stroke-miterlimit:10;}
	.st109{clip-path:url(#SVGID_75_);fill:#00425D;}
	.st110{clip-path:url(#SVGID_77_);fill:none;stroke:#000000;stroke-width:7.9199;stroke-miterlimit:10;}
	.st111{clip-path:url(#SVGID_77_);fill:#CD8D52;}
	.st112{clip-path:url(#SVGID_77_);fill:#002F44;}
	.st113{clip-path:url(#SVGID_79_);fill:#D7B395;}
	.st114{clip-path:url(#SVGID_79_);fill:#008FD1;}
	.st115{clip-path:url(#SVGID_81_);fill:#006E9F;}
	.st116{clip-path:url(#SVGID_81_);fill:#FFFFFF;}
	.st117{clip-path:url(#SVGID_83_);fill:#822927;}
	.st118{clip-path:url(#SVGID_85_);fill:#F4F4F4;}
	.st119{clip-path:url(#SVGID_85_);fill:#7C2724;}
	.st120{clip-path:url(#SVGID_87_);fill:#FFFFFF;}
	.st121{clip-path:url(#SVGID_89_);fill:#F4F4F4;}
	.st122{clip-path:url(#SVGID_89_);fill:#7C2724;}
	.st123{clip-path:url(#SVGID_91_);fill:#FFFFFF;}
	.st124{clip-path:url(#SVGID_93_);fill:#006E9F;}
	.st125{clip-path:url(#SVGID_95_);fill:url(#SVGID_96_);}
	.st126{clip-path:url(#SVGID_98_);fill:#008FD1;}
	.st127{clip-path:url(#SVGID_100_);fill:#006E9F;}
	.st128{clip-path:url(#SVGID_102_);fill:#DFCDB5;}
	.st129{clip-path:url(#SVGID_104_);fill:#D9BBA0;}
	.st130{clip-path:url(#SVGID_104_);fill:#D7B395;}
	.st131{clip-path:url(#SVGID_106_);fill:#6E504A;}
	.st132{clip-path:url(#SVGID_108_);fill:#86605A;}
	.st133{clip-path:url(#SVGID_108_);fill:#624842;}
	.st134{clip-path:url(#SVGID_110_);fill:#D7B395;}
	.st135{clip-path:url(#SVGID_110_);fill:none;stroke:#3C2B27;stroke-width:3.96;stroke-miterlimit:10;}
	.st136{clip-path:url(#SVGID_110_);fill:none;stroke:#AD9175;stroke-width:3.96;stroke-linecap:round;stroke-miterlimit:10;}
	.st137{clip-path:url(#SVGID_110_);fill:#6E504A;}
	.st138{clip-path:url(#SVGID_110_);fill:#006E9F;}
	.st139{clip-path:url(#SVGID_110_);fill:#191918;}
	.st140{clip-path:url(#SVGID_110_);fill:#282827;}
	.st141{clip-path:url(#SVGID_110_);fill:#252524;}
	.st142{clip-path:url(#SVGID_110_);fill:#DFCDB5;}
	.st143{clip-path:url(#SVGID_112_);fill:#D7B395;}
	.st144{clip-path:url(#SVGID_114_);fill:none;stroke:#FFFFFF;stroke-width:3.96;stroke-miterlimit:10;}
	.st145{clip-path:url(#SVGID_114_);fill:none;stroke:#008FD1;stroke-width:23.7598;stroke-miterlimit:10;}
	.st146{clip-path:url(#SVGID_114_);fill:#DFCDB5;}
	.st147{clip-path:url(#SVGID_114_);fill:none;stroke:#3C2B27;stroke-width:3.96;stroke-miterlimit:10;}
	.st148{clip-path:url(#SVGID_114_);fill:#F4F4F4;}
	.st149{clip-path:url(#SVGID_116_);fill:#B8B8B8;}
	.st150{clip-path:url(#SVGID_118_);fill:#008FD1;}
</style>
<g>
	<defs>
		<path id="SVGID_56_" d="M0,190.6c0,105.3,85.4,190.6,190.6,190.6c105.3,0,190.6-85.4,190.6-190.6C381.3,85.4,295.9,0,190.6,0
			C85.4,0,0,85.4,0,190.6"/>
	</defs>
	<clipPath id="SVGID_2_">
		<use xlink:href="#SVGID_56_"  style="overflow:visible;"/>
	</clipPath>
	<rect x="-161.5" y="-90.7" class="st0" width="977.1" height="578.1"/>
	<polygon class="st3" points="717,373.6 234.7,365.8 234.7,81.9 717,42.7 	"/>
	<path class="st4" d="M237.9,257.4c8.1,17,43.1,27.8,71.1,26.8c28-1,27.1-8.6,29.5-33.5c2.4-24.8-96.8-8-97.2-6.3"/>
	<path class="st5" d="M217.5,233.3c6,19.5,30.4,31.6,48.4,36.1c18,4.5,68.5,4.2,71.1-12.1c2.6-16.4-24.6-30.7-24.6-30.7L217.5,233.3
		z"/>
	<path class="st6" d="M329.1,103.8c-21.7,1.1-77,6.8-86.3,20c-9.3,13.2-21.8,52.4-23.3,69.1c-1.5,16.7-11.2,47,10.9,52.4
		c22.1,5.4,66.8,14.6,83.4,0.2c16.6-14.4,28.4-134.8,23.9-135.4C333.2,109.6,329.1,103.8,329.1,103.8"/>
	<path class="st2" d="M228.7,233.7c7.1-0.3,8.7-4.3,9.2-12.8c0.5-8.5,9.8-69,10.5-72.6c1.5-8.6,0.4-9-7.2-9.4
		c-6.5-0.4-14.4,32.8-16.4,44.3C222.7,194.7,211.7,234.4,228.7,233.7"/>
	<path class="st2" d="M329.1,103.8c7.9,4.9,17.2,8,17.2,19.8c0,11.9-5.4,128.1-9.2,133.6c-3.8,5.5-23.4,0.2-23.2-11.7
		C317.1,234.7,329.1,103.8,329.1,103.8"/>
	<path class="st7" d="M296.4,158.1l-2,0.1c-2.1,0.1-3.7-1.5-3.5-3.6l0.1-2c0.1-2.1,1.9-3.9,4-4l2-0.1c2.1-0.1,3.6,1.5,3.5,3.6
		l-0.1,2C300.3,156.2,298.5,158,296.4,158.1"/>
	<path class="st7" d="M296.4,158.1l-2,0.1c-2.1,0.1-3.7-1.5-3.5-3.6l0.1-2c0.1-2.1,1.9-3.9,4-4l2-0.1c2.1-0.1,3.6,1.5,3.5,3.6
		l-0.1,2C300.3,156.2,298.5,158,296.4,158.1"/>
	<path class="st7" d="M285.7,158.6l-2,0.1c-2.1,0.1-3.6-1.5-3.5-3.6l0.1-2c0.1-2.1,1.9-3.8,4-4l2-0.1c2.1-0.1,3.6,1.5,3.5,3.6
		l-0.1,2C289.6,156.7,287.8,158.5,285.7,158.6"/>
	<path class="st7" d="M275,159.1l-2,0.1c-2.1,0.1-3.6-1.5-3.5-3.5l0.2-2c0.2-2,2-3.8,4-3.9l2-0.1c2.1-0.1,3.6,1.5,3.5,3.5l-0.1,2
		C278.9,157.2,277.1,159,275,159.1"/>
	<path class="st7" d="M264.3,159.6l-2,0.1c-2.1,0.1-3.6-1.5-3.4-3.5l0.2-1.9c0.2-2,2-3.8,4.1-3.9l2-0.1c2.1-0.1,3.6,1.5,3.4,3.5
		l-0.2,1.9C268.2,157.7,266.3,159.5,264.3,159.6"/>
	<path class="st7" d="M295.7,172.9l-2,0.1c-2.1,0.1-3.7-1.6-3.6-3.7l0.1-2c0.1-2.1,1.9-3.9,4-3.9l2-0.1c2.1-0.1,3.7,1.6,3.6,3.7
		l-0.1,2C299.6,171.1,297.8,172.8,295.7,172.9"/>
	<path class="st7" d="M284.8,173.2l-2,0.1c-2.1,0.1-3.7-1.6-3.6-3.6l0.1-2c0.1-2.1,2-3.8,4-3.9l2-0.1c2.1-0.1,3.7,1.5,3.6,3.6
		l-0.1,2C288.7,171.4,286.9,173.2,284.8,173.2"/>
	<path class="st7" d="M273.9,173.6l-2,0.1c-2.1,0.1-3.7-1.5-3.5-3.6l0.2-2c0.2-2,2-3.8,4.1-3.9l2-0.1c2.1-0.1,3.7,1.5,3.5,3.6
		l-0.1,2C277.8,171.8,276,173.5,273.9,173.6"/>
	<path class="st7" d="M263,173.9l-2,0.1c-2.1,0.1-3.7-1.5-3.5-3.5l0.2-1.9c0.2-2,2-3.7,4.1-3.8l2-0.1c2.1-0.1,3.7,1.5,3.5,3.6
		l-0.2,1.9C267,172.1,265.1,173.8,263,173.9"/>
	<path class="st7" d="M294.9,187.7l-2,0c-2.1,0-3.8-1.6-3.6-3.7l0.1-2c0.1-2.1,1.9-3.8,4.1-3.9l2-0.1c2.1-0.1,3.8,1.6,3.7,3.7
		l-0.1,2C298.9,185.9,297,187.7,294.9,187.7"/>
	<path class="st7" d="M283.9,187.9l-2,0c-2.1,0-3.8-1.6-3.6-3.7l0.1-2c0.1-2.1,2-3.8,4.1-3.8l2,0c2.1-0.1,3.7,1.6,3.6,3.7l-0.1,2
		C287.8,186.1,286,187.8,283.9,187.9"/>
	<path class="st7" d="M272.8,188l-2,0c-2.1,0-3.7-1.6-3.6-3.6l0.2-2c0.2-2,2-3.8,4.1-3.8l2,0c2.1-0.1,3.7,1.6,3.6,3.6l-0.1,2
		C276.8,186.3,275,188,272.8,188"/>
	<path class="st7" d="M261.8,188.2l-2,0c-2.1,0-3.7-1.6-3.5-3.6l0.2-1.9c0.2-2,2.1-3.7,4.2-3.8l2-0.1c2.1-0.1,3.7,1.6,3.5,3.6
		l-0.2,2C265.8,186.5,263.9,188.2,261.8,188.2"/>
	<path class="st7" d="M294.1,202.5h-2.1c-2.2,0-3.8-1.7-3.7-3.8l0.1-2c0.1-2.1,2-3.8,4.1-3.8l2,0c2.1,0,3.8,1.7,3.7,3.8l-0.1,2
		C298.1,200.8,296.3,202.5,294.1,202.5"/>
	<path class="st7" d="M282.9,202.5h-2.1c-2.2,0-3.8-1.7-3.7-3.8l0.1-2c0.1-2.1,2-3.8,4.1-3.8l2,0c2.1,0,3.8,1.7,3.7,3.7l-0.1,2
		C287,200.8,285.1,202.5,282.9,202.5"/>
	<path class="st7" d="M271.8,202.5h-2.1c-2.2,0-3.8-1.7-3.6-3.7l0.2-2c0.2-2,2-3.7,4.2-3.7l2,0c2.1,0,3.8,1.6,3.6,3.7l-0.1,2
		C275.8,200.8,273.9,202.5,271.8,202.5"/>
	<path class="st7" d="M260.6,202.5h-2.1c-2.2,0-3.8-1.6-3.6-3.7l0.2-1.9c0.2-2,2.1-3.7,4.2-3.7l2,0c2.1,0,3.8,1.6,3.6,3.7l-0.2,1.9
		C264.7,200.9,262.8,202.5,260.6,202.5"/>
	<path class="st5" d="M372.5,232.9c6.6,21.2,33.2,34.4,52.8,39.3s74.7,4.6,77.5-13.2c2.8-17.8-26.8-33.5-26.8-33.5L372.5,232.9z"/>
	<path class="st6" d="M494.1,91.8c-23.7,1.2-83.9,7.4-94,21.8c-10.1,14.4-23.7,57.1-25.4,75.3c-1.6,18.2-12.3,51.3,11.8,57.1
		c24.1,5.9,72.8,15.9,90.9,0.3c18.1-15.7,31-146.9,26.1-147.6C498.6,98.1,494.1,91.8,494.1,91.8"/>
	<path class="st2" d="M410.6,123.2v7l-5.4,25.1c0,0-9.8,12.3-9.8,19.3c0,7-6.3,58-6.3,58s-12.5,1.1-13.9,0c-1.4-1.1-4.6-9.4-4.6-9.4
		l17.7-79.7l14.7-22.2L410.6,123.2z"/>
	<polygon class="st8" points="377.3,152.2 402.5,149.1 395.7,128.1 377.3,129.3 	"/>
	<path class="st9" d="M377,110.3c2.1-3.6,16.8-4.3,20.5-1.8c-5,12.5-24.6,61.7-20.5,74.6c4,12.8,4,10.7,6.2,11.6
		c2.2,0.9,2.8,8.9,2.4,13.4c-0.4,4.9-1.8,15.9-2.1,17.4c-0.3,1.5-20.9,1.2-24.6,0c-5.3-1.8-5.6-1.5-6.5-7.3
		C351.5,212.4,348,158.9,377,110.3"/>
</g>
<g>
	<defs>
		<rect id="SVGID_58_" x="247" y="154.3" width="37.9" height="68.3"/>
	</defs>
	<clipPath id="SVGID_4_">
		<use xlink:href="#SVGID_58_"  style="overflow:visible;"/>
	</clipPath>
	<path style="clip-path:url(#SVGID_4_);fill:#00577F;" d="M258.5,202.5c-2.2,0-3.8-1.6-3.6-3.7l0.2-1.9c0.2-2,2.1-3.7,4.2-3.7l2,0
		c0,0,0,0,0,0c2.1,0,3.7,1.6,3.6,3.7l-0.2,1.9c-0.2,2-2.1,3.7-4.2,3.7H258.5 M259.7,188.2c-2.1,0-3.7-1.6-3.5-3.6l0.2-1.9
		c0.2-2,2.1-3.7,4.2-3.8l2-0.1c0,0,0.1,0,0.1,0c2.1,0,3.6,1.6,3.4,3.6l-0.2,2c-0.2,2-2,3.7-4.2,3.8L259.7,188.2
		C259.8,188.2,259.7,188.2,259.7,188.2 M270.7,188.1c-2.1,0-3.7-1.6-3.5-3.6l0.2-2c0.2-2,2-3.8,4.1-3.8l2,0c0,0,0.1,0,0.1,0
		c2.1,0,3.6,1.6,3.5,3.7l-0.1,2c-0.1,2.1-2,3.8-4.1,3.8L270.7,188.1C270.8,188.1,270.8,188.1,270.7,188.1 M270.3,158
		c-1.5,1.7-3.2,3.9-5.2,6.7c1.4,0.5,2.4,1.8,2.2,3.4l-0.2,1.9c-0.2,2-2,3.8-4.1,3.8l-2,0.1c0,0-0.1,0-0.1,0c-0.6,0-1.1-0.1-1.6-0.4
		c-1,1.5-1.8,3.3-2.5,5.2l0,0c0,0-2.7,6.5-4.4,11.2c-0.4,0.9-0.9,1.8-1.4,2.7l1-1.6c-0.6,1.7-1,3.1-1,3.6c0,1.4-4,18.7-4,25.3v0.4
		c0,1.4,0.2,2.2,0.7,2.2c0.3,0,0.7-0.3,1.3-1.1c5.3-7,14-10.5,22.3-19h-1.5c-2.2,0-3.8-1.7-3.6-3.7l0.2-2c0.2-2,2-3.7,4.2-3.7l2,0
		c0,0,0,0,0,0c2.1,0,3.7,1.7,3.6,3.7l0,0.1c1.9-2.6,3.8-5.5,5.6-9c-2.1,0-3.6-1.7-3.5-3.7l0.1-2c0.1-2.1,2-3.8,4.1-3.8l2,0
		c0,0,0.1,0,0.1,0c0.1,0,0.2,0,0.3,0c0-2.1-0.7-3.7-2.7-4.6c-0.8-0.3-1.4-0.5-1.9-0.5c-0.6,0-1,0.2-1.5,0.6c0-1.4-0.2-2.5-0.9-3.2
		c-0.5,1.7-2.1,2.9-3.9,3l-2,0.1c0,0-0.1,0-0.1,0c-2,0-3.6-1.6-3.4-3.6l0.2-2c0.2-2,2-3.8,4.1-3.9l2-0.1c0.1,0,0.1,0,0.2,0
		c0.1,0,0.2,0,0.3,0c0.9-2.1,1.8-4.3,2.3-6c-0.7,0.5-1.5,0.9-2.4,0.9l-2,0.1c-0.1,0-0.1,0-0.2,0C271.8,159.2,270.8,158.7,270.3,158"
		/>
	<path style="clip-path:url(#SVGID_4_);fill:#9C9B9B;" d="M276.1,154.3c-1.6,0-3.5,1.2-5.9,3.7c0.6,0.7,1.5,1.2,2.6,1.2
		c0.1,0,0.1,0,0.2,0l2-0.1c0.9,0,1.7-0.4,2.4-0.9c0.6-2,0.7-3.4-0.3-3.7C276.8,154.3,276.4,154.3,276.1,154.3"/>
	<path style="clip-path:url(#SVGID_4_);fill:#9C9B9B;" d="M274.8,164.1c-0.1,0-0.1,0-0.2,0l-2,0.1c-2.1,0.1-3.9,1.8-4.1,3.9
		l-0.2,1.9c-0.2,2,1.4,3.6,3.4,3.6c0,0,0.1,0,0.1,0l2-0.1c1.8-0.1,3.4-1.3,3.9-3c-0.4-0.4-1-0.7-1.9-0.9c-0.6-0.1-1.1-0.2-1.6-0.2
		c-0.7,0-1.2,0.2-1.7,0.6c0.6-1.8,1.5-3.9,2.4-6C275,164.1,274.9,164.1,274.8,164.1"/>
	<path style="clip-path:url(#SVGID_4_);fill:#9C9B9B;" d="M265.1,164.7c-1.5,2.2-3.2,4.8-5,7.7h0c-0.3,0.4-0.5,0.7-0.8,1.1
		c0.5,0.2,1,0.4,1.6,0.4c0,0,0.1,0,0.1,0l2-0.1c2.1-0.1,4-1.8,4.1-3.8l0.2-1.9C267.4,166.5,266.5,165.2,265.1,164.7"/>
	<path style="clip-path:url(#SVGID_4_);fill:#9C9B9B;" d="M284.6,178.3c0,0-0.1,0-0.1,0l-2,0c-2.1,0.1-4,1.8-4.1,3.8l-0.1,2
		c-0.1,2,1.4,3.6,3.5,3.7c0.5-0.9,0.9-1.9,1.4-2.8c0.2-0.5,0.5-0.8,0.6-1.2l0.1-0.2l0-0.1c0.1-0.2,0.3-0.4,0.4-0.8
		c0.2-0.7,0.3-1.3,0.4-2c0.2-0.9,0.3-1.8,0.3-2.6C284.8,178.3,284.7,178.3,284.6,178.3"/>
	<path style="clip-path:url(#SVGID_4_);fill:#9C9B9B;" d="M273.6,178.6c0,0-0.1,0-0.1,0l-2,0c-2.1,0.1-4,1.8-4.1,3.8l-0.2,2
		c-0.2,2,1.4,3.6,3.5,3.6c0,0,0,0,0.1,0l2,0c2.1,0,4-1.7,4.1-3.8l0.1-2C277.3,180.2,275.7,178.6,273.6,178.6"/>
	<path style="clip-path:url(#SVGID_4_);fill:#9C9B9B;" d="M262.7,178.9C262.7,178.9,262.6,178.9,262.7,178.9l-2.1,0.1
		c-2.1,0.1-4,1.7-4.2,3.8l-0.2,1.9c-0.2,2,1.4,3.6,3.5,3.6c0,0,0,0,0.1,0l2,0c2.1,0,4-1.7,4.2-3.8l0.2-1.9
		C266.3,180.5,264.8,178.9,262.7,178.9"/>
	<path style="clip-path:url(#SVGID_4_);fill:#9C9B9B;" d="M272.5,193.1C272.5,193.1,272.5,193.1,272.5,193.1l-2.1,0
		c-2.1,0-4,1.7-4.2,3.7l-0.2,2c-0.2,2,1.5,3.7,3.6,3.7h1.5c1.6-1.7,3.3-3.5,4.8-5.6l0-0.1C276.2,194.8,274.6,193.1,272.5,193.1"/>
	<path style="clip-path:url(#SVGID_4_);fill:#9C9B9B;" d="M261.4,193.2C261.4,193.2,261.4,193.2,261.4,193.2l-2.1,0
		c-2.1,0-4,1.7-4.2,3.7l-0.2,1.9c-0.2,2,1.4,3.7,3.6,3.7h2.1c2.2,0,4.1-1.7,4.2-3.7l0.2-1.9C265.1,194.8,263.5,193.2,261.4,193.2"/>
</g>
<g>
	<defs>
		<path id="SVGID_60_" d="M0,190.6c0,105.3,85.4,190.6,190.6,190.6c105.3,0,190.6-85.4,190.6-190.6C381.3,85.4,295.9,0,190.6,0
			C85.4,0,0,85.4,0,190.6"/>
	</defs>
	<clipPath id="SVGID_6_">
		<use xlink:href="#SVGID_60_"  style="overflow:visible;"/>
	</clipPath>
	<path style="clip-path:url(#SVGID_6_);fill:#D7B395;" d="M249.9,178.2c1.5-2.7,0.6-13.7,3.7-16.1c3.2-2.4,5.9,0.6,5.2,4.7
		c-0.7,4.1,0,8.5-1.5,9.4C255.8,177,249.9,178.2,249.9,178.2"/>
	<path style="clip-path:url(#SVGID_6_);fill:#624842;" d="M63,89.5c2.1,14.8,4.7,48.1,35.7,47.6c31-0.5,34.1-57.9,34.1-57.9L63,89.5
		z"/>
	<path style="clip-path:url(#SVGID_6_);fill:#6C852C;" d="M249,382.3c0,8.7-43.4,15.7-96.9,15.7c-53.5,0-96.9-7-96.9-15.7
		c0-8.7,43.4-15.7,96.9-15.7C205.7,366.6,249,373.6,249,382.3"/>
	<path style="clip-path:url(#SVGID_6_);fill:#6E504A;" d="M105.2,383.4c0.3,0,0.8,0.1,1.3,0.1c5.3,0.3,20.6,0.8,21.7-0.1
		c1.2-1,2.9-1,2.7-3.9c-0.2-2.8,1.4-8.5-2.3-7.8c-3.7,0.8-16.3,1.1-19.2,1.1c-2.9,0-2.9-1.2-2.9-1.2c-1.4,1.5-2.4,4.3-2.4,6.7
		C104.2,380.8,103.8,383.3,105.2,383.4"/>
</g>
<g>
	<defs>
		<path id="SVGID_62_" d="M0,190.6c0,105.3,85.4,190.6,190.6,190.6c105.3,0,190.6-85.4,190.6-190.6C381.3,85.4,295.9,0,190.6,0
			C85.4,0,0,85.4,0,190.6"/>
	</defs>
	<clipPath id="SVGID_8_">
		<use xlink:href="#SVGID_62_"  style="overflow:visible;"/>
	</clipPath>
	<g style="clip-path:url(#SVGID_8_);">
		<defs>
			<path id="SVGID_64_" d="M104.2,378.4c0,2.4-0.4,4.9,1,5c0.3,0,0.8,0.1,1.3,0.1c5.3,0.3,20.6,0.8,21.7-0.1c1.2-1,2.9-1,2.7-3.9
				c-0.2-2.8,1.4-8.5-2.3-7.8c-3.7,0.8-16.3,1.1-19.2,1.1c-2.9,0-2.9-1.2-2.9-1.2C105.1,373.2,104.2,376,104.2,378.4"/>
		</defs>
		<clipPath id="SVGID_10_">
			<use xlink:href="#SVGID_64_"  style="overflow:visible;"/>
		</clipPath>
		<path class="st31" d="M102.4,379c2.7,2.7,11.6,3.4,15.2,3.4c3.6,0,11.9-0.7,13.5-2.3c1.6-1.6,3,3.9,3,3.9l-15.9,5.9l-16.6-2.9
			L102.4,379z"/>
		<path class="st31" d="M105.7,372.3c1.5,2,7.1,3.4,14.1,2.5c6.9-0.9,9.7-1.8,11.7-3.8c2-2-26.2-0.7-26.2-0.7L105.7,372.3z"/>
	</g>
</g>
<g>
	<defs>
		<path id="SVGID_66_" d="M0,190.6c0,105.3,85.4,190.6,190.6,190.6c105.3,0,190.6-85.4,190.6-190.6C381.3,85.4,295.9,0,190.6,0
			C85.4,0,0,85.4,0,190.6"/>
	</defs>
	<clipPath id="SVGID_12_">
		<use xlink:href="#SVGID_66_"  style="overflow:visible;"/>
	</clipPath>
	<path class="st32" d="M152.6,374.6c-0.2,5.7-1.9,8.4,1.9,8.8c3.9,0.4,36.3-0.8,41.7,0c5.4-1.9,3.8-6.9-2.7-8.8
		c-6.5-1.8-11.5-5.6-17.7-5.6c-6.2,0-21.4-0.3-22.4,0C152.3,369.2,152.6,373.2,152.6,374.6"/>
</g>
<g>
	<defs>
		<path id="SVGID_68_" d="M153.3,368.9c-1.1,0.3-0.7,4.3-0.8,5.6c0,1.1-0.1,2-0.2,2.9c12.4,2.5,25.2,3.8,38.3,3.8
			c2.9,0,5.7-0.1,8.5-0.2c1.1-2.3-1-5.2-5.7-6.5c-6.5-1.8-11.5-5.6-17.7-5.6c-4.1,0-12.3-0.1-17.5-0.1
			C155.6,368.8,153.7,368.8,153.3,368.9"/>
	</defs>
	<clipPath id="SVGID_14_">
		<use xlink:href="#SVGID_68_"  style="overflow:visible;"/>
	</clipPath>
	<path class="st33" d="M198.8,376.1c1.5,1,1.4,3.1-1.2,4.8c-2.6,1.7-21.9-0.4-26.7-0.5c-4.8-0.2-9,1.1-12.7,1.3
		c-3.7,0.2-6.5-2.3-7.1-2.9c-0.6-0.6-1.2,6.8-1.2,6.8l56-0.3c0,0-1.6-11-1.9-11.2C203.7,373.8,198.8,376.1,198.8,376.1"/>
	<path class="st33" d="M152.7,371.4c2.9,0.8,8.6,1.6,19-0.1c4.7-0.8,8.7-0.9,10.2-2.5c3.6-4.3,1.2-3.3,1-3.5
		c-0.2-0.2-32.2,4.5-32.2,4.5"/>
</g>
<g>
	<defs>
		<path id="SVGID_70_" d="M0,190.6c0,105.3,85.4,190.6,190.6,190.6c105.3,0,190.6-85.4,190.6-190.6C381.3,85.4,295.9,0,190.6,0
			C85.4,0,0,85.4,0,190.6"/>
	</defs>
	<clipPath id="SVGID_16_">
		<use xlink:href="#SVGID_70_"  style="overflow:visible;"/>
	</clipPath>
	<path style="clip-path:url(#SVGID_16_);fill:#DFCDB5;" d="M243,193.5c7.4-10.8,6.7-24.1,16.3-26.6c9.6-2.6,2.5,2.4,2.4,5.8
		c3.1-5.5,11.7-0.7,15.1,3c3.4,3.7-2.4,17.5-9.2,20.7c-6.8,3.2-8.7,6.9-11.1,6.7c-2.5-0.1-5.7-2.5-5.7-2.5L243,193.5z"/>
</g>
<g>
	<defs>
		<path id="SVGID_72_" d="M259.3,166.9c-9.6,2.5-8.9,15.9-16.3,26.6l7.8,7.1c0,0,3.2,2.4,5.7,2.5c2.5,0.1,4.4-3.6,11.1-6.7
			c6.8-3.2,12.6-17,9.2-20.7c-3.4-3.7-12-8.5-15.1-3c0.1-2.7,4.7-6.5,1.4-6.5C262.4,166.2,261.2,166.4,259.3,166.9"/>
	</defs>
	<clipPath id="SVGID_18_">
		<use xlink:href="#SVGID_72_"  style="overflow:visible;"/>
	</clipPath>
	<path style="clip-path:url(#SVGID_18_);fill:#D7B395;" d="M254.3,198.4c8.6,0.9,22.9-4.9,25.9-18.2c3-13.3,17.7,14.5,17.7,14.5
		s-30,19.7-31.4,19.2C265.1,213.4,254.3,198.4,254.3,198.4"/>
</g>
<g>
	<defs>
		<path id="SVGID_74_" d="M0,190.6c0,105.3,85.4,190.6,190.6,190.6c105.3,0,190.6-85.4,190.6-190.6C381.3,85.4,295.9,0,190.6,0
			C85.4,0,0,85.4,0,190.6"/>
	</defs>
	<clipPath id="SVGID_20_">
		<use xlink:href="#SVGID_74_"  style="overflow:visible;"/>
	</clipPath>
	
		<line style="clip-path:url(#SVGID_20_);fill:none;stroke:#FFFFFF;stroke-width:3.96;stroke-miterlimit:10;" x1="241.1" y1="192.1" x2="262" y2="203.5"/>
	<path style="clip-path:url(#SVGID_20_);fill:#00425D;" d="M111.1,257.5c1.2,15.4,1.2,74.5,0.6,80.8c-0.6,6.3-7.5,31-7.5,34.4
		c0,3.4,25.3-0.4,26.4-0.9c2.9-18.2,21.2-66.4,23.1-80.9c1.9,36.1,3.9,64,0,69.1c-3.9,5.1-3.1,9.3-1.1,11c1.9,1.7,22.2-0.8,27-1.3
		c4.8-0.6-2.9-5.1-1.6-11.4c1.4-6.3,3.8-95.6,1.9-101C163.6,253.5,111.1,257.5,111.1,257.5"/>
</g>
<g>
	<defs>
		<path id="SVGID_76_" d="M111.1,257.5c1.2,15.4,1.2,74.5,0.6,80.8c-0.4,3.9-3.2,14.9-5.2,23.5c7.8,3.8,15.9,7.2,24.2,9.9
			c2.9-18.2,21.2-66.4,23.1-80.9c1.9,36.1,3.9,64,0,69.1c-3.9,5.1-3.1,9.3-1.1,11c1.9,1.7,22.2-0.8,27-1.3c4.8-0.6-2.9-5.1-1.5-11.4
			c1.3-6.3,3.8-95.6,1.9-101c-5.1-1.1-13.8-1.5-23.2-1.5C135.9,255.6,111.1,257.5,111.1,257.5"/>
	</defs>
	<clipPath id="SVGID_22_">
		<use xlink:href="#SVGID_76_"  style="overflow:visible;"/>
	</clipPath>
	<path style="clip-path:url(#SVGID_22_);fill:none;stroke:#000000;stroke-width:7.9199;stroke-miterlimit:10;" d="M111,274.5
		c4.9,1.3,35,3.6,43,3.7c8,0.1,24.7-1.7,29.1-4.3"/>
	<rect x="151.5" y="276.3" style="clip-path:url(#SVGID_22_);fill:#CD8D52;" width="8" height="5.9"/>
	<path style="clip-path:url(#SVGID_22_);fill:#002F44;" d="M180.6,285.7c-1.2,11.3-2.2,75-5.8,76.8c-3.7,1.8-10.8,2.6-8.2,3.3
		c2.7,0.7,5.8-1,4.2,1.6c-1.7,2.6,2.1,4.2,6.2,3.3c4-0.9,11.3-1.6,12.5-3.4c1.2-1.8-4.3-83.9-4.3-83.9L180.6,285.7"/>
	<path style="clip-path:url(#SVGID_22_);fill:#002F44;" d="M153.7,291.3c-3.8,9.3-24.4,70.3-26.1,71.7c-1.8,1.5-7,2.8-5.1,3.2
		c1.9,0.4,2.6,1,1,1.6c-1.6,0.6-4.2,1.8-3.1,2c1.1,0.1,1.4,0.9-1,2.8c-2.4,1.9-4.1,2.9-5.9,3.6c-1.7,0.6,23.2-0.2,23.2,0
		c0,0.2,16.1-70.7,16.1-70.7"/>
</g>
<g>
	<defs>
		<path id="SVGID_78_" d="M0,190.6c0,105.3,85.4,190.6,190.6,190.6c105.3,0,190.6-85.4,190.6-190.6C381.3,85.4,295.9,0,190.6,0
			C85.4,0,0,85.4,0,190.6"/>
	</defs>
	<clipPath id="SVGID_24_">
		<use xlink:href="#SVGID_78_"  style="overflow:visible;"/>
	</clipPath>
	<path style="clip-path:url(#SVGID_24_);fill:#D7B395;" d="M129.1,168.9c1.8,8.8-0.5,21.7-1.9,24.1c-0.7,1.2,11.9,6.1,24.3,6.1
		c12-0.1,23.8-5,22.7-7.7c-2.1-5.4-5-11.8-6.4-21.6C166.3,160.1,129.1,168.9,129.1,168.9"/>
	<path style="clip-path:url(#SVGID_24_);fill:#008FD1;" d="M145.7,194.6c0.7-0.2,9.9-0.1,10.7-0.2c5.7-1.3,9.8-2,18-4
		c8.4-0.2,8,0.3,10.7,2.7c6,5.3,1.5,72-2.3,89.5c-4.9,2.3-15.5-2.4-28.3-5.7c-3.7,4.2-38.2,9.7-45,7.1c-0.5-13.7-13.4-88.3-6.5-91.1
		c6-2.5,16-2.1,24.2-1.9C138.4,193.3,145.7,194.6,145.7,194.6"/>
</g>
<g>
	<defs>
		<path id="SVGID_80_" d="M174.4,190.4c-8.2,1.9-12.2,2.7-18,4c-0.8,0.2-10,0.1-10.7,0.2c0,0-7.3-1.3-18.5-3.8
			c-8.2-0.2-18.2-0.5-24.2,1.9c-7,2.9,5.9,77.4,6.5,91.1c6.8,2.6,41.3-2.9,45-7.1c12.7,3.4,23.4,8,28.3,5.7
			c3.8-17.5,8.3-84.2,2.3-89.5c-2.4-2.1-2.4-2.7-7.7-2.7C176.6,190.4,175.5,190.4,174.4,190.4"/>
	</defs>
	<clipPath id="SVGID_26_">
		<use xlink:href="#SVGID_80_"  style="overflow:visible;"/>
	</clipPath>
	<polygon style="clip-path:url(#SVGID_26_);fill:#006E9F;" points="127.2,190.9 129.9,204.1 135.9,205.1 136,209.1 151,214.4 
		128.8,190.4 	"/>
	<polygon style="clip-path:url(#SVGID_26_);fill:#006E9F;" points="174.7,190.9 172,204.1 166.1,205.1 165.9,209.1 151,214.4 
		173.2,190.4 	"/>
	<path style="clip-path:url(#SVGID_26_);fill:#FFFFFF;" d="M126.5,189c2.8,5.6,24.4,25.4,24.4,25.4c4.5-2.9,22.9-22,23.6-26.1
		C175.4,184.1,126.5,189,126.5,189"/>
</g>
<g>
	<defs>
		<path id="SVGID_82_" d="M156.4,194.4c-0.8,0.2-10,0.1-10.7,0.2c0,0-7.1-1.3-17.9-3.6c5.4,7.3,23.2,23.4,23.2,23.4
			c3.9-2.6,18.3-17.2,22.5-23.8C165.9,192.4,161.9,193.1,156.4,194.4"/>
	</defs>
	<clipPath id="SVGID_28_">
		<use xlink:href="#SVGID_82_"  style="overflow:visible;"/>
	</clipPath>
	<polygon style="clip-path:url(#SVGID_28_);fill:#822927;" points="153.6,198.8 148.3,198.8 140.3,192.4 161.6,192.4 	"/>
	<polygon style="clip-path:url(#SVGID_28_);fill:#822927;" points="160.5,238.3 141.5,238.3 148.3,198.8 153.6,198.8 	"/>
</g>
<g>
	<defs>
		<path id="SVGID_84_" d="M132.1,193.9v2c2.3,2.5,5.1,5.3,7.8,7.9h7.5v-9.3c-0.8,0-1.5,0-1.6,0.1c0,0-1.3-0.2-3.7-0.7H132.1z"/>
	</defs>
	<clipPath id="SVGID_30_">
		<use xlink:href="#SVGID_84_"  style="overflow:visible;"/>
	</clipPath>
	<path class="st47" d="M143.4,194.8l-4.8,1.1l-4.4,2.2c1.3,1.3,2.6,2.6,3.9,4l6.9-6L143.4,194.8"/>
	<path class="st48" d="M144.9,194.5l-1.5,0.3l1.5,1.2l1.7-1.5c0,0-0.1,0-0.1,0c-0.4,0-0.7,0-0.8,0.1c0,0,0,0,0,0
		C145.7,194.6,145.4,194.6,144.9,194.5"/>
</g>
<g>
	<defs>
		<path id="SVGID_86_" d="M156.4,194.4c-0.8,0.2-10,0.1-10.7,0.2c0,0-7.1-1.3-17.9-3.6c5.4,7.3,23.2,23.4,23.2,23.4
			c3.9-2.6,18.3-17.2,22.5-23.8C165.9,192.4,161.9,193.1,156.4,194.4"/>
	</defs>
	<clipPath id="SVGID_32_">
		<use xlink:href="#SVGID_86_"  style="overflow:visible;"/>
	</clipPath>
	<polygon class="st49" points="146.1,194.6 135.8,202.2 123.6,190.4 134.4,190.4 	"/>
</g>
<g>
	<defs>
		<path id="SVGID_88_" d="M158.4,193.9c-0.6,0.1-1.3,0.3-2,0.4c-0.2,0-0.8,0.1-1.6,0.1v9.4h7.5c2.8-2.9,5.6-6,7.8-8.7v-1.2H158.4z"
			/>
	</defs>
	<clipPath id="SVGID_34_">
		<use xlink:href="#SVGID_88_"  style="overflow:visible;"/>
	</clipPath>
	<path style="clip-path:url(#SVGID_34_);fill:#F4F4F4;" d="M158.6,194.8l-1.5,1.2l6.9,6c1.3-1.4,2.5-2.7,3.7-4.1l-4.1-2.1
		L158.6,194.8"/>
	<path style="clip-path:url(#SVGID_34_);fill:#7C2724;" d="M156.6,194.3c-0.1,0-0.1,0-0.2,0c-0.1,0-0.5,0-1,0.1l1.8,1.5l1.5-1.2
		L156.6,194.3"/>
</g>
<g>
	<defs>
		<path id="SVGID_90_" d="M156.4,194.4c-0.8,0.2-10,0.1-10.7,0.2c0,0-7.1-1.3-17.9-3.6c5.4,7.3,23.2,23.4,23.2,23.4
			c3.9-2.6,18.3-17.2,22.5-23.8C165.9,192.4,161.9,193.1,156.4,194.4"/>
	</defs>
	<clipPath id="SVGID_36_">
		<use xlink:href="#SVGID_90_"  style="overflow:visible;"/>
	</clipPath>
	<polygon style="clip-path:url(#SVGID_36_);fill:#FFFFFF;" points="156.1,194.2 166.3,202.2 178.6,190.4 167.7,190.4 	"/>
</g>
<g>
	<defs>
		<path id="SVGID_92_" d="M174.4,190.4c-8.2,1.9-12.2,2.7-18,4c-0.8,0.2-10,0.1-10.7,0.2c0,0-7.3-1.3-18.5-3.8
			c-8.2-0.2-18.2-0.5-24.2,1.9c-7,2.9,5.9,77.4,6.5,91.1c6.8,2.6,41.3-2.9,45-7.1c12.7,3.4,23.4,8,28.3,5.7
			c3.8-17.5,8.3-84.2,2.3-89.5c-2.4-2.1-2.4-2.7-7.7-2.7C176.6,190.4,175.5,190.4,174.4,190.4"/>
	</defs>
	<clipPath id="SVGID_37_">
		<use xlink:href="#SVGID_92_"  style="overflow:visible;"/>
	</clipPath>
	<path style="clip-path:url(#SVGID_37_);fill:#006E9F;" d="M187.6,224.1c-7,14.2-4.4,46.1-25.1,55.6c-20.3,9.4-28.3,21.1-2.8,23.7
		c24.4,2.5,31.3-14.6,32.2-15.3c1.8-1.5,9.9-65.8,9.9-65.8L187.6,224.1z"/>
	<path style="clip-path:url(#SVGID_37_);fill:#006E9F;" d="M153.9,221.7c2.1,6.3,5.8,51.8,4.1,53.8c-1.7,2-4.8,3.4-4.7,0.6
		C153.4,274.1,153.9,221.7,153.9,221.7"/>
</g>
<g>
	<defs>
		<path id="SVGID_94_" d="M132.5,283.1L132.5,283.1c9.7-1.5,19.2-3.8,21.7-5.9c1.7-6.8,0.4-48.1-0.4-56.5
			C153.6,233.5,140.5,271.7,132.5,283.1"/>
	</defs>
	<clipPath id="SVGID_39_">
		<use xlink:href="#SVGID_94_"  style="overflow:visible;"/>
	</clipPath>
	
		<linearGradient id="SVGID_41_" gradientUnits="userSpaceOnUse" x1="-540.468" y1="759.9422" x2="-539.468" y2="759.9422" gradientTransform="matrix(-4.9795 -1.431 -1.4574 4.8891 -1427.1072 -4233.4097)">
		<stop  offset="0" style="stop-color:#399AD6"/>
		<stop  offset="0.4867" style="stop-color:#1B94D3"/>
		<stop  offset="1" style="stop-color:#008FD1"/>
	</linearGradient>
	<polygon style="clip-path:url(#SVGID_39_);fill:url(#SVGID_41_);" points="154,289.2 115.4,278.1 134.4,214.5 173,225.6 	"/>
</g>
<g>
	<defs>
		<path id="SVGID_97_" d="M0,190.6c0,105.3,85.4,190.6,190.6,190.6c105.3,0,190.6-85.4,190.6-190.6C381.3,85.4,295.9,0,190.6,0
			C85.4,0,0,85.4,0,190.6"/>
	</defs>
	<clipPath id="SVGID_43_">
		<use xlink:href="#SVGID_97_"  style="overflow:visible;"/>
	</clipPath>
	<path style="clip-path:url(#SVGID_43_);fill:#008FD1;" d="M216.3,244.5c-1.8,0-3.5-0.3-5.1-1c-7.3-3.1-40.6-31.1-40.9-31.4
		l13.6-19.9c7.7,6.5,25.7,21.5,33.4,27.2c5.4-4,15.2-13.5,23.4-27.1l20.6,12C254.6,215.6,233.1,244.5,216.3,244.5"/>
</g>
<g>
	<defs>
		<path id="SVGID_99_" d="M170.2,212.1c0.3,0.3,33.6,28.3,40.9,31.4c1.6,0.7,3.4,1,5.1,1c16.9,0,38.3-28.9,45.1-40.2l-20.6-12
			c-8.2,13.6-18,23.1-23.4,27.1c-7.8-5.8-25.8-20.7-33.4-27.2L170.2,212.1z"/>
	</defs>
	<clipPath id="SVGID_45_">
		<use xlink:href="#SVGID_99_"  style="overflow:visible;"/>
	</clipPath>
	<path style="clip-path:url(#SVGID_45_);fill:#006E9F;" d="M197.4,235.3c28.3,15.4,55.1-13.4,66.6-38.3c11.5-24.8,14,34.2,14,34.2
		s-63.4,35.3-64.1,35.5L197.4,235.3z"/>
</g>
<g>
	<defs>
		<path id="SVGID_101_" d="M0,190.6c0,105.3,85.4,190.6,190.6,190.6c105.3,0,190.6-85.4,190.6-190.6C381.3,85.4,295.9,0,190.6,0
			C85.4,0,0,85.4,0,190.6"/>
	</defs>
	<clipPath id="SVGID_47_">
		<use xlink:href="#SVGID_101_"  style="overflow:visible;"/>
	</clipPath>
	<path style="clip-path:url(#SVGID_47_);fill:#DFCDB5;" d="M73.6,43.4c-3.8,27.2,10.1,97.1,24,118.7c12,18.6,38.4,25.3,69.9,26.5
		c32.6,1.2,67.9-24.5,72.9-64.7c5-40.2,5.5-90.7,0.6-100.5C236.2,13.4,81.6-14.5,73.6,43.4"/>
</g>
<g>
	<defs>
		<path id="SVGID_103_" d="M134.3,8.5c-21.9,6.8-42.2,17.4-59.9,31.1c-0.3,1.2-0.6,2.5-0.8,3.8c-3.8,27.2,10.1,97.1,24,118.7
			c12,18.6,38.4,25.3,69.9,26.5c32.6,1.2,67.9-24.5,72.9-64.7c5-40.2,5.5-90.7,0.6-100.5c-2.6-5.2-46.9-15.4-89.3-15.4
			C145.9,7.8,140,8,134.3,8.5"/>
	</defs>
	<clipPath id="SVGID_49_">
		<use xlink:href="#SVGID_103_"  style="overflow:visible;"/>
	</clipPath>
	<path style="clip-path:url(#SVGID_49_);fill:#D9BBA0;" d="M238.1,134.4c-11.9,19.9-37.4,48.6-73.7,51.9
		c-36.3,3.3-53.8-6.6-62.8-12.2c-9-5.6-23.3,23.9-21.7,25.1c1.7,1.2,193.3,1.1,192.2,1.3c-1.1,0.2-16.7-79-16.7-79L238.1,134.4z"/>
	<path style="clip-path:url(#SVGID_49_);fill:#D7B395;" d="M96.9-4.4c33.3-5.9,49.3-0.7,63.3,9.2c17.3-7.2,63.3-11.3,78.6,14.6
		c15.3,25.9,18.2,50,14.4,59.8c-3.8,9.8-59-1.3-64.3-25.7c2.7,10.2,3.3,17.4,6.3,22.7c0.5,0.9-1.8,3.6-2.6,3.3
		c-12.7-4.7-41.4-19.2-47.9-31.7c-2.2,14.4-11.5,28.8-26.6,31.7c-5.7,1.1-38,4.1-36.5,2.4c0.2,4.3-3.7,26.1-5.7,27.1
		c-1.5,0.8-1.2-3.7-1.9-11c-2.6,3.3,0.2,9.7-1.1,11c-3.3,3.3-1.5,9-1.5,9S54.3,115.3,54.3,78C54.3,40.7,63.6,1.5,96.9-4.4"/>
</g>
<g>
	<defs>
		<path id="SVGID_105_" d="M0,190.6c0,105.3,85.4,190.6,190.6,190.6c105.3,0,190.6-85.4,190.6-190.6C381.3,85.4,295.9,0,190.6,0
			C85.4,0,0,85.4,0,190.6"/>
	</defs>
	<clipPath id="SVGID_51_">
		<use xlink:href="#SVGID_105_"  style="overflow:visible;"/>
	</clipPath>
	<path class="st64" d="M156.2-7c17.3-7.2,63.3-11.3,78.6,14.6c15.3,25.9,21.2,68.3,17.4,78.1c-3.8,9.8-55.9-15-64.6-34.7
		c2.7,10.2,4.6,19.9,7.6,25.1c0.5,0.9-0.2,2-1,1.7c-12.7-4.6-43-17.6-49.5-30.1c-2.2,14.4-29.9,28.9-48.5,30.2
		c-18.6,1.3-20,19.7-23.3,23s-5.5,5.3-5.5,5.3s-13.2,1.1-13.2-36.1c0-37.3,11.8-69.1,45.1-75C132.7-10.7,142.2-16.8,156.2-7"/>
</g>
<g>
	<defs>
		<path id="SVGID_107_" d="M54.8,56.8c-0.4,4.3-0.5,8.8-0.5,13.3c0,37.3,13.2,36.1,13.2,36.1s2.2-2,5.5-5.3
			c3.3-3.3,4.6-21.7,23.3-23c18.6-1.3,46.3-15.9,48.5-30.2c6.4,12.5,36.8,25.4,49.5,30.1c0.8,0.3,1.5-0.8,1-1.7
			c-3-5.3-4.9-14.9-7.6-25.1c8.7,19.6,60.8,44.5,64.6,34.7c3.8-9.8-2.1-52.2-17.4-78.1c-0.6-1-1.3-2-1.9-2.9
			C219.3,1.6,205.1,0,190.6,0C137.5,0,89.4,21.8,54.8,56.8"/>
	</defs>
	<clipPath id="SVGID_53_">
		<use xlink:href="#SVGID_107_"  style="overflow:visible;"/>
	</clipPath>
	<path style="clip-path:url(#SVGID_53_);fill:#86605A;" d="M250,48.8c-9.6-30.4-50.2-65.4-74.4-57.1c-24.3,8.2-59.1,8.2-67.7,8.2
		C99.1-0.1,63.9,16,50.3,44C36.6,72,24.7-31.9,24.7-31.9l234.8-32.7L250,48.8z"/>
	<path style="clip-path:url(#SVGID_53_);fill:#624842;" d="M253.2,79.5C250,82.6,199,69.2,188.3,51c1,8.2,23.5,30.1,41.8,35.4
		c18.3,5.3,22.3,2.7,23.1,1.9C254.1,87.5,253.2,79.5,253.2,79.5"/>
	<path style="clip-path:url(#SVGID_53_);fill:#624842;" d="M196.2,75.7c-4.1-0.3-44.5-18.6-51.4-28c1.6,11.3,48.3,35.8,50.1,34.5
		C196.6,81,196.2,75.7,196.2,75.7"/>
	<path style="clip-path:url(#SVGID_53_);fill:#624842;" d="M133.3,68.9c-7.2,5.1-37.2,7-48.2,9.4c-5.5,1.2-10.1,25.5-15.4,20.9
		c5.5,4.7-21.3-34.3-18-56.7c3.2-21.3-31.1,32.9-31.1,32.9s30.6,42.3,32,42.3c1.3,0,24.3-2,25.9-2.3
		C79.9,115.1,133.3,68.9,133.3,68.9"/>
</g>
<g>
	<defs>
		<path id="SVGID_109_" d="M0,190.6c0,105.3,85.4,190.6,190.6,190.6c105.3,0,190.6-85.4,190.6-190.6C381.3,85.4,295.9,0,190.6,0
			C85.4,0,0,85.4,0,190.6"/>
	</defs>
	<clipPath id="SVGID_55_">
		<use xlink:href="#SVGID_109_"  style="overflow:visible;"/>
	</clipPath>
	<path style="clip-path:url(#SVGID_55_);fill:#D7B395;" d="M82.4,89.8c-4.3-4-7.8,0.5-7.8,13.1c0,12.6,12.6,30.4,11.7,21l-1-9.4"/>
	<path style="clip-path:url(#SVGID_55_);fill:none;stroke:#3C2B27;stroke-width:3.96;stroke-miterlimit:10;" d="M167.8,101.3
		c0.5-5.6-3.8-10.7-9.6-11.1c-5.7-0.5-10.9,3.7-11.3,9.4"/>
	<path style="clip-path:url(#SVGID_55_);fill:none;stroke:#3C2B27;stroke-width:3.96;stroke-miterlimit:10;" d="M218.9,105.6
		c0.5-5.6-3.8-10.7-9.6-11.1c-5.7-0.5-10.9,3.7-11.3,9.4"/>
	
		<path style="clip-path:url(#SVGID_55_);fill:none;stroke:#AD9175;stroke-width:3.96;stroke-linecap:round;stroke-miterlimit:10;" d="
		M192.4,123.1c-3.8,2.2-15.7,0.7-17.3-2.2"/>
	<path style="clip-path:url(#SVGID_55_);fill:#6E504A;" d="M77.7,83.5c5.1,4.1,7.7,23.1,9.5,21.4c1.8-1.7,1-22-0.6-23.8
		C85,79.4,77.7,83.5,77.7,83.5"/>
	<path style="clip-path:url(#SVGID_55_);fill:#006E9F;" d="M152.9,231.6c0,1.2-1,2.1-2.1,2.1c-1.2,0-2.1-0.9-2.1-2.1
		c0-1.1,0.9-2.1,2.1-2.1C151.9,229.5,152.9,230.4,152.9,231.6"/>
	<path style="clip-path:url(#SVGID_55_);fill:#006E9F;" d="M152.9,251.2c0,1.2-1,2.1-2.1,2.1c-1.2,0-2.1-0.9-2.1-2.1
		c0-1.1,0.9-2.1,2.1-2.1C151.9,249.1,152.9,250,152.9,251.2"/>
	<path style="clip-path:url(#SVGID_55_);fill:#D7B395;" d="M77.6,153.7c-0.2-2.4,2.3-12.8,5.9-14.5c3.6-1.7,5.6,1.8,4.1,5.6
		c-1.5,3.9-1.7,8.3-3.4,8.9C82.5,154.3,77.6,153.7,77.6,153.7"/>
	<polygon style="clip-path:url(#SVGID_55_);fill:#191918;" points="96.7,137.3 107.3,116.9 87.5,111.2 79,125.5 	"/>
	<path style="clip-path:url(#SVGID_55_);fill:#282827;" d="M64.2,115.9c-1.7-3.4,5.4-14.7,9.2-16.2c7.1,10.2,35,50.2,47,53.8
		c12,3.6,10.3,2.5,12.2,1.4c1.8-1.1,8.3,2.5,11.6,5.2c3.6,2.9,11.4,9.5,12.4,10.5c1,1-9.9,16.2-12.7,18.3c-4.1,3-4.1,3.4-9,1.1
		C129.8,187.6,86.8,162.5,64.2,115.9"/>
	<path style="clip-path:url(#SVGID_55_);fill:#252524;" d="M91.9,97.8c0,0-18.4,0.5-18.7,2.1c-0.3,1.6,17.8,24,17.8,24l16.3-7
		L91.9,97.8z"/>
	<path style="clip-path:url(#SVGID_55_);fill:#DFCDB5;" d="M75.5,165.6c3.3-6.3,1.3-9.1,1.6-11.3c0.4-2.3,2.6-4.4,10-8.2
		c9.9-5,12-1.4,12.3,1c8-0.4,4.2,2.6,9.3,4.2c4.2,1.3,6.2,1.3-0.1,13.5c-6.3,12.2-10.7,8.6-13,11.3c-1.1,1.4-4.2,1.2-7.9-0.4
		c-7.6-3.3-10.7-4.8-10-6C78.6,168.5,74.2,168.3,75.5,165.6"/>
</g>
<g>
	<defs>
		<path id="SVGID_111_" d="M87.2,146.1c-7.4,3.8-9.7,5.9-10,8.2c-0.4,2.3,1.6,5-1.6,11.3c-1.4,2.7,3.1,2.9,2.4,4.2
			c-0.7,1.2,2.3,2.7,10,6c3.7,1.6,6.8,1.7,7.9,0.4c2.2-2.7,6.6,0.9,13-11.3c6.3-12.2,4.3-12.2,0.1-13.5c-5.1-1.6-1.3-4.5-9.3-4.2
			c-0.2-1.5-1.1-3.5-4.3-3.5C93.4,143.6,90.8,144.3,87.2,146.1"/>
	</defs>
	<clipPath id="SVGID_57_">
		<use xlink:href="#SVGID_111_"  style="overflow:visible;"/>
	</clipPath>
	<path style="clip-path:url(#SVGID_57_);fill:#D7B395;" d="M65.4,193.2c13.2-3.2,29.6-6.3,36.5-18.9c6.9-12.6,17.2-21.1,17.2-21.1
		s-20,58.5-21,58.6C97,211.9,65.4,193.2,65.4,193.2"/>
</g>
<g>
	<defs>
		<path id="SVGID_113_" d="M0,190.6c0,105.3,85.4,190.6,190.6,190.6c105.3,0,190.6-85.4,190.6-190.6C381.3,85.4,295.9,0,190.6,0
			C85.4,0,0,85.4,0,190.6"/>
	</defs>
	<clipPath id="SVGID_59_">
		<use xlink:href="#SVGID_113_"  style="overflow:visible;"/>
	</clipPath>
	
		<line style="clip-path:url(#SVGID_59_);fill:none;stroke:#FFFFFF;stroke-width:3.96;stroke-miterlimit:10;" x1="74.7" y1="166.9" x2="95.4" y2="177.2"/>
	<path style="clip-path:url(#SVGID_59_);fill:none;stroke:#008FD1;stroke-width:23.7598;stroke-miterlimit:10;" d="M107.9,203.5
		c-16.2,5.5-43.2,22.3-47,19.1c-3.3-2.8,21.8-45.6,24.3-50.4"/>
	<path style="clip-path:url(#SVGID_59_);fill:#DFCDB5;" d="M253.7,170.7c8.6-14.1,13.4-19.2,17-18c2.9,0.9-4,12.6-5,17.8
		C264.8,175.5,253.7,170.7,253.7,170.7"/>
	<path style="clip-path:url(#SVGID_59_);fill:#DFCDB5;" d="M263.5,172.8c2.8-4.6,2.6-5.5,6.1-4.9c3.5,0.6,3.1,3.8,2.2,9
		C270.8,182,263.5,172.8,263.5,172.8"/>
	<path style="clip-path:url(#SVGID_59_);fill:#DFCDB5;" d="M269.7,175.9c2.4-3.7,2.9-5.3,6.1-3.9c3.3,1.5,3.1,5,2,9.2
		C276.5,186.2,269.7,175.9,269.7,175.9"/>
	<path style="clip-path:url(#SVGID_59_);fill:none;stroke:#3C2B27;stroke-width:3.96;stroke-miterlimit:10;" d="M148.6,141.6
		c3.9,13,16.2,20.9,32.6,20.9c6.2,0,16.6-1.9,20.9-11.4"/>
	<path style="clip-path:url(#SVGID_59_);fill:#F4F4F4;" d="M128.8,273.6l4.5,12.5c-2.6,2.3-8.5,5.2-17.3,6l-4.5-12.5L128.8,273.6z"
		/>
</g>
<g>
	<defs>
		<rect id="SVGID_115_" x="-540.5" y="-320" width="1920" height="1080"/>
	</defs>
	<clipPath id="SVGID_61_">
		<use xlink:href="#SVGID_115_"  style="overflow:visible;"/>
	</clipPath>
</g>
<g>
	<defs>
		<rect id="SVGID_117_" x="-540.5" y="-320" width="1920" height="1080"/>
	</defs>
	<clipPath id="SVGID_63_">
		<use xlink:href="#SVGID_117_"  style="overflow:visible;"/>
	</clipPath>
</g>
</svg>
