<?xml version="1.0" encoding="UTF-8" standalone="no"?>
<!-- Generator: Adobe Illustrator 19.1.1, SVG Export Plug-In . SVG Version: 6.00 Build 0)  -->

<svg
   xmlns:dc="http://purl.org/dc/elements/1.1/"
   xmlns:cc="http://creativecommons.org/ns#"
   xmlns:rdf="http://www.w3.org/1999/02/22-rdf-syntax-ns#"
   xmlns:svg="http://www.w3.org/2000/svg"
   xmlns="http://www.w3.org/2000/svg"
   xmlns:xlink="http://www.w3.org/1999/xlink"
   xmlns:sodipodi="http://sodipodi.sourceforge.net/DTD/sodipodi-0.dtd"
   xmlns:inkscape="http://www.inkscape.org/namespaces/inkscape"
   version="1.1"
   id="Layer_1"
   x="0px"
   y="0px"
   viewBox="0 0 381.3 381.3"
   style="enable-background:new 0 0 381.3 381.3;"
   xml:space="preserve"
   inkscape:version="0.91 r13725"
   sodipodi:docname="test2-03.svg"><metadata
     id="metadata211"><rdf:RDF><cc:Work
         rdf:about=""><dc:format>image/svg+xml</dc:format><dc:type
           rdf:resource="http://purl.org/dc/dcmitype/StillImage" /><dc:title></dc:title></cc:Work></rdf:RDF></metadata><defs
     id="defs209" /><sodipodi:namedview
     pagecolor="#ffffff"
     bordercolor="#666666"
     borderopacity="1"
     objecttolerance="10"
     gridtolerance="10"
     guidetolerance="10"
     inkscape:pageopacity="0"
     inkscape:pageshadow="2"
     inkscape:window-width="998"
     inkscape:window-height="822"
     id="namedview207"
     showgrid="false"
     inkscape:zoom="0.30946762"
     inkscape:cx="152.26097"
     inkscape:cy="364.26403"
     inkscape:window-x="2739"
     inkscape:window-y="296"
     inkscape:window-maximized="0"
     inkscape:current-layer="Layer_1" /><style
     type="text/css"
     id="style3">
	.st0{clip-path:url(#SVGID_2_);fill:#92B43A;}
	.st1{clip-path:url(#SVGID_2_);fill:#DFCDB5;}
	.st2{clip-path:url(#SVGID_2_);fill:#006E9F;}
	.st3{clip-path:url(#SVGID_2_);fill:#EAEAEA;}
	.st4{clip-path:url(#SVGID_2_);fill:#C3C3C3;}
	.st5{clip-path:url(#SVGID_2_);fill:#006591;}
	.st6{clip-path:url(#SVGID_2_);fill:#008FD1;}
	.st7{clip-path:url(#SVGID_2_);fill:#FFFFFF;}
	.st8{clip-path:url(#SVGID_2_);fill:#191918;}
	.st9{clip-path:url(#SVGID_2_);fill:#282827;}
	.st10{clip-path:url(#SVGID_2_);fill:#252524;}
	.st11{clip-path:url(#SVGID_2_);fill:#D7B395;}
	.st12{clip-path:url(#SVGID_2_);fill:none;stroke:#00425D;stroke-width:12.107;stroke-miterlimit:10;}
	.st13{clip-path:url(#SVGID_2_);fill:#00425D;}
	.st14{clip-path:url(#SVGID_4_);fill:#006E9F;}
	.st15{clip-path:url(#SVGID_6_);fill:#92B43A;}
	.st16{clip-path:url(#SVGID_6_);fill:#EAEAEA;}
	.st17{clip-path:url(#SVGID_6_);fill:#C3C3C3;}
	.st18{clip-path:url(#SVGID_6_);fill:#006591;}
	.st19{clip-path:url(#SVGID_6_);fill:#008FD1;}
	.st20{clip-path:url(#SVGID_6_);fill:#006E9F;}
	.st21{clip-path:url(#SVGID_6_);fill:#FFFFFF;}
	.st22{clip-path:url(#SVGID_6_);fill:#191918;}
	.st23{clip-path:url(#SVGID_6_);fill:#282827;}
	.st24{clip-path:url(#SVGID_6_);fill:#252524;}
	.st25{clip-path:url(#SVGID_6_);fill:none;stroke:#000000;stroke-width:2.3841;stroke-miterlimit:10;}
	.st26{clip-path:url(#SVGID_8_);fill:#92B43A;}
	.st27{clip-path:url(#SVGID_8_);fill:none;stroke:#008FD1;stroke-width:16.3815;stroke-miterlimit:10;}
	.st28{clip-path:url(#SVGID_8_);fill:#624842;}
	.st29{clip-path:url(#SVGID_8_);fill:#6C852C;}
	.st30{clip-path:url(#SVGID_8_);fill:#6E504A;}
	.st31{clip-path:url(#SVGID_10_);fill:#624842;}
	.st32{clip-path:url(#SVGID_12_);fill:#6E504A;}
	.st33{clip-path:url(#SVGID_14_);fill:#624842;}
	.st34{clip-path:url(#SVGID_16_);fill:#00425D;}
	.st35{clip-path:url(#SVGID_18_);fill:none;stroke:#000000;stroke-width:5.4605;stroke-miterlimit:10;}
	.st36{clip-path:url(#SVGID_18_);fill:#CD8D52;}
	.st37{clip-path:url(#SVGID_18_);fill:#002F44;}
	.st38{clip-path:url(#SVGID_20_);fill:#D7B395;}
	.st39{clip-path:url(#SVGID_20_);fill:#008FD1;}
	.st40{clip-path:url(#SVGID_22_);fill:#006E9F;}
	.st41{clip-path:url(#SVGID_22_);fill:#FFFFFF;}
	.st42{clip-path:url(#SVGID_24_);fill:#822927;}
	.st43{clip-path:url(#SVGID_26_);fill:#006998;}
	.st44{clip-path:url(#SVGID_26_);fill:#F4F4F4;}
	.st45{clip-path:url(#SVGID_26_);fill:#7C2724;}
	.st46{clip-path:url(#SVGID_28_);fill:#FFFFFF;}
	.st47{clip-path:url(#SVGID_30_);fill:#F4F4F4;}
	.st48{clip-path:url(#SVGID_30_);fill:#7C2724;}
	.st49{clip-path:url(#SVGID_32_);fill:#FFFFFF;}
	.st50{clip-path:url(#SVGID_34_);fill:#006E9F;}
	.st51{clip-path:url(#SVGID_36_);fill:url(#SVGID_37_);}
	.st52{clip-path:url(#SVGID_39_);fill:#DFCDB5;}
	.st53{clip-path:url(#SVGID_41_);fill:#D9BBA0;}
	.st54{clip-path:url(#SVGID_41_);fill:#D7B395;}
	.st55{clip-path:url(#SVGID_43_);fill:#6E504A;}
	.st56{clip-path:url(#SVGID_45_);fill:#86605A;}
	.st57{clip-path:url(#SVGID_45_);fill:#624842;}
	.st58{clip-path:url(#SVGID_47_);fill:#D7B395;}
	.st59{clip-path:url(#SVGID_47_);fill:#3C2B27;}
	.st60{clip-path:url(#SVGID_47_);fill:none;stroke:#AD9175;stroke-width:2.7302;stroke-linecap:round;stroke-miterlimit:10;}
	.st61{clip-path:url(#SVGID_47_);fill:#6B222C;}
	.st62{clip-path:url(#SVGID_49_);fill:#822927;}
	.st63{clip-path:url(#SVGID_49_);fill:#FFFFFF;}
	.st64{clip-path:url(#SVGID_51_);fill:#6E504A;}
	.st65{clip-path:url(#SVGID_51_);fill:#006E9F;}
	.st66{clip-path:url(#SVGID_51_);fill:#D7B395;}
	.st67{clip-path:url(#SVGID_51_);fill:#191918;}
	.st68{clip-path:url(#SVGID_51_);fill:#282827;}
	.st69{clip-path:url(#SVGID_51_);fill:#252524;}
	.st70{clip-path:url(#SVGID_51_);fill:#DFCDB5;}
	.st71{clip-path:url(#SVGID_53_);fill:#D7B395;}
	.st72{clip-path:url(#SVGID_55_);fill:none;stroke:#FFFFFF;stroke-width:2.7302;stroke-miterlimit:10;}
	.st73{clip-path:url(#SVGID_55_);fill:none;stroke:#008FD1;stroke-width:16.3815;stroke-miterlimit:10;}
	.st74{clip-path:url(#SVGID_55_);fill:none;stroke:#624842;stroke-width:2.7302;stroke-miterlimit:10;}
	.st75{clip-path:url(#SVGID_55_);fill:#FFF491;}
	.st76{clip-path:url(#SVGID_55_);fill:none;stroke:#ECBD32;stroke-width:4.4203;}
	.st77{clip-path:url(#SVGID_55_);fill:none;stroke:#A8A8A8;stroke-width:2.7302;stroke-linecap:round;}
	.st78{clip-path:url(#SVGID_55_);fill:none;stroke:#959595;stroke-width:2.7302;stroke-linecap:round;}
	.st79{clip-path:url(#SVGID_55_);fill:none;stroke:#6F6F6E;stroke-width:2.7302;stroke-linecap:round;}
	.st80{clip-path:url(#SVGID_55_);fill:none;stroke:#5F5F5E;stroke-width:2.7302;stroke-linecap:round;}
	.st81{clip-path:url(#SVGID_55_);fill:#FFFFFF;}
	.st82{clip-path:url(#SVGID_55_);fill:none;stroke:#000000;stroke-width:2.7302;stroke-miterlimit:10;}
	.st83{clip-path:url(#SVGID_55_);}
	.st84{clip-path:url(#SVGID_55_);fill:#F4F4F4;}
	.st85{clip-path:url(#SVGID_57_);fill:#92B43A;}
	.st86{clip-path:url(#SVGID_57_);fill:#EAEAEA;}
	.st87{clip-path:url(#SVGID_57_);fill:#C3C3C3;}
	.st88{clip-path:url(#SVGID_57_);fill:#006591;}
	.st89{clip-path:url(#SVGID_57_);fill:#008FD1;}
	.st90{clip-path:url(#SVGID_57_);fill:#006E9F;}
	.st91{clip-path:url(#SVGID_57_);fill:#FFFFFF;}
	.st92{clip-path:url(#SVGID_57_);fill:#191918;}
	.st93{clip-path:url(#SVGID_57_);fill:#282827;}
	.st94{clip-path:url(#SVGID_57_);fill:#252524;}
	.st95{clip-path:url(#SVGID_57_);fill:#6C852C;}
	.st96{clip-path:url(#SVGID_59_);fill:#00577F;}
	.st97{clip-path:url(#SVGID_59_);fill:#9C9B9B;}
	.st98{clip-path:url(#SVGID_61_);fill:#D7B395;}
	.st99{clip-path:url(#SVGID_61_);fill:#624842;}
	.st100{clip-path:url(#SVGID_61_);fill:#6C852C;}
	.st101{clip-path:url(#SVGID_61_);fill:#6E504A;}
	.st102{clip-path:url(#SVGID_63_);}
	.st103{clip-path:url(#SVGID_65_);fill:#624842;}
	.st104{clip-path:url(#SVGID_67_);fill:#6E504A;}
	.st105{clip-path:url(#SVGID_69_);fill:#624842;}
	.st106{clip-path:url(#SVGID_71_);fill:#DFCDB5;}
	.st107{clip-path:url(#SVGID_73_);fill:#D7B395;}
	.st108{clip-path:url(#SVGID_75_);fill:none;stroke:#FFFFFF;stroke-width:3.96;stroke-miterlimit:10;}
	.st109{clip-path:url(#SVGID_75_);fill:#00425D;}
	.st110{clip-path:url(#SVGID_77_);fill:none;stroke:#000000;stroke-width:7.9199;stroke-miterlimit:10;}
	.st111{clip-path:url(#SVGID_77_);fill:#CD8D52;}
	.st112{clip-path:url(#SVGID_77_);fill:#002F44;}
	.st113{clip-path:url(#SVGID_79_);fill:#D7B395;}
	.st114{clip-path:url(#SVGID_79_);fill:#008FD1;}
	.st115{clip-path:url(#SVGID_81_);fill:#006E9F;}
	.st116{clip-path:url(#SVGID_81_);fill:#FFFFFF;}
	.st117{clip-path:url(#SVGID_83_);fill:#822927;}
	.st118{clip-path:url(#SVGID_85_);fill:#F4F4F4;}
	.st119{clip-path:url(#SVGID_85_);fill:#7C2724;}
	.st120{clip-path:url(#SVGID_87_);fill:#FFFFFF;}
	.st121{clip-path:url(#SVGID_89_);fill:#F4F4F4;}
	.st122{clip-path:url(#SVGID_89_);fill:#7C2724;}
	.st123{clip-path:url(#SVGID_91_);fill:#FFFFFF;}
	.st124{clip-path:url(#SVGID_93_);fill:#006E9F;}
	.st125{clip-path:url(#SVGID_95_);fill:url(#SVGID_96_);}
	.st126{clip-path:url(#SVGID_98_);fill:#008FD1;}
	.st127{clip-path:url(#SVGID_100_);fill:#006E9F;}
	.st128{clip-path:url(#SVGID_102_);fill:#DFCDB5;}
	.st129{clip-path:url(#SVGID_104_);fill:#D9BBA0;}
	.st130{clip-path:url(#SVGID_104_);fill:#D7B395;}
	.st131{clip-path:url(#SVGID_106_);fill:#6E504A;}
	.st132{clip-path:url(#SVGID_108_);fill:#86605A;}
	.st133{clip-path:url(#SVGID_108_);fill:#624842;}
	.st134{clip-path:url(#SVGID_110_);fill:#D7B395;}
	.st135{clip-path:url(#SVGID_110_);fill:none;stroke:#3C2B27;stroke-width:3.96;stroke-miterlimit:10;}
	.st136{clip-path:url(#SVGID_110_);fill:none;stroke:#AD9175;stroke-width:3.96;stroke-linecap:round;stroke-miterlimit:10;}
	.st137{clip-path:url(#SVGID_110_);fill:#6E504A;}
	.st138{clip-path:url(#SVGID_110_);fill:#006E9F;}
	.st139{clip-path:url(#SVGID_110_);fill:#191918;}
	.st140{clip-path:url(#SVGID_110_);fill:#282827;}
	.st141{clip-path:url(#SVGID_110_);fill:#252524;}
	.st142{clip-path:url(#SVGID_110_);fill:#DFCDB5;}
	.st143{clip-path:url(#SVGID_112_);fill:#D7B395;}
	.st144{clip-path:url(#SVGID_114_);fill:none;stroke:#FFFFFF;stroke-width:3.96;stroke-miterlimit:10;}
	.st145{clip-path:url(#SVGID_114_);fill:none;stroke:#008FD1;stroke-width:23.7598;stroke-miterlimit:10;}
	.st146{clip-path:url(#SVGID_114_);fill:#DFCDB5;}
	.st147{clip-path:url(#SVGID_114_);fill:none;stroke:#3C2B27;stroke-width:3.96;stroke-miterlimit:10;}
	.st148{clip-path:url(#SVGID_114_);fill:#F4F4F4;}
	.st149{clip-path:url(#SVGID_116_);fill:#B8B8B8;}
	.st150{clip-path:url(#SVGID_118_);fill:#008FD1;}
</style><g
     id="g5"><defs
       id="defs7"><path
         id="SVGID_1_"
         d="M0,190.6c0,105.3,85.4,190.6,190.6,190.6c105.3,0,190.6-85.4,190.6-190.6C381.3,85.4,295.9,0,190.6,0    C85.4,0,0,85.4,0,190.6" /></defs><clipPath
       id="SVGID_2_"><use
         xlink:href="#SVGID_1_"
         style="overflow:visible;"
         id="use11" /></clipPath><rect
       x="-16.1"
       y="-46.2"
       class="st0"
       width="451.7"
       height="439"
       id="rect13"
       clip-path="url(#SVGID_2_)" /><path
       class="st1"
       d="M192.8,195.1c-3.8-3.4-6.7-6.2-7-7c-1.1-2.7,2.9-7.2,4.8-9.9s2.7-5.5,3.4-9.8s-4.4-4.4-6.9-3.2   c-2.5,1.2-5,6.8-9.2,9.1c-4.3,2.3-11.3,8.7-14.1,12.5c-2.1,2.9-2.4,10.3-0.8,15.6C172.5,198.9,182.6,196.6,192.8,195.1"
       id="path15"
       clip-path="url(#SVGID_2_)" /><path
       class="st2"
       d="M151.9,201.7c1.7-0.3,10,24.5,10.4,26.8c0.4,2.3,3.5,10.2,2.2,10.9c-1.3,0.7-9.4,0.5-12.2-2.8   c-2.8-3.3-8.9-28.6-7.9-30C145.6,205.1,151.2,201.8,151.9,201.7"
       id="path17"
       clip-path="url(#SVGID_2_)" /><polygon
       class="st3"
       points="989.8,482.2 218.3,470.8 218.3,56.2 989.8,-1.1  "
       id="polygon19"
       clip-path="url(#SVGID_2_)" /><path
       class="st4"
       d="M223.4,312.5c13,24.8,69,40.7,113.7,39.2s43.4-12.6,47.2-48.9c3.8-36.3-154.8-11.7-155.5-9.2"
       id="path21"
       clip-path="url(#SVGID_2_)" /><path
       class="st5"
       d="M190.8,277.3c9.6,28.4,48.7,46.1,77.5,52.7s109.6,6.2,113.7-17.7c4.1-23.9-39.4-44.9-39.4-44.9L190.8,277.3z"
       id="path23"
       clip-path="url(#SVGID_2_)" /><path
       class="st6"
       d="M369.2,88.2c-34.7,1.6-123.1,10-138,29.2c-14.9,19.3-34.8,76.6-37.2,100.9c-2.4,24.4-18,68.7,17.4,76.5   c35.4,7.9,106.8,21.3,133.4,0.3c26.6-21,45.5-196.9,38.3-197.7C375.9,96.7,369.2,88.2,369.2,88.2"
       id="path25"
       clip-path="url(#SVGID_2_)" /><path
       class="st2"
       d="M369.2,88.2c12.7,7.2,27.5,11.6,27.5,29c0,17.4-8.6,187.1-14.7,195.1c-6.1,8-37.4,0.3-37.2-17.1   C350.1,279.3,369.2,88.2,369.2,88.2"
       id="path27"
       clip-path="url(#SVGID_2_)" /><path
       class="st7"
       d="M317,167.4l-3.2,0.1c-3.3,0.1-5.9-2.2-5.7-5.3l0.2-2.9c0.2-3,3-5.7,6.3-5.8l3.1-0.2c3.3-0.2,5.8,2.2,5.7,5.3   l-0.2,2.9C323.2,164.7,320.3,167.3,317,167.4"
       id="path29"
       clip-path="url(#SVGID_2_)" /><path
       class="st7"
       d="M317,167.4l-3.2,0.1c-3.3,0.1-5.9-2.2-5.7-5.3l0.2-2.9c0.2-3,3-5.7,6.3-5.8l3.1-0.2c3.3-0.2,5.8,2.2,5.7,5.3   l-0.2,2.9C323.2,164.7,320.3,167.3,317,167.4"
       id="path31"
       clip-path="url(#SVGID_2_)" /><path
       class="st7"
       d="M299.8,168.1l-3.2,0.1c-3.3,0.1-5.8-2.2-5.6-5.2l0.2-2.9c0.2-3,3.1-5.6,6.4-5.8l3.1-0.2   c3.3-0.2,5.8,2.2,5.6,5.2l-0.2,2.9C306,165.4,303.2,168,299.8,168.1"
       id="path33"
       clip-path="url(#SVGID_2_)" /><path
       class="st7"
       d="M282.7,168.9l-3.2,0.1c-3.3,0.1-5.8-2.2-5.5-5.2l0.2-2.8c0.3-3,3.2-5.6,6.4-5.7l3.1-0.2   c3.3-0.2,5.8,2.2,5.6,5.2l-0.2,2.9C288.9,166.2,286,168.7,282.7,168.9"
       id="path35"
       clip-path="url(#SVGID_2_)" /><path
       class="st7"
       d="M265.5,169.6l-3.2,0.1c-3.3,0.1-5.8-2.2-5.5-5.1l0.3-2.8c0.3-2.9,3.2-5.5,6.5-5.7l3.1-0.2   c3.3-0.2,5.8,2.1,5.5,5.1l-0.2,2.8C271.8,166.9,268.8,169.4,265.5,169.6"
       id="path37"
       clip-path="url(#SVGID_2_)" /><path
       class="st7"
       d="M315.8,189.1l-3.2,0.1c-3.4,0.1-6-2.3-5.8-5.4l0.2-2.9c0.2-3,3.1-5.6,6.4-5.8l3.2-0.1c3.3-0.1,5.9,2.3,5.8,5.4   l-0.2,2.9C322,186.4,319.1,189,315.8,189.1"
       id="path39"
       clip-path="url(#SVGID_2_)" /><path
       class="st7"
       d="M298.4,189.5l-3.2,0.1c-3.4,0.1-5.9-2.3-5.7-5.3l0.2-2.9c0.2-3,3.1-5.6,6.5-5.7l3.2-0.1   c3.3-0.1,5.9,2.3,5.7,5.3l-0.2,2.9C304.6,186.9,301.7,189.5,298.4,189.5"
       id="path41"
       clip-path="url(#SVGID_2_)" /><path
       class="st7"
       d="M281,190l-3.2,0.1c-3.4,0.1-5.9-2.3-5.6-5.2l0.2-2.8c0.3-3,3.2-5.5,6.5-5.6l3.2-0.1c3.3-0.1,5.9,2.2,5.6,5.2   l-0.2,2.9C287.3,187.4,284.3,189.9,281,190"
       id="path43"
       clip-path="url(#SVGID_2_)" /><path
       class="st7"
       d="M263.6,190.5l-3.2,0.1c-3.4,0.1-5.9-2.2-5.6-5.2l0.3-2.8c0.3-2.9,3.3-5.5,6.6-5.6l3.2-0.1   c3.3-0.1,5.8,2.2,5.6,5.2l-0.2,2.8C269.9,187.9,266.9,190.4,263.6,190.5"
       id="path45"
       clip-path="url(#SVGID_2_)" /><path
       class="st7"
       d="M314.5,210.7l-3.3,0c-3.4,0-6-2.4-5.8-5.5l0.2-2.9c0.2-3,3.1-5.6,6.5-5.7l3.2-0.1c3.4-0.1,6,2.4,5.8,5.5   L321,205C320.9,208.1,317.9,210.7,314.5,210.7"
       id="path47"
       clip-path="url(#SVGID_2_)" /><path
       class="st7"
       d="M296.9,210.9l-3.3,0c-3.4,0-6-2.4-5.8-5.4l0.2-2.9c0.2-3,3.2-5.5,6.6-5.6l3.2-0.1c3.4-0.1,6,2.3,5.8,5.4   l-0.2,2.9C303.2,208.4,300.3,210.9,296.9,210.9"
       id="path49"
       clip-path="url(#SVGID_2_)" /><path
       class="st7"
       d="M279.3,211.2l-3.3,0c-3.4,0-6-2.4-5.7-5.3l0.2-2.8c0.3-3,3.2-5.5,6.6-5.6l3.2-0.1c3.4-0.1,6,2.3,5.7,5.3   l-0.2,2.9C285.6,208.6,282.7,211.1,279.3,211.2"
       id="path51"
       clip-path="url(#SVGID_2_)" /><path
       class="st7"
       d="M261.6,211.4l-3.3,0c-3.4,0-6-2.3-5.7-5.3l0.3-2.8c0.3-2.9,3.3-5.4,6.7-5.5l3.2-0.1c3.4-0.1,5.9,2.3,5.7,5.3   l-0.2,2.8C268,208.9,265,211.4,261.6,211.4"
       id="path53"
       clip-path="url(#SVGID_2_)" /><path
       class="st7"
       d="M313.3,232.3H310c-3.5,0-6.1-2.5-5.9-5.5l0.2-2.9c0.2-3,3.2-5.6,6.6-5.6l3.3,0c3.4,0,6.1,2.5,5.9,5.5l-0.2,2.9   C319.7,229.8,316.7,232.3,313.3,232.3"
       id="path55"
       clip-path="url(#SVGID_2_)" /><path
       class="st7"
       d="M295.4,232.3h-3.3c-3.5,0-6.1-2.5-5.9-5.5l0.2-2.9c0.2-3,3.2-5.5,6.6-5.5l3.3,0c3.4,0,6.1,2.4,5.9,5.5   l-0.2,2.9C301.9,229.8,298.9,232.3,295.4,232.3"
       id="path57"
       clip-path="url(#SVGID_2_)" /><path
       class="st7"
       d="M277.5,232.3h-3.3c-3.5,0-6.1-2.4-5.8-5.4l0.2-2.8c0.3-3,3.3-5.4,6.7-5.5l3.3,0c3.4,0,6,2.4,5.8,5.4l-0.2,2.9   C284,229.9,281,232.3,277.5,232.3"
       id="path59"
       clip-path="url(#SVGID_2_)" /><path
       class="st7"
       d="M259.7,232.3h-3.3c-3.5,0-6-2.4-5.7-5.4l0.3-2.8c0.3-2.9,3.3-5.4,6.8-5.4l3.3,0c3.4,0,6,2.4,5.7,5.4l-0.2,2.8   C266.2,229.9,263.1,232.3,259.7,232.3"
       id="path61"
       clip-path="url(#SVGID_2_)" /><path
       class="st2"
       d="M207.1,281c11.4-0.4,41.4,5,39.4-7.3c-10.1-65,1-115.3,4.7-129c3.3-12.4,1.9-15.3-10.4-16.1   c-10.3-0.6-24.2,50.2-27.4,67C210.2,212.6,179.9,282,207.1,281"
       id="path63"
       clip-path="url(#SVGID_2_)" /><polygon
       class="st8"
       points="208.1,176.8 243.2,165.6 226.5,140 200.6,146.8  "
       id="polygon65"
       clip-path="url(#SVGID_2_)" /><path
       class="st9"
       d="M194,122.1c1.9-5.3,22.7-10.4,28.8-8.3c-3.1,17.8-15.2,87.8-5.2,103.4c10,15.6,9.3,12.8,12.7,13.4   c3.4,0.6,6.9,10.8,7.8,16.9c1,6.5,2.6,21.3,2.7,23.4c0.1,2.1-29.6,7.6-35.2,7c-8.1-0.8-8.5-0.4-11.7-7.7   C190.6,262.9,168.3,193.9,194,122.1"
       id="path67"
       clip-path="url(#SVGID_2_)" /><path
       class="st10"
       d="M246.5,130.1c0,0-22-17.6-24.1-16.2c-2.1,1.4-6,43-6,43l26.8,8.6L246.5,130.1z"
       id="path69"
       clip-path="url(#SVGID_2_)" /><path
       class="st11"
       d="M217.2,191.4c-3.6-0.4-8.8-0.4-10.1-3.6c-1.3-3.2,9.5-3.8,11.9-3.1c2.3,0.7,3.2,5.7,3.2,5.7L217.2,191.4z"
       id="path71"
       clip-path="url(#SVGID_2_)" /><path
       class="st11"
       d="M219,213.6c-3.2-1.6-8.1-3.2-8-6.6c0.1-3.4,10.4-0.5,12.3,0.9c1.9,1.4,0.8,6.4,0.8,6.4L219,213.6z"
       id="path73"
       clip-path="url(#SVGID_2_)" /><path
       class="st1"
       d="M193.4,182.6c20.1-4.2,18.7-3.9,21-5.2c0.1-1.6,0.2-2.8,0.3-4.1c3.1-0.3,11.8,2.6,10.6,6.6   c-1.9,6.6-3.9,6-6.3,7c-2.4,0.9-19.1,4.8-19.1,4.8L193.4,182.6z"
       id="path75"
       clip-path="url(#SVGID_2_)" /><path
       class="st11"
       d="M220.4,202.3c-2.7-0.9-6.7-1.8-7-4.4c-0.3-2.7,8.1-1.4,9.8-0.5c1.6,0.9,1.3,4.9,1.3,4.9L220.4,202.3z"
       id="path77"
       clip-path="url(#SVGID_2_)" /><path
       class="st1"
       d="M194.4,193.6c22.2-3.5,20.6-3.2,23.2-4.5c0.2-1.7,0.4-3,0.6-4.4c3.4-0.1,11.5,3.3,11.1,7.8   c-0.7,6.8-4.7,6.4-7.3,7.2s-21.1,4.2-21.1,4.2L194.4,193.6z"
       id="path79"
       clip-path="url(#SVGID_2_)" /><path
       class="st1"
       d="M202.8,200.9c17.8,0,16.6,0.1,18.8-0.6c0.5-1.3,0.8-2.3,1.2-3.4c2.7,0.3,8.5,4,7.4,7.5   c-1.6,5.2-4.6,4.4-6.8,4.7c-2.2,0.3-17.1,0.6-17.1,0.6L202.8,200.9z"
       id="path81"
       clip-path="url(#SVGID_2_)" /><path
       class="st1"
       d="M201,209.8c17.2,0,16,0.1,18.2-0.6c0.4-1.2,0.8-2.2,1.1-3.2c2.6,0.3,8.2,3.8,7.2,7.2c-1.5,5-4.5,4.2-6.6,4.6   c-2.1,0.3-16.6,0.6-16.6,0.6L201,209.8z"
       id="path83"
       clip-path="url(#SVGID_2_)" /><path
       class="st1"
       d="M196.7,223.5c5.6-1.4,17.7-3.2,18.1-6.4c0.4-3.2,1.6-12.9,1.3-20.5c-0.6-13.9-18.8-14.7-22.6-14   s-11.6,1.3-14.5,0.8c-2.9-0.6-4.2,19.3-4.2,19.3L196.7,223.5z"
       id="path85"
       clip-path="url(#SVGID_2_)" /><path
       class="st12"
       d="M30.6,167.2c41.6-12.8,66.3-18.2,108.9-13.6"
       id="path87"
       clip-path="url(#SVGID_2_)" /><polygon
       class="st13"
       points="131.7,169 164.9,157.1 136.8,137.3  "
       id="polygon89"
       clip-path="url(#SVGID_2_)" /><path
       class="st1"
       d="M187.4,188.7c-0.1-0.7,0.1-1.6,0.6-2.4c-2,0.3-4,0.4-6.1,0.3c-4,7.2-10.8,13.1-19.2,15.7   c0.2,0.5,0.4,1,0.6,1.4c0,0-12.8,1.9-16.1,3.3c0,0,5.2,28.7,6.4,27.5c1.2-1.2,21.9-4.5,29.8-8.4c5.8,1,20.9-3.9,27.5-6.2   C212.4,220.1,187.9,191.5,187.4,188.7"
       id="path91"
       clip-path="url(#SVGID_2_)" /><polygon
       class="st7"
       points="157.1,202.9 166.7,237.3 151.9,241.8 142.5,206.6  "
       id="polygon93"
       clip-path="url(#SVGID_2_)" /><path
       class="st6"
       d="M151.9,201.7c-0.5,2.6,10.9,36.9,12.6,37.7c-8.1,4.1-35.1,12.5-87.4,28c-31.6,9.4-102.9-13.1-102.9-13.1   s-1.9-53.1-1.2-58.6c0-0.1,64.6,30.2,100.8,22.6C124.5,207.5,151.9,201.7,151.9,201.7"
       id="path95"
       clip-path="url(#SVGID_2_)" /></g><g
     id="g97"><defs
       id="defs99"><path
         id="SVGID_3_"
         d="M73.9,218.2c-20.1,4.3-48.9-3.2-70.6-10.7c-0.9-0.3-1.7-0.6-2.6-0.9c1.7,20.4,6.6,39.9,14.2,57.9    c21.6,4.4,46.8,7.5,62.3,2.9c52.3-15.6,79.3-23.9,87.4-28c-1.7-0.7-13.2-35-12.6-37.7C151.9,201.7,124.5,207.5,73.9,218.2" /></defs><clipPath
       id="SVGID_4_"><use
         xlink:href="#SVGID_3_"
         style="overflow:visible;"
         id="use103" /></clipPath><path
       class="st14"
       d="M166.7,237.3c-22.2,4.9-74.4,25.1-110.4,25.1s-89.2-23.9-96.4-27.9c-7.2-3.9-19.2,61.8-19.2,61.8l234.6,3.6   L166.7,237.3z"
       id="path105"
       clip-path="url(#SVGID_4_)" /></g><g
     id="g191"><defs
       id="defs193"><rect
         id="SVGID_115_"
         x="-999.4"
         y="-320"
         width="1920"
         height="1080" /></defs><clipPath
       id="SVGID_8_"><use
         xlink:href="#SVGID_115_"
         style="overflow:visible;"
         id="use197" /></clipPath></g><g
     id="g199"><defs
       id="defs201"><rect
         id="SVGID_117_"
         x="-999.4"
         y="-320"
         width="1920"
         height="1080" /></defs><clipPath
       id="SVGID_10_"><use
         xlink:href="#SVGID_117_"
         style="overflow:visible;"
         id="use205" /></clipPath></g></svg>