<?xml version="1.0" encoding="UTF-8" standalone="no"?>
<!-- Generator: Adobe Illustrator 19.1.1, SVG Export Plug-In . SVG Version: 6.00 Build 0)  -->

<svg
   xmlns:dc="http://purl.org/dc/elements/1.1/"
   xmlns:cc="http://creativecommons.org/ns#"
   xmlns:rdf="http://www.w3.org/1999/02/22-rdf-syntax-ns#"
   xmlns:svg="http://www.w3.org/2000/svg"
   xmlns="http://www.w3.org/2000/svg"
   xmlns:xlink="http://www.w3.org/1999/xlink"
   xmlns:sodipodi="http://sodipodi.sourceforge.net/DTD/sodipodi-0.dtd"
   xmlns:inkscape="http://www.inkscape.org/namespaces/inkscape"
   version="1.1"
   id="Layer_1"
   x="0px"
   y="0px"
   viewBox="0 0 381.3 381.3"
   style="enable-background:new 0 0 381.3 381.3;"
   xml:space="preserve"
   inkscape:version="0.91 r13725"
   sodipodi:docname="step04_dial.svg"><metadata
     id="metadata440"><rdf:RDF><cc:Work
         rdf:about=""><dc:format>image/svg+xml</dc:format><dc:type
           rdf:resource="http://purl.org/dc/dcmitype/StillImage" /><dc:title></dc:title></cc:Work></rdf:RDF></metadata><defs
     id="defs438"><defs
       id="defs396"><path
         d="M0,190.6c0,105.3,85.4,190.6,190.6,190.6s190.6-85.4,190.6-190.6C381.3,85.4,295.9,0,190.6,0    S0,85.4,0,190.6"
         id="SVGID_167_" /></defs><clipPath
       id="SVGID_55_"><use
         id="use400"
         style="overflow:visible;"
         xlink:href="#SVGID_167_" /></clipPath><defs
       id="defs101"><path
         d="M0,190.6c0,105.3,85.4,190.6,190.6,190.6s190.6-85.4,190.6-190.6C381.3,85.4,295.9,0,190.6,0    S0,85.4,0,190.6"
         id="SVGID_112_" /></defs><clipPath
       id="SVGID_7_"><use
         id="use105"
         style="overflow:visible;"
         xlink:href="#SVGID_112_" /></clipPath><defs
       id="defs157"><path
         d="M0,190.6c0,105.3,85.4,190.6,190.6,190.6s190.6-85.4,190.6-190.6C381.3,85.4,295.9,0,190.6,0    S0,85.4,0,190.6"
         id="SVGID_128_" /></defs><clipPath
       id="SVGID_16_"><use
         id="use161"
         style="overflow:visible;"
         xlink:href="#SVGID_128_" /></clipPath></defs><sodipodi:namedview
     pagecolor="#ffffff"
     bordercolor="#666666"
     borderopacity="1"
     objecttolerance="10"
     gridtolerance="10"
     guidetolerance="10"
     inkscape:pageopacity="0"
     inkscape:pageshadow="2"
     inkscape:window-width="1346"
     inkscape:window-height="1264"
     id="namedview436"
     showgrid="false"
     inkscape:zoom="3.5012264"
     inkscape:cx="269.88886"
     inkscape:cy="68.954495"
     inkscape:window-x="2287"
     inkscape:window-y="198"
     inkscape:window-maximized="0"
     inkscape:current-layer="Layer_1" /><style
     type="text/css"
     id="style3">
	.st0{clip-path:url(#SVGID_2_);fill:#00425D;}
	.st1{clip-path:url(#SVGID_2_);fill:#006E9F;}
	.st2{clip-path:url(#SVGID_2_);fill:#C8A780;}
	.st3{clip-path:url(#SVGID_4_);fill:url(#SVGID_5_);}
	.st4{clip-path:url(#SVGID_7_);fill:#ECD8BE;}
	.st5{clip-path:url(#SVGID_7_);fill-rule:evenodd;clip-rule:evenodd;}
	.st6{clip-path:url(#SVGID_9_);fill:url(#SVGID_10_);}
	.st7{clip-path:url(#SVGID_12_);fill:url(#SVGID_13_);}
	.st8{clip-path:url(#SVGID_15_);fill:url(#SVGID_16_);}
	.st9{clip-path:url(#SVGID_18_);fill:url(#SVGID_19_);}
	.st10{clip-path:url(#SVGID_21_);fill:#F8F8F8;}
	.st11{clip-path:url(#SVGID_21_);fill:#008FD1;}
	.st12{clip-path:url(#SVGID_21_);fill:#002436;}
	.st13{clip-path:url(#SVGID_23_);fill:#92B43A;}
	.st14{clip-path:url(#SVGID_23_);fill:#EAEAEA;}
	.st15{clip-path:url(#SVGID_23_);fill:#6C852C;}
	.st16{clip-path:url(#SVGID_23_);fill:#D7B395;}
	.st17{clip-path:url(#SVGID_23_);fill:#6E504A;}
	.st18{clip-path:url(#SVGID_25_);fill:#624842;}
	.st19{clip-path:url(#SVGID_27_);fill:#6E504A;}
	.st20{clip-path:url(#SVGID_29_);fill:#624842;}
	.st21{clip-path:url(#SVGID_31_);fill:#DFCDB5;}
	.st22{clip-path:url(#SVGID_33_);fill:#D7B395;}
	.st23{clip-path:url(#SVGID_35_);fill:none;stroke:#FFFFFF;stroke-width:2.9081;stroke-miterlimit:10;}
	.st24{clip-path:url(#SVGID_35_);fill:#00425D;}
	.st25{clip-path:url(#SVGID_37_);fill:none;stroke:#000000;stroke-width:5.8163;stroke-miterlimit:10;}
	.st26{clip-path:url(#SVGID_37_);fill:#CD8D52;}
	.st27{clip-path:url(#SVGID_37_);fill:#002F44;}
	.st28{clip-path:url(#SVGID_39_);fill:#D7B395;}
	.st29{clip-path:url(#SVGID_39_);fill:#008FD1;}
	.st30{clip-path:url(#SVGID_41_);fill:#006E9F;}
	.st31{clip-path:url(#SVGID_41_);fill:#FFFFFF;}
	.st32{clip-path:url(#SVGID_43_);fill:#822927;}
	.st33{clip-path:url(#SVGID_45_);fill:#006998;}
	.st34{clip-path:url(#SVGID_45_);fill:#F4F4F4;}
	.st35{clip-path:url(#SVGID_45_);fill:#7C2724;}
	.st36{clip-path:url(#SVGID_47_);fill:#FFFFFF;}
	.st37{clip-path:url(#SVGID_49_);fill:#006998;}
	.st38{clip-path:url(#SVGID_49_);fill:#F4F4F4;}
	.st39{clip-path:url(#SVGID_49_);fill:#7C2724;}
	.st40{clip-path:url(#SVGID_51_);fill:#FFFFFF;}
	.st41{clip-path:url(#SVGID_53_);fill:#006E9F;}
	.st42{clip-path:url(#SVGID_55_);fill:url(#SVGID_56_);}
	.st43{clip-path:url(#SVGID_58_);fill:#008FD1;}
	.st44{clip-path:url(#SVGID_60_);fill:#006E9F;}
	.st45{clip-path:url(#SVGID_62_);fill:#F4F4F4;}
	.st46{clip-path:url(#SVGID_64_);fill:#C9C9C9;}
	.st47{clip-path:url(#SVGID_66_);fill:#DFCDB5;}
	.st48{clip-path:url(#SVGID_68_);fill:#D7B395;}
	.st49{clip-path:url(#SVGID_70_);fill:none;stroke:#FFFFFF;stroke-width:2.9081;stroke-miterlimit:10;}
	.st50{clip-path:url(#SVGID_70_);fill:#008FD1;}
	.st51{clip-path:url(#SVGID_72_);fill:#006E9F;}
	.st52{clip-path:url(#SVGID_74_);fill:#006E9F;}
	.st53{clip-path:url(#SVGID_74_);fill:#C3C3C3;}
	.st54{clip-path:url(#SVGID_74_);fill:#006591;}
	.st55{clip-path:url(#SVGID_74_);fill:#008FD1;}
	.st56{clip-path:url(#SVGID_74_);fill:#FFFFFF;}
	.st57{clip-path:url(#SVGID_74_);fill:#191918;}
	.st58{clip-path:url(#SVGID_74_);fill:#282827;}
	.st59{clip-path:url(#SVGID_74_);fill:#252524;}
	.st60{clip-path:url(#SVGID_74_);fill:none;stroke:#000000;stroke-width:1.4541;stroke-miterlimit:10;}
	.st61{clip-path:url(#SVGID_74_);fill:#624842;}
	.st62{clip-path:url(#SVGID_74_);fill:#D7B395;}
	.st63{clip-path:url(#SVGID_74_);fill:#DFCDB5;}
	.st64{clip-path:url(#SVGID_76_);fill:#D9BBA0;}
	.st65{clip-path:url(#SVGID_76_);fill:#D7B395;}
	.st66{clip-path:url(#SVGID_78_);fill:#6E504A;}
	.st67{clip-path:url(#SVGID_80_);fill:#86605A;}
	.st68{clip-path:url(#SVGID_80_);fill:#624842;}
	.st69{clip-path:url(#SVGID_82_);fill:#D7B395;}
	.st70{clip-path:url(#SVGID_82_);fill:#3C2B27;}
	.st71{clip-path:url(#SVGID_82_);fill:none;stroke:#AD9175;stroke-width:2.9081;stroke-linecap:round;stroke-miterlimit:10;}
	.st72{clip-path:url(#SVGID_82_);fill:#6B222C;}
	.st73{clip-path:url(#SVGID_84_);fill:#822927;}
	.st74{clip-path:url(#SVGID_84_);fill:#FFFFFF;}
	.st75{clip-path:url(#SVGID_86_);fill:#6E504A;}
	.st76{clip-path:url(#SVGID_86_);fill:#6C852C;}
	.st77{clip-path:url(#SVGID_88_);fill:#92B43A;}
	.st78{clip-path:url(#SVGID_88_);fill:#6C852C;}
	.st79{clip-path:url(#SVGID_88_);fill:#C8A780;}
	.st80{clip-path:url(#SVGID_90_);fill:url(#SVGID_91_);}
	.st81{clip-path:url(#SVGID_93_);fill:#ECD8BE;}
	.st82{clip-path:url(#SVGID_93_);fill-rule:evenodd;clip-rule:evenodd;}
	.st83{clip-path:url(#SVGID_95_);fill:url(#SVGID_96_);}
	.st84{clip-path:url(#SVGID_98_);fill:url(#SVGID_99_);}
	.st85{clip-path:url(#SVGID_101_);fill:url(#SVGID_102_);}
	.st86{clip-path:url(#SVGID_104_);fill:url(#SVGID_105_);}
	.st87{clip-path:url(#SVGID_107_);fill:#F8F8F8;}
	.st88{clip-path:url(#SVGID_107_);fill:#008FD1;}
	.st89{clip-path:url(#SVGID_107_);fill:none;stroke:#C53988;stroke-width:11.949;stroke-miterlimit:10;}
	.st90{clip-path:url(#SVGID_109_);fill:#92B43A;}
	.st91{clip-path:url(#SVGID_109_);fill:#EAEAEA;}
	.st92{clip-path:url(#SVGID_109_);fill:#C3C3C3;}
	.st93{clip-path:url(#SVGID_109_);fill:#006591;}
	.st94{clip-path:url(#SVGID_109_);fill:#008FD1;}
	.st95{clip-path:url(#SVGID_109_);fill:#006E9F;}
	.st96{clip-path:url(#SVGID_109_);fill:#FFFFFF;}
	.st97{clip-path:url(#SVGID_109_);fill:#191918;}
	.st98{clip-path:url(#SVGID_109_);fill:#282827;}
	.st99{clip-path:url(#SVGID_109_);fill:#252524;}
	.st100{clip-path:url(#SVGID_109_);fill:#6C852C;}
	.st101{clip-path:url(#SVGID_111_);fill:#00577F;}
	.st102{clip-path:url(#SVGID_111_);fill:#9C9B9B;}
	.st103{clip-path:url(#SVGID_113_);fill:#D7B395;}
	.st104{clip-path:url(#SVGID_113_);fill:#624842;}
	.st105{clip-path:url(#SVGID_113_);fill:#6C852C;}
	.st106{clip-path:url(#SVGID_113_);fill:#6E504A;}
	.st107{clip-path:url(#SVGID_115_);}
	.st108{clip-path:url(#SVGID_117_);fill:#624842;}
	.st109{clip-path:url(#SVGID_119_);fill:#6E504A;}
	.st110{clip-path:url(#SVGID_121_);}
	.st111{clip-path:url(#SVGID_123_);fill:#624842;}
	.st112{clip-path:url(#SVGID_125_);fill:#DFCDB5;}
	.st113{clip-path:url(#SVGID_127_);fill:#D7B395;}
	.st114{clip-path:url(#SVGID_129_);fill:none;stroke:#FFFFFF;stroke-width:5.167;stroke-miterlimit:10;}
	.st115{clip-path:url(#SVGID_129_);fill:#00425D;}
	.st116{clip-path:url(#SVGID_131_);fill:none;stroke:#000000;stroke-width:10.335;stroke-miterlimit:10;}
	.st117{clip-path:url(#SVGID_131_);fill:#CD8D52;}
	.st118{clip-path:url(#SVGID_131_);fill:#002F44;}
	.st119{clip-path:url(#SVGID_133_);fill:#D7B395;}
	.st120{clip-path:url(#SVGID_133_);fill:#008FD1;}
	.st121{clip-path:url(#SVGID_135_);fill:#006E9F;}
	.st122{clip-path:url(#SVGID_135_);fill:#FFFFFF;}
	.st123{clip-path:url(#SVGID_137_);fill:#822927;}
	.st124{clip-path:url(#SVGID_139_);fill:#F4F4F4;}
	.st125{clip-path:url(#SVGID_139_);fill:#7C2724;}
	.st126{clip-path:url(#SVGID_141_);fill:#FFFFFF;}
	.st127{clip-path:url(#SVGID_143_);fill:#F4F4F4;}
	.st128{clip-path:url(#SVGID_143_);fill:#7C2724;}
	.st129{clip-path:url(#SVGID_145_);fill:#FFFFFF;}
	.st130{clip-path:url(#SVGID_147_);fill:#006E9F;}
	.st131{clip-path:url(#SVGID_149_);fill:url(#SVGID_150_);}
	.st132{clip-path:url(#SVGID_152_);fill:#008FD1;}
	.st133{clip-path:url(#SVGID_154_);fill:#006E9F;}
	.st134{clip-path:url(#SVGID_156_);fill:#DFCDB5;}
	.st135{clip-path:url(#SVGID_158_);fill:#D9BBA0;}
	.st136{clip-path:url(#SVGID_158_);fill:#D7B395;}
	.st137{clip-path:url(#SVGID_160_);fill:#6E504A;}
	.st138{clip-path:url(#SVGID_162_);fill:#86605A;}
	.st139{clip-path:url(#SVGID_162_);fill:#624842;}
	.st140{clip-path:url(#SVGID_164_);fill:#D7B395;}
	.st141{clip-path:url(#SVGID_164_);fill:none;stroke:#AD9175;stroke-width:5.167;stroke-linecap:round;stroke-miterlimit:10;}
	.st142{clip-path:url(#SVGID_164_);fill:#6E504A;}
	.st143{clip-path:url(#SVGID_164_);fill:#006E9F;}
	.st144{clip-path:url(#SVGID_164_);fill:#191918;}
	.st145{clip-path:url(#SVGID_164_);fill:#282827;}
	.st146{clip-path:url(#SVGID_164_);fill:#252524;}
	.st147{clip-path:url(#SVGID_164_);fill:#DFCDB5;}
	.st148{clip-path:url(#SVGID_166_);fill:#D7B395;}
	.st149{clip-path:url(#SVGID_168_);fill:none;stroke:#FFFFFF;stroke-width:5.167;stroke-miterlimit:10;}
	.st150{clip-path:url(#SVGID_168_);fill:none;stroke:#008FD1;stroke-width:31.004;stroke-miterlimit:10;}
	.st151{clip-path:url(#SVGID_168_);fill:#DFCDB5;}
	.st152{clip-path:url(#SVGID_168_);fill:#F4F4F4;}
	.st153{clip-path:url(#SVGID_168_);fill:#3C2B27;}
	.st154{clip-path:url(#SVGID_168_);fill:#822927;}
	.st155{clip-path:url(#SVGID_168_);fill:none;stroke:#3C2B27;stroke-width:5.167;stroke-miterlimit:10;}
	.st156{clip-path:url(#SVGID_170_);fill:#008FD1;}
	.st157{clip-path:url(#SVGID_172_);fill:#B8B8B8;}
</style><g
     id="g17"><defs
       id="defs19"><path
         id="SVGID_108_"
         d="M0,190.6c0,105.3,85.4,190.6,190.6,190.6s190.6-85.4,190.6-190.6C381.3,85.4,295.9,0,190.6,0    S0,85.4,0,190.6" /></defs><clipPath
       id="SVGID_4_"><use
         xlink:href="#SVGID_108_"
         style="overflow:visible;"
         id="use23" /></clipPath><rect
       x="-269"
       y="-98.5"
       style="clip-path:url(#SVGID_4_);fill:#92B43A;"
       width="1263.3"
       height="761.3"
       id="rect25"
       clip-path="url(#SVGID_4_)" /><polygon
       style="clip-path:url(#SVGID_4_);fill:#EAEAEA;"
       points="866.9,513 243.4,502.6 243.4,128.9 866.9,77.2  "
       id="polygon27"
       clip-path="url(#SVGID_4_)" /><path
       style="clip-path:url(#SVGID_4_);fill:#C3C3C3;"
       d="M247.5,359.9c10.5,22.4,55.7,36.7,91.9,35.3c36.2-1.3,35.1-11.4,38.2-44.1   c3.1-32.7-125.1-10.6-125.7-8.3"
       id="path29"
       clip-path="url(#SVGID_4_)" /><path
       style="clip-path:url(#SVGID_4_);fill:#006591;"
       d="M221.2,328.2c7.8,25.6,39.4,41.6,62.6,47.5c23.3,5.9,88.6,5.6,91.9-16   c3.3-21.6-31.8-40.5-31.8-40.5L221.2,328.2z"
       id="path31"
       clip-path="url(#SVGID_4_)" /><path
       style="clip-path:url(#SVGID_4_);fill:#008FD1;"
       d="M365.4,157.7c-28.1,1.4-99.5,9-111.5,26.3c-12,17.4-28.2,69-30.1,91   c-1.9,22-14.5,61.9,14,69c28.6,7.1,86.3,19.2,107.8,0.3c21.5-18.9,36.7-177.5,30.9-178.3C370.8,165.4,365.4,157.7,365.4,157.7"
       id="path33"
       clip-path="url(#SVGID_4_)" /><path
       style="clip-path:url(#SVGID_4_);fill:#006E9F;"
       d="M235.6,328.7c9.2-0.4,11.3-5.6,11.9-16.8c0.6-11.2,12.7-90.9,13.5-95.6   c2-11.4,0.6-11.8-9.4-12.4c-8.3-0.5-18.6,43.2-21.2,58.4C227.9,277.4,213.7,329.6,235.6,328.7"
       id="path35"
       clip-path="url(#SVGID_4_)" /><path
       style="clip-path:url(#SVGID_4_);fill:#006E9F;"
       d="M365.4,157.7c10.2,6.5,22.2,10.5,22.2,26.1c0,15.6-7,168.7-11.9,175.9   c-4.9,7.2-30.3,0.3-30.1-15.4C349.9,330,365.4,157.7,365.4,157.7"
       id="path37"
       clip-path="url(#SVGID_4_)" /><path
       style="clip-path:url(#SVGID_4_);fill:#FFFFFF;"
       d="M323.2,229.2l-2.6,0.1c-2.7,0.1-4.7-2-4.6-4.8l0.2-2.6   c0.2-2.7,2.5-5.1,5.1-5.3l2.5-0.1c2.7-0.1,4.7,2,4.6,4.8l-0.1,2.6C328.2,226.7,325.9,229,323.2,229.2"
       id="path39"
       clip-path="url(#SVGID_4_)" /><path
       style="clip-path:url(#SVGID_4_);fill:#FFFFFF;"
       d="M323.2,229.2l-2.6,0.1c-2.7,0.1-4.7-2-4.6-4.8l0.2-2.6   c0.2-2.7,2.5-5.1,5.1-5.3l2.5-0.1c2.7-0.1,4.7,2,4.6,4.8l-0.1,2.6C328.2,226.7,325.9,229,323.2,229.2"
       id="path41"
       clip-path="url(#SVGID_4_)" /><path
       style="clip-path:url(#SVGID_4_);fill:#FFFFFF;"
       d="M309.3,229.8l-2.6,0.1c-2.7,0.1-4.7-2-4.5-4.7l0.2-2.6   c0.2-2.7,2.5-5.1,5.2-5.2l2.5-0.1c2.7-0.2,4.7,2,4.5,4.7l-0.1,2.6C314.3,227.3,312,229.7,309.3,229.8"
       id="path43"
       clip-path="url(#SVGID_4_)" /><path
       style="clip-path:url(#SVGID_4_);fill:#FFFFFF;"
       d="M295.4,230.5l-2.6,0.1c-2.7,0.1-4.7-2-4.5-4.7l0.2-2.6   c0.2-2.7,2.6-5,5.2-5.2l2.5-0.1c2.7-0.2,4.7,1.9,4.5,4.7l-0.2,2.6C300.5,228,298.1,230.3,295.4,230.5"
       id="path45"
       clip-path="url(#SVGID_4_)" /><path
       style="clip-path:url(#SVGID_4_);fill:#FFFFFF;"
       d="M281.6,231.1l-2.6,0.1c-2.7,0.1-4.7-1.9-4.4-4.6l0.2-2.5   c0.2-2.7,2.6-5,5.3-5.1l2.5-0.1c2.7-0.2,4.7,1.9,4.4,4.6l-0.2,2.6C286.6,228.7,284.2,231,281.6,231.1"
       id="path47"
       clip-path="url(#SVGID_4_)" /><path
       style="clip-path:url(#SVGID_4_);fill:#FFFFFF;"
       d="M322.2,248.7l-2.6,0.1c-2.7,0.1-4.8-2.1-4.7-4.8l0.1-2.6   c0.2-2.7,2.5-5.1,5.2-5.2l2.6-0.1c2.7-0.1,4.8,2.1,4.7,4.8l-0.1,2.7C327.2,246.2,324.9,248.6,322.2,248.7"
       id="path49"
       clip-path="url(#SVGID_4_)" /><path
       style="clip-path:url(#SVGID_4_);fill:#FFFFFF;"
       d="M308.1,249.1l-2.6,0.1c-2.7,0.1-4.8-2.1-4.6-4.8l0.2-2.6   c0.2-2.7,2.5-5,5.2-5.1l2.6-0.1c2.7-0.1,4.8,2,4.6,4.8l-0.2,2.6C313.2,246.7,310.8,249,308.1,249.1"
       id="path51"
       clip-path="url(#SVGID_4_)" /><path
       style="clip-path:url(#SVGID_4_);fill:#FFFFFF;"
       d="M294.1,249.5l-2.6,0.1c-2.7,0.1-4.8-2-4.6-4.7l0.2-2.6   c0.2-2.7,2.6-5,5.3-5.1l2.6-0.1c2.7-0.1,4.7,2,4.6,4.7l-0.2,2.6C299.1,247.2,296.8,249.4,294.1,249.5"
       id="path53"
       clip-path="url(#SVGID_4_)" /><path
       style="clip-path:url(#SVGID_4_);fill:#FFFFFF;"
       d="M280,250l-2.6,0.1c-2.7,0.1-4.7-2-4.5-4.7l0.2-2.5c0.2-2.7,2.6-4.9,5.3-5   l2.6-0.1c2.7-0.1,4.7,2,4.5,4.7l-0.2,2.6C285.1,247.6,282.7,249.9,280,250"
       id="path55"
       clip-path="url(#SVGID_4_)" /><path
       style="clip-path:url(#SVGID_4_);fill:#FFFFFF;"
       d="M321.2,268.2l-2.6,0c-2.7,0-4.9-2.2-4.7-4.9l0.2-2.6   c0.2-2.7,2.5-5.1,5.2-5.1l2.6-0.1c2.7-0.1,4.9,2.1,4.7,4.9l-0.1,2.7C326.3,265.8,323.9,268.1,321.2,268.2"
       id="path57"
       clip-path="url(#SVGID_4_)" /><path
       style="clip-path:url(#SVGID_4_);fill:#FFFFFF;"
       d="M306.9,268.4l-2.6,0c-2.7,0-4.9-2.1-4.7-4.9l0.2-2.6   c0.2-2.7,2.6-5,5.3-5.1l2.6-0.1c2.7-0.1,4.8,2.1,4.7,4.9l-0.2,2.6C312.1,266.1,309.7,268.3,306.9,268.4"
       id="path59"
       clip-path="url(#SVGID_4_)" /><path
       style="clip-path:url(#SVGID_4_);fill:#FFFFFF;"
       d="M292.7,268.6l-2.6,0c-2.7,0-4.8-2.1-4.6-4.8l0.2-2.6   c0.2-2.7,2.6-4.9,5.3-5l2.6-0.1c2.7-0.1,4.8,2.1,4.6,4.8l-0.2,2.6C297.8,266.3,295.4,268.6,292.7,268.6"
       id="path61"
       clip-path="url(#SVGID_4_)" /><path
       style="clip-path:url(#SVGID_4_);fill:#FFFFFF;"
       d="M278.4,268.8l-2.6,0c-2.8,0-4.8-2.1-4.6-4.8l0.2-2.5   c0.2-2.7,2.7-4.9,5.4-4.9l2.6-0.1c2.7-0.1,4.8,2.1,4.6,4.7l-0.2,2.6C283.6,266.5,281.2,268.8,278.4,268.8"
       id="path63"
       clip-path="url(#SVGID_4_)" /><path
       style="clip-path:url(#SVGID_4_);fill:#FFFFFF;"
       d="M320.2,287.7h-2.7c-2.8,0-4.9-2.2-4.8-5l0.2-2.6c0.2-2.7,2.5-5,5.3-5   l2.6,0c2.8,0,4.9,2.2,4.8,5l-0.1,2.7C325.4,285.4,323,287.7,320.2,287.7"
       id="path65"
       clip-path="url(#SVGID_4_)" /><path
       style="clip-path:url(#SVGID_4_);fill:#FFFFFF;"
       d="M305.7,287.7h-2.7c-2.8,0-4.9-2.2-4.7-4.9l0.2-2.6c0.2-2.7,2.6-5,5.4-5   l2.6,0c2.8,0,4.9,2.2,4.7,4.9l-0.2,2.6C310.9,285.4,308.5,287.7,305.7,287.7"
       id="path67"
       clip-path="url(#SVGID_4_)" /><path
       style="clip-path:url(#SVGID_4_);fill:#FFFFFF;"
       d="M291.3,287.7h-2.7c-2.8,0-4.9-2.2-4.7-4.9l0.2-2.6   c0.2-2.7,2.6-4.9,5.4-4.9l2.6,0c2.8,0,4.9,2.2,4.7,4.9l-0.2,2.6C296.5,285.5,294.1,287.7,291.3,287.7"
       id="path69"
       clip-path="url(#SVGID_4_)" /><path
       style="clip-path:url(#SVGID_4_);fill:#FFFFFF;"
       d="M276.8,287.7h-2.7c-2.8,0-4.9-2.2-4.6-4.8l0.2-2.5   c0.2-2.7,2.7-4.9,5.5-4.9l2.6,0c2.8,0,4.9,2.1,4.6,4.8l-0.2,2.6C282.1,285.5,279.6,287.7,276.8,287.7"
       id="path71"
       clip-path="url(#SVGID_4_)" /></g><path
     inkscape:connector-curvature="0"
     clip-path="url(#SVGID_7_)"
     id="path109"
     d="m 21.3,138.8 c 2.7,19.5 6.1,63.3 46.2,62.7 40,-0.6 44.1,-76.2 44.1,-76.2 l -90.3,13.5 z"
     style="fill:#624842" /><g
     id="g111"><defs
       id="defs113"><path
         id="SVGID_114_"
         d="M0,190.6c0,105.3,85.4,190.6,190.6,190.6s190.6-85.4,190.6-190.6C381.3,85.4,295.9,0,190.6,0    S0,85.4,0,190.6" /></defs><clipPath
       id="SVGID_9_"><use
         xlink:href="#SVGID_114_"
         style="overflow:visible;"
         id="use117" /></clipPath></g><g
     id="g119"><defs
       id="defs121"><path
         id="SVGID_118_"
         d="M0,190.6c0,105.3,85.4,190.6,190.6,190.6s190.6-85.4,190.6-190.6C381.3,85.4,295.9,0,190.6,0    S0,85.4,0,190.6" /></defs><clipPath
       id="SVGID_10_"><use
         xlink:href="#SVGID_118_"
         style="overflow:visible;"
         id="use125" /></clipPath></g><g
     id="g127"><defs
       id="defs129"><path
         id="SVGID_120_"
         d="M0,190.6c0,105.3,85.4,190.6,190.6,190.6s190.6-85.4,190.6-190.6C381.3,85.4,295.9,0,190.6,0    S0,85.4,0,190.6" /></defs><clipPath
       id="SVGID_12_"><use
         xlink:href="#SVGID_120_"
         style="overflow:visible;"
         id="use133" /></clipPath></g><g
     id="g145"><defs
       id="defs147"><path
         id="SVGID_126_"
         d="M275.2,240.7c-12.4,3.4-11.6,20.9-21.1,35.1l10.1,9.4c0,0,4.2,3.1,7.4,3.3c3.2,0.2,5.6-4.7,14.4-8.9    c8.7-4.2,16.2-22.4,11.9-27.3c-4.4-4.9-15.5-11.2-19.5-4c0.1-3.6,6.1-8.6,1.8-8.6C279.2,239.8,277.6,240.1,275.2,240.7" /></defs><clipPath
       id="SVGID_15_"><use
         xlink:href="#SVGID_126_"
         style="overflow:visible;"
         id="use151" /></clipPath><path
       style="clip-path:url(#SVGID_15_);fill:#D7B395;"
       d="M268.7,282.2c11.2,1.2,29.6-6.5,33.5-23.9c3.9-17.5,22.9,19.1,22.9,19.1   s-38.9,26-40.7,25.3C282.7,302,268.7,282.2,268.7,282.2"
       id="path153"
       clip-path="url(#SVGID_15_)" /></g><path
     inkscape:connector-curvature="0"
     clip-path="url(#SVGID_16_)"
     id="path165"
     d="m 83.5,360 c 1.5,20.2 1.5,98.1 0.7,106.3 -0.7,8.2 -9.7,40.8 -9.7,45.3 0,4.5 32.7,-0.5 34.2,-1.2 3.7,-24 27.4,-87.5 29.9,-106.6 2.5,47.5 5,84.2 0,91 -5,6.7 -4,12.3 -1.5,14.5 2.5,2.2 28.7,-1 34.9,-1.8 6.2,-0.7 -3.8,-6.8 -2,-15 1.7,-8.2 4.9,-125.9 2.4,-133 -21,-4.7 -88.9,0.5 -88.9,0.5"
     style="fill:#00425d" /><g
     id="g167"><defs
       id="defs169"><path
         id="SVGID_130_"
         d="M100.9,358.9c22,11.7,46.5,19.3,72.5,21.6c0-11.3-0.3-19.3-0.9-21c-6.6-1.5-17.8-2-30.1-2    C128.2,357.6,112.5,358.3,100.9,358.9" /></defs><clipPath
       id="SVGID_18_"><use
         xlink:href="#SVGID_130_"
         style="overflow:visible;"
         id="use173" /></clipPath><path
       style="clip-path:url(#SVGID_18_);fill:none;stroke:#000000;stroke-width:10.335;stroke-miterlimit:10;"
       d="M83.4,382.5   c6.3,1.8,45.2,4.7,55.5,4.8c10.3,0.2,32-2.3,37.6-5.7"
       id="path175"
       clip-path="url(#SVGID_18_)" /></g><g
     id="g177"><defs
       id="defs179"><path
         id="SVGID_132_"
         d="M0,190.6c0,105.3,85.4,190.6,190.6,190.6s190.6-85.4,190.6-190.6C381.3,85.4,295.9,0,190.6,0    S0,85.4,0,190.6" /></defs><clipPath
       id="SVGID_19_"><use
         xlink:href="#SVGID_132_"
         style="overflow:visible;"
         id="use183" /></clipPath><path
       style="clip-path:url(#SVGID_19_);fill:#D7B395;"
       d="M106.8,243.5c2.3,11.6-0.6,28.6-2.4,31.8c-0.9,1.6,15.4,8.1,31.4,8   c15.5-0.1,30.7-6.6,29.4-10.1c-2.7-7.1-6.4-15.5-8.3-28.4C155,231.8,106.8,243.5,106.8,243.5"
       id="path185"
       clip-path="url(#SVGID_19_)" /><path
       style="clip-path:url(#SVGID_19_);fill:#008FD1;"
       d="M128.3,277.3c0.9-0.2,12.8-0.1,13.8-0.3c7.4-1.7,12.7-2.7,23.2-5.2   c10.9-0.3,10.3,0.4,13.9,3.5c7.8,6.9,1.9,94.8-3,117.8c-6.4,3-20.1-3.1-36.5-7.5c-4.7,5.6-49.4,12.8-58.2,9.4   c-0.7-18.1-17.4-116.3-8.3-120c7.8-3.2,20.7-2.8,31.2-2.5C118.8,275.6,128.3,277.3,128.3,277.3"
       id="path187"
       clip-path="url(#SVGID_19_)" /></g><g
     id="g189"><defs
       id="defs191"><path
         id="SVGID_134_"
         d="M165.3,271.7c-10.6,2.5-15.8,3.5-23.2,5.2c-1,0.2-12.9,0.1-13.8,0.3c0,0-9.5-1.7-23.9-5    c-10.6-0.3-23.5-0.7-31.2,2.5c-5.2,2.2-1.8,35.9,2.1,67.5c28.9,22,64.4,36,103,38.5c4.3-32.6,7.8-99.6,1.1-105.6    c-3-2.7-3.1-3.6-9.9-3.6C168.2,271.7,166.9,271.7,165.3,271.7" /></defs><clipPath
       id="SVGID_21_"><use
         xlink:href="#SVGID_134_"
         style="overflow:visible;"
         id="use195" /></clipPath><polygon
       style="clip-path:url(#SVGID_21_);fill:#006E9F;"
       points="104.4,272.3 107.9,289.8 115.6,291.1 115.8,296.4 135.1,303.3    106.4,271.7  "
       id="polygon197"
       clip-path="url(#SVGID_21_)" /><polygon
       style="clip-path:url(#SVGID_21_);fill:#006E9F;"
       points="165.8,272.3 162.4,289.8 154.6,291.1 154.4,296.4 135.1,303.3    163.8,271.7  "
       id="polygon199"
       clip-path="url(#SVGID_21_)" /><path
       style="clip-path:url(#SVGID_21_);fill:#FFFFFF;"
       d="M103.5,269.9c3.6,7.4,31.6,33.4,31.6,33.4c5.9-3.9,29.6-28.9,30.6-34.4   C166.6,263.4,103.5,269.9,103.5,269.9"
       id="path201"
       clip-path="url(#SVGID_21_)" /></g><g
     id="g203"><defs
       id="defs205"><path
         id="SVGID_136_"
         d="M142.1,276.9c-1,0.2-12.9,0.1-13.8,0.3c0,0-9.1-1.7-23.2-4.8c7,9.6,30,30.8,30,30.8    c5.1-3.4,23.7-22.7,29.1-31.3C154.4,274.3,149.3,275.3,142.1,276.9" /></defs><clipPath
       id="SVGID_23_"><use
         xlink:href="#SVGID_136_"
         style="overflow:visible;"
         id="use209" /></clipPath><polygon
       style="clip-path:url(#SVGID_23_);fill:#822927;"
       points="138.5,282.8 131.7,282.8 121.3,274.3 148.9,274.3  "
       id="polygon211"
       clip-path="url(#SVGID_23_)" /><polygon
       style="clip-path:url(#SVGID_23_);fill:#822927;"
       points="147.4,334.8 122.8,334.8 131.7,282.8 138.5,282.8  "
       id="polygon213"
       clip-path="url(#SVGID_23_)" /></g><g
     id="g215"><defs
       id="defs217"><path
         id="SVGID_138_"
         d="M110.7,276.4v2.7c3,3.3,6.6,7,10,10.4h9.7v-12.3c-1.1,0-1.9,0.1-2.1,0.1c0,0-1.7-0.3-4.7-0.9H110.7z" /></defs><clipPath
       id="SVGID_25_"><use
         xlink:href="#SVGID_138_"
         style="overflow:visible;"
         id="use221" /></clipPath><path
       style="clip-path:url(#SVGID_25_);fill:#F4F4F4;"
       d="M125.3,277.5l-6.2,1.4l-5.8,2.9c1.6,1.7,3.3,3.5,5.1,5.2l8.9-7.9   L125.3,277.5"
       id="path223"
       clip-path="url(#SVGID_25_)" /><path
       style="clip-path:url(#SVGID_25_);fill:#7C2724;"
       d="M127.3,277.1l-2,0.5l2,1.6l2.2-2c-0.1,0-0.1,0-0.2,0c-0.5,0-0.9,0-1,0.1   C128.3,277.3,127.9,277.2,127.3,277.1"
       id="path225"
       clip-path="url(#SVGID_25_)" /></g><g
     id="g227"><defs
       id="defs229"><path
         id="SVGID_140_"
         d="M142.1,276.9c-1,0.2-12.9,0.1-13.8,0.3c0,0-9.1-1.7-23.2-4.8c7,9.6,30,30.8,30,30.8    c5.1-3.4,23.7-22.7,29.1-31.3C154.4,274.3,149.3,275.3,142.1,276.9" /></defs><clipPath
       id="SVGID_27_"><use
         xlink:href="#SVGID_140_"
         style="overflow:visible;"
         id="use233" /></clipPath><polygon
       style="clip-path:url(#SVGID_27_);fill:#FFFFFF;"
       points="128.8,277.2 115.5,287.2 99.7,271.7 113.7,271.7  "
       id="polygon235"
       clip-path="url(#SVGID_27_)" /></g><g
     id="g237"><defs
       id="defs239"><path
         id="SVGID_142_"
         d="M144.7,276.4c-0.8,0.2-1.7,0.4-2.5,0.6c-0.2,0-1,0.1-2,0.1v12.4h9.6c3.6-3.8,7.2-7.9,10.1-11.5v-1.6    H144.7z" /></defs><clipPath
       id="SVGID_29_"><use
         xlink:href="#SVGID_142_"
         style="overflow:visible;"
         id="use243" /></clipPath><path
       style="clip-path:url(#SVGID_29_);fill:#F4F4F4;"
       d="M145,277.5l-1.9,1.6l8.9,7.9c1.6-1.8,3.3-3.6,4.8-5.4l-5.3-2.7L145,277.5   "
       id="path245"
       clip-path="url(#SVGID_29_)" /><path
       style="clip-path:url(#SVGID_29_);fill:#7C2724;"
       d="M142.4,276.9c-0.1,0-0.2,0-0.3,0.1c-0.2,0-0.6,0.1-1.3,0.1l2.3,2l1.9-1.6   L142.4,276.9"
       id="path247"
       clip-path="url(#SVGID_29_)" /></g><g
     id="g249"><defs
       id="defs251"><path
         id="SVGID_144_"
         d="M142.1,276.9c-1,0.2-12.9,0.1-13.8,0.3c0,0-9.1-1.7-23.2-4.8c7,9.6,30,30.8,30,30.8    c5.1-3.4,23.7-22.7,29.1-31.3C154.4,274.3,149.3,275.3,142.1,276.9" /></defs><clipPath
       id="SVGID_31_"><use
         xlink:href="#SVGID_144_"
         style="overflow:visible;"
         id="use255" /></clipPath><polygon
       style="clip-path:url(#SVGID_31_);fill:#FFFFFF;"
       points="141.7,276.7 155,287.2 170.8,271.7 156.8,271.7  "
       id="polygon257"
       clip-path="url(#SVGID_31_)" /></g><g
     id="g259"><defs
       id="defs261"><path
         id="SVGID_146_"
         d="M165.3,271.7c-10.6,2.5-15.8,3.5-23.2,5.2c-1,0.2-12.9,0.1-13.8,0.3c0,0-9.5-1.7-23.9-5    c-10.6-0.3-23.5-0.7-31.2,2.5c-5.2,2.2-1.8,35.9,2.1,67.5c28.9,22,64.4,36,103,38.5c4.3-32.6,7.8-99.6,1.1-105.6    c-3-2.7-3.1-3.6-9.9-3.6C168.2,271.7,166.9,271.7,165.3,271.7" /></defs><clipPath
       id="SVGID_33_"><use
         xlink:href="#SVGID_146_"
         style="overflow:visible;"
         id="use265" /></clipPath><path
       style="clip-path:url(#SVGID_33_);fill:#006E9F;"
       d="M182.5,316.1c-9,18.7-5.7,60.7-32.5,73.3c-26.3,12.4-36.7,27.8-3.7,31.3   c31.6,3.3,40.5-19.2,41.6-20.2c2.3-2,12.7-86.6,12.7-86.6L182.5,316.1z"
       id="path267"
       clip-path="url(#SVGID_33_)" /><path
       style="clip-path:url(#SVGID_33_);fill:#006E9F;"
       d="M138.8,312.9c2.7,8.3,7.5,68.2,5.3,70.9c-2.2,2.7-6.2,4.4-6,0.8   C138.2,382,138.8,312.9,138.8,312.9"
       id="path269"
       clip-path="url(#SVGID_33_)" /></g><g
     id="g271"><defs
       id="defs273"><path
         id="SVGID_148_"
         d="M123.1,369c5.6,2.1,11.2,4,17,5.5c0.6-19.2-0.7-54.4-1.5-63C138.6,322.8,131.2,348.5,123.1,369" /></defs><clipPath
       id="SVGID_35_"><use
         xlink:href="#SVGID_148_"
         style="overflow:visible;"
         id="use277" /></clipPath><linearGradient
       id="SVGID_37_"
       gradientUnits="userSpaceOnUse"
       x1="-1460"
       y1="758.3357"
       x2="-1459"
       y2="758.3357"
       gradientTransform="matrix(-6.4384 -1.8844 -1.8844 6.4384 -7825.6719 -7286.7334)"><stop
         offset="0"
         style="stop-color:#399AD6"
         id="stop280" /><stop
         offset="0.4867"
         style="stop-color:#1B94D3"
         id="stop282" /><stop
         offset="1"
         style="stop-color:#008FD1"
         id="stop284" /></linearGradient><polygon
       style="clip-path:url(#SVGID_35_);fill:url(#SVGID_37_);"
       points="139.4,379.3 106.2,369.6 124.5,306.8 157.7,316.5  "
       id="polygon286"
       clip-path="url(#SVGID_35_)" /></g><g
     id="g308"><defs
       id="defs310"><path
         id="SVGID_155_"
         d="M0,190.6c0,105.3,85.4,190.6,190.6,190.6s190.6-85.4,190.6-190.6C381.3,85.4,295.9,0,190.6,0    S0,85.4,0,190.6" /></defs><clipPath
       id="SVGID_43_"><use
         xlink:href="#SVGID_155_"
         style="overflow:visible;"
         id="use314" /></clipPath><path
       style="clip-path:url(#SVGID_43_);fill:#DFCDB5;"
       d="M35.1,78.1c-4.9,35.9,13,127.8,31,156.3c15.5,24.5,49.7,33.4,90.4,34.9   c42.2,1.6,87.8-32.3,94.3-85.3c6.5-53,7.1-119.5,0.8-132.4C245.3,38.7,45.4,1.9,35.1,78.1"
       id="path316"
       clip-path="url(#SVGID_43_)" /></g><g
     id="g318"><defs
       id="defs320"><path
         id="SVGID_157_"
         d="M75,39.1C59.5,50.9,45.9,65,34.7,80.9c-3.6,37.7,13.8,125.7,31.3,153.5c15.5,24.5,49.7,33.4,90.4,34.9    c42.2,1.6,87.8-32.3,94.3-85.3c6.5-53,7.1-119.5,0.8-132.4c-3.3-6.8-60.6-20.3-115.4-20.3C114.2,31.3,92.6,33.5,75,39.1" /></defs><clipPath
       id="SVGID_45_"><use
         xlink:href="#SVGID_157_"
         style="overflow:visible;"
         id="use324" /></clipPath><path
       style="clip-path:url(#SVGID_45_);fill:#D9BBA0;"
       d="M247.7,197.9c-15.4,26.3-48.4,64-95.4,68.3c-47,4.3-69.5-8.7-81.2-16.1   c-11.6-7.3-30.2,31.5-28,33c2.2,1.5,249.9,1.4,248.5,1.7c-1.4,0.3-21.6-104-21.6-104L247.7,197.9z"
       id="path326"
       clip-path="url(#SVGID_45_)" /><path
       style="clip-path:url(#SVGID_45_);fill:#D7B395;"
       d="M65.2,15.2c43.1-7.8,63.7-0.9,81.8,12.1c22.4-9.5,81.8-14.9,101.6,19.2   c19.8,34.2,23.5,65.8,18.6,78.7c-4.9,12.9-76.3-1.7-83.1-33.9c3.5,13.5,4.3,23,8.2,29.9c0.6,1.1-2.3,4.8-3.4,4.4   c-16.4-6.1-53.6-25.3-61.9-41.8c-2.8,18.9-14.9,37.9-34.4,41.8c-7.3,1.4-49.1,5.4-47.2,3.2c0.2,5.7-4.8,34.4-7.4,35.8   c-1.9,1-1.6-4.9-2.4-14.5c-3.4,4.4,0.2,12.8-1.4,14.5c-4.3,4.3-1.9,11.8-1.9,11.8s-22.2-3.7-22.2-52.7C10.1,74.6,22.2,23,65.2,15.2   "
       id="path328"
       clip-path="url(#SVGID_45_)" /></g><g
     id="g330"><defs
       id="defs332"><path
         id="SVGID_159_"
         d="M0,190.6c0,105.3,85.4,190.6,190.6,190.6s190.6-85.4,190.6-190.6C381.3,85.4,295.9,0,190.6,0    S0,85.4,0,190.6" /></defs><clipPath
       id="SVGID_47_"><use
         xlink:href="#SVGID_159_"
         style="overflow:visible;"
         id="use336" /></clipPath><path
       style="clip-path:url(#SVGID_47_);fill:#6E504A;"
       d="M141.9,11.8C164.3,2.3,223.7-3.2,243.5,31   c19.8,34.2,27.4,89.9,22.5,102.8c-4.9,12.9-72.3-19.8-83.5-45.6c3.5,13.5,5.9,26.1,9.8,33.1c0.6,1.1-0.2,2.6-1.3,2.2   c-16.4-6.1-55.6-23.1-64-39.6c-2.8,18.9-38.6,38.1-62.7,39.8c-24.1,1.7-25.8,26-30.1,30.3c-4.3,4.3-7.1,6.9-7.1,6.9   s-17,1.5-17-47.6c0-49.1,15.2-91,58.3-98.7C111.5,6.9,123.8-1.2,141.9,11.8"
       id="path338"
       clip-path="url(#SVGID_47_)" /></g><g
     id="g340"><defs
       id="defs342"><path
         id="SVGID_161_"
         d="M141.9,11.8c-2.1-1.5-4.2-2.7-6.2-3.7c-58.4,17.6-105,62.3-125,119.6c2.9,34.5,16.4,33.3,16.4,33.3    s2.8-2.6,7.1-6.9c4.3-4.3,6-28.6,30.1-30.3c24.1-1.7,59.9-20.9,62.7-39.8c8.3,16.5,47.6,33.5,64,39.6c1.1,0.4,1.9-1.1,1.3-2.2    c-3.9-7-6.4-19.7-9.8-33.1c11.2,25.8,78.6,58.6,83.5,45.6c4.9-12.9-2.7-68.7-22.5-102.8c-11.6-20-36.7-26.4-60.1-26.4    C166.8,4.6,151.2,7.8,141.9,11.8" /></defs><clipPath
       id="SVGID_49_"><use
         xlink:href="#SVGID_161_"
         style="overflow:visible;"
         id="use346" /></clipPath><path
       style="clip-path:url(#SVGID_49_);fill:#86605A;"
       d="M263.1,85.3c-12.4-40-64.8-86.1-96.3-75.3   c-31.4,10.8-76.4,10.8-87.6,10.8C68.1,20.8,22.6,42,4.9,78.9C-12.7,115.8-28.2-21-28.2-21L275.4-64L263.1,85.3z"
       id="path348"
       clip-path="url(#SVGID_49_)" /><path
       style="clip-path:url(#SVGID_49_);fill:#624842;"
       d="M267.3,125.7c-4.1,4.1-70.1-13.6-83.9-37.5c1.2,10.8,30.3,39.7,54,46.6   c23.7,7,28.8,3.5,29.9,2.5C268.4,136.2,267.3,125.7,267.3,125.7"
       id="path350"
       clip-path="url(#SVGID_49_)" /><path
       style="clip-path:url(#SVGID_49_);fill:#624842;"
       d="M193.5,120.7c-5.3-0.4-57.5-24.5-66.5-36.8c2.1,14.9,62.4,47.2,64.7,45.4   C194.1,127.6,193.5,120.7,193.5,120.7"
       id="path352"
       clip-path="url(#SVGID_49_)" /><path
       style="clip-path:url(#SVGID_49_);fill:#624842;"
       d="M112.2,111.8c-9.3,6.7-48.1,9.2-62.4,12.4c-7.2,1.6-13,33.5-19.9,27.5   C37,157.9,2.3,106.5,6.7,77c4.1-28-40.3,43.3-40.3,43.3S6,176,7.7,176c1.7,0,31.4-2.6,33.5-3C43.3,172.6,112.2,111.8,112.2,111.8"
       id="path354"
       clip-path="url(#SVGID_49_)" /></g><g
     id="g356"><defs
       id="defs358"><path
         id="SVGID_163_"
         d="M0,190.6c0,105.3,85.4,190.6,190.6,190.6s190.6-85.4,190.6-190.6C381.3,85.4,295.9,0,190.6,0    S0,85.4,0,190.6" /></defs><clipPath
       id="SVGID_51_"><use
         xlink:href="#SVGID_163_"
         style="overflow:visible;"
         id="use362" /></clipPath><path
       style="clip-path:url(#SVGID_51_);fill:#D7B395;"
       d="M46.4,139.2c-5.6-5.2-10,0.7-10,17.3c0,16.6,16.3,40,15.1,27.6l-1.2-12.4   "
       id="path364"
       clip-path="url(#SVGID_51_)" /><path
       style="clip-path:url(#SVGID_51_);fill:none;stroke:#AD9175;stroke-width:5.167;stroke-linecap:round;stroke-miterlimit:10;"
       d="   M188.6,183.1c-4.9,3-20.3,1-22.4-2.9"
       id="path366"
       clip-path="url(#SVGID_51_)" /><path
       style="clip-path:url(#SVGID_51_);fill:#6E504A;"
       d="M40.3,131c6.5,5.4,10,30.4,12.3,28.2c2.3-2.2,1.2-29-0.8-31.3   C49.8,125.5,40.3,131,40.3,131"
       id="path368"
       clip-path="url(#SVGID_51_)" /><path
       style="clip-path:url(#SVGID_51_);fill:#006E9F;"
       d="M137.6,325.9c0,1.5-1.2,2.7-2.7,2.7c-1.5,0-2.7-1.2-2.7-2.7   c0-1.5,1.2-2.7,2.7-2.7C136.3,323.2,137.6,324.4,137.6,325.9"
       id="path370"
       clip-path="url(#SVGID_51_)" /><path
       style="clip-path:url(#SVGID_51_);fill:#006E9F;"
       d="M137.6,351.8c0,1.5-1.2,2.7-2.7,2.7c-1.5,0-2.7-1.2-2.7-2.7   c0-1.5,1.2-2.7,2.7-2.7C136.3,349,137.6,350.3,137.6,351.8"
       id="path372"
       clip-path="url(#SVGID_51_)" /><path
       style="clip-path:url(#SVGID_51_);fill:#D7B395;"
       d="M40.2,223.4c-0.2-3.1,3-16.8,7.6-19c4.6-2.2,7.3,2.3,5.3,7.4   c-2,5.1-2.2,11-4.4,11.7C46.6,224.1,40.2,223.4,40.2,223.4"
       id="path374"
       clip-path="url(#SVGID_51_)" /><polygon
       style="clip-path:url(#SVGID_51_);fill:#191918;"
       points="64.9,201.8 78.7,175 53.1,167.4 42,186.2  "
       id="polygon376"
       clip-path="url(#SVGID_51_)" /><path
       style="clip-path:url(#SVGID_51_);fill:#282827;"
       d="M22.9,173.6c-2.2-4.5,6.9-19.4,11.9-21.4c9.2,13.4,45.2,66.1,60.7,70.8   c15.5,4.8,13.4,3.3,15.7,1.8c2.4-1.5,10.7,3.3,15,6.8c4.6,3.8,14.7,12.5,16,13.9c1.3,1.3-12.7,21.3-16.4,24.1   c-5.3,4-5.3,4.5-11.7,1.4C107.8,268,52.1,235,22.9,173.6"
       id="path378"
       clip-path="url(#SVGID_51_)" /><path
       style="clip-path:url(#SVGID_51_);fill:#252524;"
       d="M58.8,149.8c0,0-23.8,0.6-24.2,2.7c-0.3,2.1,23,31.6,23,31.6l21.1-9.2   L58.8,149.8z"
       id="path380"
       clip-path="url(#SVGID_51_)" /><path
       style="clip-path:url(#SVGID_51_);fill:#DFCDB5;"
       d="M37.6,239.1c4.2-8.3,1.7-11.9,2.1-14.9c0.5-3,3.4-5.8,12.9-10.7   c12.8-6.6,15.5-1.9,15.9,1.3c10.4-0.5,5.4,3.4,12,5.5c5.5,1.7,8.1,1.7-0.1,17.8c-8.2,16.1-13.9,11.4-16.8,14.9   c-1.4,1.8-5.4,1.6-10.2-0.5c-9.9-4.3-13.8-6.3-12.9-7.9C41.6,242.9,35.8,242.6,37.6,239.1"
       id="path382"
       clip-path="url(#SVGID_51_)" /></g><g
     id="g384"><defs
       id="defs386"><path
         id="SVGID_165_"
         d="M52.6,213.4c-9.6,5-12.5,7.8-12.9,10.7c-0.5,3,2.1,6.6-2.1,14.9c-1.8,3.5,4,3.9,3.1,5.5    c-0.9,1.6,3,3.6,12.9,7.9c4.8,2.1,8.7,2.3,10.2,0.5c2.9-3.6,8.6,1.2,16.8-14.9c8.2-16.1,5.6-16.1,0.1-17.8    c-6.6-2.1-1.6-5.9-12-5.5c-0.3-2-1.4-4.7-5.5-4.7C60.7,210.1,57.3,211,52.6,213.4" /></defs><clipPath
       id="SVGID_53_"><use
         xlink:href="#SVGID_165_"
         style="overflow:visible;"
         id="use390" /></clipPath><path
       style="clip-path:url(#SVGID_53_);fill:#D7B395;"
       d="M24.4,275.4c17-4.2,38.3-8.3,47.1-24.8c8.9-16.6,22.3-27.8,22.3-27.8   S68,299.8,66.7,299.9C65.3,300,24.4,275.4,24.4,275.4"
       id="path392"
       clip-path="url(#SVGID_53_)" /></g><line
     clip-path="url(#SVGID_55_)"
     id="line402"
     y2="254.3"
     x2="63.299999"
     y1="240.8"
     x1="36.5"
     style="fill:none;stroke:#ffffff;stroke-width:5.16699982;stroke-miterlimit:10" /><path
     inkscape:connector-curvature="0"
     clip-path="url(#SVGID_55_)"
     id="path404"
     d="M 79.4,289 C 58.5,296.2 23.5,318.3 18.6,314.1 14.3,310.5 46.8,254 50.1,247.7"
     style="fill:none;stroke:#008fd1;stroke-width:31.00399971;stroke-miterlimit:10" /><g
     id="hand">
     <animateTransform  attributeName="transform"
      attributeType="XML"
      type="rotate"
      values="0 80 289;-1.5 80 289;0 80 289;"
      dur="1s"
      repeatCount="indefinite"/>
     <g
       id="g4398"><g
         id="g73"><defs
           id="defs75"><rect
             id="SVGID_110_"
             x="259.20001"
             y="224.10001"
             width="49"
             height="89.900002" /></defs><clipPath
           id="SVGID_5_"><use
             xlink:href="#SVGID_110_"
             style="overflow:visible"
             id="use79"
             x="0"
             y="0"
             width="100%"
             height="100%" /></clipPath><path
           style="fill:#00577f"
           d="m 274.2,287.7 c -2.8,0 -4.9,-2.2 -4.6,-4.8 l 0.2,-2.5 c 0.2,-2.7 2.7,-4.9 5.5,-4.9 l 2.6,0 c 0,0 0,0 0,0 2.7,0 4.8,2.2 4.6,4.8 l -0.2,2.6 c -0.2,2.7 -2.7,4.9 -5.5,4.9 l -2.6,0 m 1.5,-18.9 c -2.7,0 -4.7,-2.1 -4.5,-4.8 l 0.2,-2.5 c 0.2,-2.7 2.7,-4.9 5.4,-5 l 2.6,-0.1 c 0,0 0.1,0 0.1,0 2.7,0 4.7,2.1 4.4,4.8 l -0.2,2.6 c -0.2,2.7 -2.6,4.9 -5.4,5 l -2.6,0 c 0.1,0 0,0 0,0 m 14.3,-0.3 c -2.7,0 -4.8,-2.1 -4.5,-4.8 l 0.2,-2.6 c 0.2,-2.7 2.6,-4.9 5.3,-5 l 2.6,-0.1 c 0,0 0.1,0 0.1,0 2.7,0 4.7,2.1 4.5,4.8 l -0.2,2.6 c -0.2,2.7 -2.6,5 -5.3,5 l -2.7,0.1 c 0,0 0,0 0,0 M 289.3,229 c -2,2.2 -4.2,5.1 -6.7,8.9 1.8,0.6 3.1,2.4 2.9,4.5 l -0.2,2.6 c -0.2,2.7 -2.6,4.9 -5.3,5 l -2.6,0.1 c -0.1,0 -0.1,0 -0.2,0 -0.8,0 -1.4,-0.2 -2,-0.5 -1.3,2 -2.3,4.3 -3.3,6.8 l 0,0 c 0,0 -3.5,8.5 -5.7,14.8 -0.5,1.2 -1.1,2.4 -1.8,3.6 l 1.3,-2.2 c -0.8,2.3 -1.3,4.1 -1.3,4.7 0,1.9 -5.2,24.9 -5.2,33.5 l 0,0.3 c 0,1.9 0.3,3 0.9,3 0.4,0 0.9,-0.4 1.7,-1.4 6.9,-9.2 18,-13.9 28.8,-25 l -2,0 c -2.8,0 -4.9,-2.2 -4.7,-4.9 l 0.2,-2.6 c 0.2,-2.7 2.6,-4.9 5.4,-4.9 l 2.6,0 c 0,0 0,0 0.1,0 2.7,0 4.8,2.2 4.6,4.9 l 0,0.1 c 2.5,-3.4 4.9,-7.3 7.2,-11.8 -2.7,-0.1 -4.7,-2.2 -4.5,-4.9 l 0.2,-2.6 c 0.2,-2.7 2.6,-5 5.3,-5.1 l 2.6,-0.1 c 0,0 0.1,0 0.1,0 0.1,0 0.3,0 0.4,0 0,-2.7 -0.9,-4.9 -3.5,-6.1 -1,-0.5 -1.8,-0.7 -2.5,-0.7 -0.7,0 -1.3,0.3 -1.9,0.7 0,-1.9 -0.3,-3.3 -1.2,-4.3 -0.7,2.2 -2.7,3.9 -5.1,3.9 l -2.6,0.1 c -0.1,0 -0.1,0 -0.2,0 -2.6,0 -4.6,-2.1 -4.4,-4.7 l 0.2,-2.6 c 0.2,-2.7 2.6,-5 5.3,-5.1 l 2.6,-0.1 c 0.1,0 0.1,0 0.2,0 0.1,0 0.3,0 0.4,0 1.2,-2.8 2.3,-5.6 3,-7.9 -0.9,0.7 -1.9,1.1 -3.1,1.2 l -2.6,0.1 c -0.1,0 -0.2,0 -0.2,0 -1.2,0.3 -2.4,-0.3 -3.2,-1.3"
           id="path81"
           clip-path="url(#SVGID_5_)"
           inkscape:connector-curvature="0" /><path
           style="fill:#9c9b9b"
           d="m 296.9,224.1 c -2.1,0 -4.5,1.5 -7.6,4.9 0.8,0.9 2,1.5 3.3,1.5 0.1,0 0.2,0 0.2,0 l 2.6,-0.1 c 1.1,-0.1 2.2,-0.5 3.1,-1.2 0.8,-2.6 0.9,-4.5 -0.4,-4.9 -0.3,-0.1 -0.8,-0.2 -1.2,-0.2"
           id="path83"
           clip-path="url(#SVGID_5_)"
           inkscape:connector-curvature="0" /><path
           style="fill:#9c9b9b"
           d="m 295.2,237.1 c -0.1,0 -0.1,0 -0.2,0 l -2.6,0.1 c -2.7,0.1 -5.1,2.4 -5.3,5.1 l -0.2,2.6 c -0.2,2.6 1.8,4.7 4.4,4.7 0.1,0 0.1,0 0.2,0 l 2.6,-0.1 c 2.3,-0.1 4.4,-1.8 5.1,-3.9 -0.6,-0.6 -1.4,-0.9 -2.4,-1.1 -0.8,-0.1 -1.5,-0.2 -2,-0.2 -1,0 -1.6,0.2 -2.2,0.8 0.8,-2.3 1.9,-5.1 3.1,-7.9 -0.3,-0.1 -0.4,-0.1 -0.5,-0.1"
           id="path85"
           clip-path="url(#SVGID_5_)"
           inkscape:connector-curvature="0" /><path
           style="fill:#9c9b9b"
           d="m 282.6,237.9 c -1.9,2.9 -4.1,6.3 -6.4,10.2 l 0,0 c -0.4,0.5 -0.7,1 -1,1.5 0.6,0.3 1.3,0.5 2,0.5 0.1,0 0.1,0 0.2,0 L 280,250 c 2.7,-0.1 5.1,-2.3 5.3,-5 l 0.2,-2.6 c 0.2,-2.1 -1,-3.9 -2.9,-4.5"
           id="path87"
           clip-path="url(#SVGID_5_)"
           inkscape:connector-curvature="0" /><path
           style="fill:#9c9b9b"
           d="m 307.8,255.8 c 0,0 -0.1,0 -0.1,0 l -2.6,0.1 c -2.7,0.1 -5.1,2.3 -5.3,5.1 l -0.2,2.6 c -0.2,2.6 1.8,4.8 4.5,4.9 0.6,-1.2 1.2,-2.4 1.8,-3.7 0.3,-0.7 0.6,-1.1 0.8,-1.5 l 0.1,-0.2 0,-0.1 c 0.2,-0.3 0.3,-0.6 0.5,-1 0.2,-0.9 0.4,-1.8 0.6,-2.6 0.2,-1.2 0.4,-2.3 0.3,-3.4 -0.1,-0.2 -0.2,-0.2 -0.4,-0.2"
           id="path89"
           clip-path="url(#SVGID_5_)"
           inkscape:connector-curvature="0" /><path
           style="fill:#9c9b9b"
           d="m 293.7,256.2 c 0,0 -0.1,0 -0.1,0 l -2.6,0.1 c -2.7,0.1 -5.1,2.3 -5.3,5 l -0.2,2.6 c -0.2,2.7 1.8,4.8 4.5,4.8 0,0 0.1,0 0.1,0 l 2.6,0 c 2.8,0 5.2,-2.3 5.3,-5 l 0.2,-2.6 c 0.2,-2.8 -1.8,-4.9 -4.5,-4.9"
           id="path91"
           clip-path="url(#SVGID_5_)"
           inkscape:connector-curvature="0" /><path
           style="fill:#9c9b9b"
           d="m 279.6,256.5 c 0,0 -0.1,0 -0.1,0 l -2.6,0.1 c -2.7,0.1 -5.2,2.3 -5.4,5 l -0.2,2.5 c -0.2,2.6 1.8,4.8 4.5,4.8 0,0 0.1,0 0.1,0 l 2.6,0 c 2.8,0 5.2,-2.3 5.4,-5 l 0.2,-2.6 c 0.1,-2.6 -1.9,-4.8 -4.5,-4.8"
           id="path93"
           clip-path="url(#SVGID_5_)"
           inkscape:connector-curvature="0" /><path
           style="fill:#9c9b9b"
           d="m 292.2,275.3 c 0,0 0,0 0,0 l -2.7,0 c -2.8,0 -5.2,2.2 -5.4,4.9 l -0.2,2.6 c -0.2,2.7 1.9,4.9 4.7,4.9 l 2,0 c 2.1,-2.2 4.2,-4.6 6.3,-7.4 l 0,-0.1 c 0.2,-2.7 -1.9,-4.9 -4.7,-4.9"
           id="path95"
           clip-path="url(#SVGID_5_)"
           inkscape:connector-curvature="0" /><path
           style="fill:#9c9b9b"
           d="m 277.9,275.4 c 0,0 0,0 0,0 l -2.7,0 c -2.8,0 -5.2,2.2 -5.5,4.9 l -0.2,2.5 c -0.2,2.7 1.8,4.8 4.6,4.8 l 2.7,0 c 2.8,0 5.3,-2.2 5.5,-4.9 l 0.2,-2.6 c 0.2,-2.5 -1.8,-4.7 -4.6,-4.7"
           id="path97"
           clip-path="url(#SVGID_5_)"
           inkscape:connector-curvature="0" /></g><path
         inkscape:connector-curvature="0"
         clip-path="url(#SVGID_7_)"
         id="path107"
         d="m 263,255.6 c 1.9,-3.6 0.7,-18.1 4.8,-21.2 4.1,-3.1 7.6,0.8 6.7,6.2 -0.9,5.4 0,11.2 -1.9,12.3 -2,1.1 -9.6,2.7 -9.6,2.7"
         style="fill:#d7b395" /><g
         id="g135"><defs
           id="defs137"><path
             id="SVGID_124_"
             d="m 0,190.6 c 0,105.3 85.4,190.6 190.6,190.6 105.2,0 190.6,-85.4 190.6,-190.6 C 381.3,85.4 295.9,0 190.6,0 85.3,0 0,85.4 0,190.6"
             inkscape:connector-curvature="0" /></defs><clipPath
           id="SVGID_13_"><use
             xlink:href="#SVGID_124_"
             style="overflow:visible"
             id="use141"
             x="0"
             y="0"
             width="100%"
             height="100%" /></clipPath><path
           style="fill:#dfcdb5"
           d="m 254.2,275.8 c 9.5,-14.2 8.7,-31.7 21.1,-35.1 12.4,-3.4 3.3,3.2 3.2,7.7 4,-7.2 15.1,-0.9 19.5,4 4.4,4.9 -3.1,23.1 -11.9,27.3 -8.7,4.2 -11.2,9 -14.4,8.8 -3.2,-0.2 -7.4,-3.3 -7.4,-3.3 l -10.1,-9.4 z"
           id="path143"
           clip-path="url(#SVGID_13_)"
           inkscape:connector-curvature="0" /></g><line
         clip-path="url(#SVGID_16_)"
         id="line163"
         y2="289"
         x2="278.60001"
         y1="274"
         x1="251.7"
         style="fill:none;stroke:#ffffff;stroke-width:5.16699982;stroke-miterlimit:10" /><g
         id="g288"><defs
           id="defs290"><path
             id="SVGID_151_"
             d="m 0,190.6 c 0,105.3 85.4,190.6 190.6,190.6 105.2,0 190.6,-85.4 190.6,-190.6 C 381.3,85.4 295.9,0 190.6,0 85.3,0 0,85.4 0,190.6"
             inkscape:connector-curvature="0" /></defs><clipPath
           id="SVGID_39_"><use
             xlink:href="#SVGID_151_"
             style="overflow:visible"
             id="use294"
             x="0"
             y="0"
             width="100%"
             height="100%" /></clipPath><path
           class="st29"
           d="m 219.5,343 c -2.3,0 -4.5,-0.4 -6.6,-1.3 -9.4,-4 -52.5,-40.9 -52.9,-41.3 l 17.6,-26.2 c 9.9,8.6 33.2,28.3 43.3,35.9 7,-5.3 19.7,-17.8 30.3,-35.7 l 26.7,15.8 C 269,304.9 241.3,343 219.5,343"
           id="path296"
           clip-path="url(#SVGID_39_)"
           inkscape:connector-curvature="0"
           style="fill:#008fd1" /></g><g
         id="g298"><defs
           id="defs300"><path
             id="SVGID_153_"
             d="m 160,300.3 c 0.4,0.4 43.5,37.3 52.9,41.3 2.1,0.9 4.3,1.3 6.6,1.3 21.8,0 49.5,-38 58.3,-52.9 L 251.1,274.2 C 240.5,292 227.8,304.6 220.8,309.9 210.7,302.3 187.4,282.6 177.6,274 L 160,300.3 Z"
             inkscape:connector-curvature="0" /></defs><clipPath
           id="SVGID_41_"><use
             xlink:href="#SVGID_153_"
             style="overflow:visible"
             id="use304"
             x="0"
             y="0"
             width="100%"
             height="100%" /></clipPath><path
           class="st30"
           d="m 195.2,330.8 c 36.6,20.2 71.3,-17.7 86.1,-50.4 14.9,-32.7 18.1,45 18.1,45 0,0 -82,46.5 -82.9,46.7 l -21.3,-41.3 z"
           id="path306"
           clip-path="url(#SVGID_41_)"
           inkscape:connector-curvature="0"
           style="fill:#006e9f" /></g><path
         inkscape:connector-curvature="0"
         clip-path="url(#SVGID_55_)"
         id="path406"
         d="m 268,245.7 c 11.2,-18.5 17.3,-25.3 22,-23.8 3.8,1.2 -5.2,16.6 -6.4,23.4 -1.3,6.9 -15.6,0.4 -15.6,0.4"
         style="fill:#dfcdb5" /></g><path
       style="fill:#dfcdb5"
       d="m 280.6,248.5 c 3.6,-6.1 3.4,-7.3 7.9,-6.4 4.5,0.8 4,5 2.8,11.8 -1.3,6.8 -10.7,-5.4 -10.7,-5.4"
       id="path408"
       clip-path="url(#SVGID_55_)"
       inkscape:connector-curvature="0" /></g><path
     inkscape:connector-curvature="0"
     clip-path="url(#SVGID_55_)"
     id="path410"
     d="m 106.4,381.3 5.8,16.5 c -3.4,3.1 -11,6.8 -22.3,7.9 l -5.8,-16.5 22.3,-7.9 z"
     style="fill:#f4f4f4" /><path
     inkscape:connector-curvature="0"
     clip-path="url(#SVGID_55_)"
     id="path412"
     d="m 210.1,171.9 0,0 c 7.5,0 13.6,-6.1 13.6,-13.6 l 0,-12.7 c 0,-7.5 -6.1,-13.6 -13.6,-13.6 -7.5,0 -13.6,6.1 -13.6,13.6 l 0,12.7 c 0.1,7.5 6.2,13.6 13.6,13.6"
     style="fill:#3c2b27" /><path
     inkscape:connector-curvature="0"
     clip-path="url(#SVGID_55_)"
     id="path414"
     d="m 143.8,171.9 0,0 c 7.5,0 13.6,-6.1 13.6,-13.6 l 0,-12.7 c 0,-7.5 -6.1,-13.6 -13.6,-13.6 -7.5,0 -13.6,6.1 -13.6,13.6 l 0,12.7 c 0,7.5 6.1,13.6 13.6,13.6"
     style="fill:#3c2b27" /><path
     inkscape:connector-curvature="0"
     clip-path="url(#SVGID_55_)"
     id="path416"
     d="m 136.7,212.1 c -5.1,8 -3.6,14.8 0,18 3.5,3.2 14.9,-0.1 17.4,-6.7 -5.9,-2.8 -17.4,-11.3 -17.4,-11.3"
     style="fill:#822927" /><path
     inkscape:connector-curvature="0"
     clip-path="url(#SVGID_55_)"
     id="path418"
     d="m 132.1,207.4 c 11.7,12.7 20.9,19.3 42.1,19.3 8.1,0 21,-4.9 28.3,-8.5"
     style="fill:none;stroke:#3c2b27;stroke-width:5.16699982;stroke-miterlimit:10" /><g
     id="g420"><defs
       id="defs422"><rect
         id="SVGID_169_"
         x="-1460"
         y="-320"
         width="1920"
         height="1080" /></defs><clipPath
       id="SVGID_56_"><use
         xlink:href="#SVGID_169_"
         style="overflow:visible;"
         id="use426" /></clipPath></g><g
     id="g428"><defs
       id="defs430"><rect
         id="SVGID_171_"
         x="-1460"
         y="-320"
         width="1920"
         height="1080" /></defs><clipPath
       id="SVGID_58_"><use
         xlink:href="#SVGID_171_"
         style="overflow:visible;"
         id="use434" /></clipPath></g></svg>