<?xml version="1.0" encoding="UTF-8" standalone="no"?>
<!-- Generator: Adobe Illustrator 19.1.1, SVG Export Plug-In . SVG Version: 6.00 Build 0)  -->

<svg
   xmlns:dc="http://purl.org/dc/elements/1.1/"
   xmlns:cc="http://creativecommons.org/ns#"
   xmlns:rdf="http://www.w3.org/1999/02/22-rdf-syntax-ns#"
   xmlns:svg="http://www.w3.org/2000/svg"
   xmlns="http://www.w3.org/2000/svg"
   xmlns:xlink="http://www.w3.org/1999/xlink"
   xmlns:sodipodi="http://sodipodi.sourceforge.net/DTD/sodipodi-0.dtd"
   xmlns:inkscape="http://www.inkscape.org/namespaces/inkscape"
   version="1.1"
   id="Layer_1"
   x="0px"
   y="0px"
   viewBox="0 0 381.3 381.3"
   style="enable-background:new 0 0 381.3 381.3;"
   xml:space="preserve"
   inkscape:version="0.91 r13725"
   sodipodi:docname="test2-02.svg"><metadata
     id="metadata103"><rdf:RDF><cc:Work
         rdf:about=""><dc:format>image/svg+xml</dc:format><dc:type
           rdf:resource="http://purl.org/dc/dcmitype/StillImage" /><dc:title></dc:title></cc:Work></rdf:RDF></metadata><defs
     id="defs101" /><sodipodi:namedview
     pagecolor="#ffffff"
     bordercolor="#666666"
     borderopacity="1"
     objecttolerance="10"
     gridtolerance="10"
     guidetolerance="10"
     inkscape:pageopacity="0"
     inkscape:pageshadow="2"
     inkscape:window-width="978"
     inkscape:window-height="864"
     id="namedview99"
     showgrid="false"
     inkscape:zoom="0.21882665"
     inkscape:cx="56.051436"
     inkscape:cy="60.06685"
     inkscape:window-x="2777"
     inkscape:window-y="335"
     inkscape:window-maximized="0"
     inkscape:current-layer="Layer_1" /><style
     type="text/css"
     id="style3">
	.st0{clip-path:url(#SVGID_2_);fill:#92B43A;}
	.st1{clip-path:url(#SVGID_2_);fill:#DFCDB5;}
	.st2{clip-path:url(#SVGID_2_);fill:#006E9F;}
	.st3{clip-path:url(#SVGID_2_);fill:#EAEAEA;}
	.st4{clip-path:url(#SVGID_2_);fill:#C3C3C3;}
	.st5{clip-path:url(#SVGID_2_);fill:#006591;}
	.st6{clip-path:url(#SVGID_2_);fill:#008FD1;}
	.st7{clip-path:url(#SVGID_2_);fill:#FFFFFF;}
	.st8{clip-path:url(#SVGID_2_);fill:#191918;}
	.st9{clip-path:url(#SVGID_2_);fill:#282827;}
	.st10{clip-path:url(#SVGID_2_);fill:#252524;}
	.st11{clip-path:url(#SVGID_2_);fill:#D7B395;}
	.st12{clip-path:url(#SVGID_2_);fill:none;stroke:#00425D;stroke-width:12.107;stroke-miterlimit:10;}
	.st13{clip-path:url(#SVGID_2_);fill:#00425D;}
	.st14{clip-path:url(#SVGID_4_);fill:#006E9F;}
	.st15{clip-path:url(#SVGID_6_);fill:#92B43A;}
	.st16{clip-path:url(#SVGID_6_);fill:#EAEAEA;}
	.st17{clip-path:url(#SVGID_6_);fill:#C3C3C3;}
	.st18{clip-path:url(#SVGID_6_);fill:#006591;}
	.st19{clip-path:url(#SVGID_6_);fill:#008FD1;}
	.st20{clip-path:url(#SVGID_6_);fill:#006E9F;}
	.st21{clip-path:url(#SVGID_6_);fill:#FFFFFF;}
	.st22{clip-path:url(#SVGID_6_);fill:#191918;}
	.st23{clip-path:url(#SVGID_6_);fill:#282827;}
	.st24{clip-path:url(#SVGID_6_);fill:#252524;}
	.st25{clip-path:url(#SVGID_6_);fill:none;stroke:#000000;stroke-width:2.3841;stroke-miterlimit:10;}
	.st26{clip-path:url(#SVGID_8_);fill:#92B43A;}
	.st27{clip-path:url(#SVGID_8_);fill:none;stroke:#008FD1;stroke-width:16.3815;stroke-miterlimit:10;}
	.st28{clip-path:url(#SVGID_8_);fill:#624842;}
	.st29{clip-path:url(#SVGID_8_);fill:#6C852C;}
	.st30{clip-path:url(#SVGID_8_);fill:#6E504A;}
	.st31{clip-path:url(#SVGID_10_);fill:#624842;}
	.st32{clip-path:url(#SVGID_12_);fill:#6E504A;}
	.st33{clip-path:url(#SVGID_14_);fill:#624842;}
	.st34{clip-path:url(#SVGID_16_);fill:#00425D;}
	.st35{clip-path:url(#SVGID_18_);fill:none;stroke:#000000;stroke-width:5.4605;stroke-miterlimit:10;}
	.st36{clip-path:url(#SVGID_18_);fill:#CD8D52;}
	.st37{clip-path:url(#SVGID_18_);fill:#002F44;}
	.st38{clip-path:url(#SVGID_20_);fill:#D7B395;}
	.st39{clip-path:url(#SVGID_20_);fill:#008FD1;}
	.st40{clip-path:url(#SVGID_22_);fill:#006E9F;}
	.st41{clip-path:url(#SVGID_22_);fill:#FFFFFF;}
	.st42{clip-path:url(#SVGID_24_);fill:#822927;}
	.st43{clip-path:url(#SVGID_26_);fill:#006998;}
	.st44{clip-path:url(#SVGID_26_);fill:#F4F4F4;}
	.st45{clip-path:url(#SVGID_26_);fill:#7C2724;}
	.st46{clip-path:url(#SVGID_28_);fill:#FFFFFF;}
	.st47{clip-path:url(#SVGID_30_);fill:#F4F4F4;}
	.st48{clip-path:url(#SVGID_30_);fill:#7C2724;}
	.st49{clip-path:url(#SVGID_32_);fill:#FFFFFF;}
	.st50{clip-path:url(#SVGID_34_);fill:#006E9F;}
	.st51{clip-path:url(#SVGID_36_);fill:url(#SVGID_37_);}
	.st52{clip-path:url(#SVGID_39_);fill:#DFCDB5;}
	.st53{clip-path:url(#SVGID_41_);fill:#D9BBA0;}
	.st54{clip-path:url(#SVGID_41_);fill:#D7B395;}
	.st55{clip-path:url(#SVGID_43_);fill:#6E504A;}
	.st56{clip-path:url(#SVGID_45_);fill:#86605A;}
	.st57{clip-path:url(#SVGID_45_);fill:#624842;}
	.st58{clip-path:url(#SVGID_47_);fill:#D7B395;}
	.st59{clip-path:url(#SVGID_47_);fill:#3C2B27;}
	.st60{clip-path:url(#SVGID_47_);fill:none;stroke:#AD9175;stroke-width:2.7302;stroke-linecap:round;stroke-miterlimit:10;}
	.st61{clip-path:url(#SVGID_47_);fill:#6B222C;}
	.st62{clip-path:url(#SVGID_49_);fill:#822927;}
	.st63{clip-path:url(#SVGID_49_);fill:#FFFFFF;}
	.st64{clip-path:url(#SVGID_51_);fill:#6E504A;}
	.st65{clip-path:url(#SVGID_51_);fill:#006E9F;}
	.st66{clip-path:url(#SVGID_51_);fill:#D7B395;}
	.st67{clip-path:url(#SVGID_51_);fill:#191918;}
	.st68{clip-path:url(#SVGID_51_);fill:#282827;}
	.st69{clip-path:url(#SVGID_51_);fill:#252524;}
	.st70{clip-path:url(#SVGID_51_);fill:#DFCDB5;}
	.st71{clip-path:url(#SVGID_53_);fill:#D7B395;}
	.st72{clip-path:url(#SVGID_55_);fill:none;stroke:#FFFFFF;stroke-width:2.7302;stroke-miterlimit:10;}
	.st73{clip-path:url(#SVGID_55_);fill:none;stroke:#008FD1;stroke-width:16.3815;stroke-miterlimit:10;}
	.st74{clip-path:url(#SVGID_55_);fill:none;stroke:#624842;stroke-width:2.7302;stroke-miterlimit:10;}
	.st75{clip-path:url(#SVGID_55_);fill:#FFF491;}
	.st76{clip-path:url(#SVGID_55_);fill:none;stroke:#ECBD32;stroke-width:4.4203;}
	.st77{clip-path:url(#SVGID_55_);fill:none;stroke:#A8A8A8;stroke-width:2.7302;stroke-linecap:round;}
	.st78{clip-path:url(#SVGID_55_);fill:none;stroke:#959595;stroke-width:2.7302;stroke-linecap:round;}
	.st79{clip-path:url(#SVGID_55_);fill:none;stroke:#6F6F6E;stroke-width:2.7302;stroke-linecap:round;}
	.st80{clip-path:url(#SVGID_55_);fill:none;stroke:#5F5F5E;stroke-width:2.7302;stroke-linecap:round;}
	.st81{clip-path:url(#SVGID_55_);fill:#FFFFFF;}
	.st82{clip-path:url(#SVGID_55_);fill:none;stroke:#000000;stroke-width:2.7302;stroke-miterlimit:10;}
	.st83{clip-path:url(#SVGID_55_);}
	.st84{clip-path:url(#SVGID_55_);fill:#F4F4F4;}
	.st85{clip-path:url(#SVGID_57_);fill:#92B43A;}
	.st86{clip-path:url(#SVGID_57_);fill:#EAEAEA;}
	.st87{clip-path:url(#SVGID_57_);fill:#C3C3C3;}
	.st88{clip-path:url(#SVGID_57_);fill:#006591;}
	.st89{clip-path:url(#SVGID_57_);fill:#008FD1;}
	.st90{clip-path:url(#SVGID_57_);fill:#006E9F;}
	.st91{clip-path:url(#SVGID_57_);fill:#FFFFFF;}
	.st92{clip-path:url(#SVGID_57_);fill:#191918;}
	.st93{clip-path:url(#SVGID_57_);fill:#282827;}
	.st94{clip-path:url(#SVGID_57_);fill:#252524;}
	.st95{clip-path:url(#SVGID_57_);fill:#6C852C;}
	.st96{clip-path:url(#SVGID_59_);fill:#00577F;}
	.st97{clip-path:url(#SVGID_59_);fill:#9C9B9B;}
	.st98{clip-path:url(#SVGID_61_);fill:#D7B395;}
	.st99{clip-path:url(#SVGID_61_);fill:#624842;}
	.st100{clip-path:url(#SVGID_61_);fill:#6C852C;}
	.st101{clip-path:url(#SVGID_61_);fill:#6E504A;}
	.st102{clip-path:url(#SVGID_63_);}
	.st103{clip-path:url(#SVGID_65_);fill:#624842;}
	.st104{clip-path:url(#SVGID_67_);fill:#6E504A;}
	.st105{clip-path:url(#SVGID_69_);fill:#624842;}
	.st106{clip-path:url(#SVGID_71_);fill:#DFCDB5;}
	.st107{clip-path:url(#SVGID_73_);fill:#D7B395;}
	.st108{clip-path:url(#SVGID_75_);fill:none;stroke:#FFFFFF;stroke-width:3.96;stroke-miterlimit:10;}
	.st109{clip-path:url(#SVGID_75_);fill:#00425D;}
	.st110{clip-path:url(#SVGID_77_);fill:none;stroke:#000000;stroke-width:7.9199;stroke-miterlimit:10;}
	.st111{clip-path:url(#SVGID_77_);fill:#CD8D52;}
	.st112{clip-path:url(#SVGID_77_);fill:#002F44;}
	.st113{clip-path:url(#SVGID_79_);fill:#D7B395;}
	.st114{clip-path:url(#SVGID_79_);fill:#008FD1;}
	.st115{clip-path:url(#SVGID_81_);fill:#006E9F;}
	.st116{clip-path:url(#SVGID_81_);fill:#FFFFFF;}
	.st117{clip-path:url(#SVGID_83_);fill:#822927;}
	.st118{clip-path:url(#SVGID_85_);fill:#F4F4F4;}
	.st119{clip-path:url(#SVGID_85_);fill:#7C2724;}
	.st120{clip-path:url(#SVGID_87_);fill:#FFFFFF;}
	.st121{clip-path:url(#SVGID_89_);fill:#F4F4F4;}
	.st122{clip-path:url(#SVGID_89_);fill:#7C2724;}
	.st123{clip-path:url(#SVGID_91_);fill:#FFFFFF;}
	.st124{clip-path:url(#SVGID_93_);fill:#006E9F;}
	.st125{clip-path:url(#SVGID_95_);fill:url(#SVGID_96_);}
	.st126{clip-path:url(#SVGID_98_);fill:#008FD1;}
	.st127{clip-path:url(#SVGID_100_);fill:#006E9F;}
	.st128{clip-path:url(#SVGID_102_);fill:#DFCDB5;}
	.st129{clip-path:url(#SVGID_104_);fill:#D9BBA0;}
	.st130{clip-path:url(#SVGID_104_);fill:#D7B395;}
	.st131{clip-path:url(#SVGID_106_);fill:#6E504A;}
	.st132{clip-path:url(#SVGID_108_);fill:#86605A;}
	.st133{clip-path:url(#SVGID_108_);fill:#624842;}
	.st134{clip-path:url(#SVGID_110_);fill:#D7B395;}
	.st135{clip-path:url(#SVGID_110_);fill:none;stroke:#3C2B27;stroke-width:3.96;stroke-miterlimit:10;}
	.st136{clip-path:url(#SVGID_110_);fill:none;stroke:#AD9175;stroke-width:3.96;stroke-linecap:round;stroke-miterlimit:10;}
	.st137{clip-path:url(#SVGID_110_);fill:#6E504A;}
	.st138{clip-path:url(#SVGID_110_);fill:#006E9F;}
	.st139{clip-path:url(#SVGID_110_);fill:#191918;}
	.st140{clip-path:url(#SVGID_110_);fill:#282827;}
	.st141{clip-path:url(#SVGID_110_);fill:#252524;}
	.st142{clip-path:url(#SVGID_110_);fill:#DFCDB5;}
	.st143{clip-path:url(#SVGID_112_);fill:#D7B395;}
	.st144{clip-path:url(#SVGID_114_);fill:none;stroke:#FFFFFF;stroke-width:3.96;stroke-miterlimit:10;}
	.st145{clip-path:url(#SVGID_114_);fill:none;stroke:#008FD1;stroke-width:23.7598;stroke-miterlimit:10;}
	.st146{clip-path:url(#SVGID_114_);fill:#DFCDB5;}
	.st147{clip-path:url(#SVGID_114_);fill:none;stroke:#3C2B27;stroke-width:3.96;stroke-miterlimit:10;}
	.st148{clip-path:url(#SVGID_114_);fill:#F4F4F4;}
	.st149{clip-path:url(#SVGID_116_);fill:#B8B8B8;}
	.st150{clip-path:url(#SVGID_118_);fill:#008FD1;}
</style><g
     id="g15"><defs
       id="defs17"><path
         id="SVGID_5_"
         d="M0,190.6c0,105.3,85.4,190.6,190.6,190.6c105.3,0,190.6-85.4,190.6-190.6C381.3,85.4,295.9,0,190.6,0    C85.4,0,0,85.4,0,190.6" /></defs><clipPath
       id="SVGID_4_"><use
         xlink:href="#SVGID_5_"
         style="overflow:visible;"
         id="use21" /></clipPath><rect
       x="-63"
       y="-86.7"
       style="clip-path:url(#SVGID_4_);fill:#92B43A;"
       width="472"
       height="619.4"
       id="rect23"
       clip-path="url(#SVGID_4_)" /><polygon
       style="clip-path:url(#SVGID_4_);fill:#EAEAEA;"
       points="162.8,125.9 162.8,475.5 409,479.7 409,104.9  "
       id="polygon25"
       clip-path="url(#SVGID_4_)" /><path
       style="clip-path:url(#SVGID_4_);fill:#C3C3C3;"
       d="M166.6,342c9.6,20.9,50.7,34.3,83.7,33c32.9-1.3,31.9-10.6,34.8-41.2   c2.8-30.6-113.9-9.9-114.4-7.8"
       id="path27"
       clip-path="url(#SVGID_4_)" /><path
       style="clip-path:url(#SVGID_4_);fill:#006591;"
       d="M142.6,312.4c7.1,24,35.8,38.9,57,44.4c21.2,5.5,80.6,5.2,83.7-14.9   c3-20.2-29-37.8-29-37.8L142.6,312.4z"
       id="path29"
       clip-path="url(#SVGID_4_)" /><path
       style="clip-path:url(#SVGID_4_);fill:#008FD1;"
       d="M273.9,152.9c-25.5,1.4-90.6,8.4-101.5,24.6   c-10.9,16.2-25.6,64.6-27.4,85.1c-1.8,20.5-13.2,57.9,12.8,64.5c26,6.6,78.6,18,98.2,0.3c19.6-17.7,33.4-166,28.2-166.7   C278.8,160,273.9,152.9,273.9,152.9"
       id="path31"
       clip-path="url(#SVGID_4_)" /><path
       class="st14"
       d="M273.9,152.9c9.3,6.1,20.2,9.8,20.2,24.4c0,14.6-6.3,157.7-10.8,164.5c-4.5,6.8-27.5,0.3-27.4-14.4   C259.8,314,273.9,152.9,273.9,152.9"
       id="path33"
       clip-path="url(#SVGID_4_)" /><path
       style="clip-path:url(#SVGID_4_);fill:#FFFFFF;"
       d="M235.4,219.7l-2.3,0.1c-2.4,0.1-4.3-1.9-4.2-4.5l0.1-2.5   c0.1-2.6,2.2-4.8,4.7-4.9l2.3-0.1c2.4-0.1,4.3,1.9,4.2,4.5l-0.1,2.5C240,217.3,237.9,219.6,235.4,219.7"
       id="path35"
       clip-path="url(#SVGID_4_)" /><path
       style="clip-path:url(#SVGID_4_);fill:#FFFFFF;"
       d="M235.4,219.7l-2.3,0.1c-2.4,0.1-4.3-1.9-4.2-4.5l0.1-2.5   c0.1-2.6,2.2-4.8,4.7-4.9l2.3-0.1c2.4-0.1,4.3,1.9,4.2,4.5l-0.1,2.5C240,217.3,237.9,219.6,235.4,219.7"
       id="path37"
       clip-path="url(#SVGID_4_)" /><path
       style="clip-path:url(#SVGID_4_);fill:#FFFFFF;"
       d="M222.8,220.3l-2.3,0.1c-2.4,0.1-4.3-1.9-4.1-4.4l0.2-2.4   c0.2-2.5,2.3-4.7,4.7-4.9l2.3-0.1c2.4-0.1,4.3,1.8,4.1,4.4l-0.1,2.5C227.4,218,225.3,220.2,222.8,220.3"
       id="path39"
       clip-path="url(#SVGID_4_)" /><path
       style="clip-path:url(#SVGID_4_);fill:#FFFFFF;"
       d="M210.2,220.9l-2.3,0.1c-2.4,0.1-4.3-1.8-4.1-4.4l0.2-2.4   c0.2-2.5,2.3-4.7,4.7-4.8l2.3-0.1c2.4-0.1,4.3,1.8,4.1,4.4l-0.2,2.4C214.8,218.6,212.6,220.8,210.2,220.9"
       id="path41"
       clip-path="url(#SVGID_4_)" /><path
       style="clip-path:url(#SVGID_4_);fill:#FFFFFF;"
       d="M197.6,221.5l-2.3,0.1c-2.4,0.1-4.3-1.8-4-4.3l0.2-2.4   c0.2-2.5,2.4-4.6,4.8-4.8l2.3-0.1c2.4-0.1,4.2,1.8,4,4.3l-0.2,2.4C202.1,219.2,200,221.4,197.6,221.5"
       id="path43"
       clip-path="url(#SVGID_4_)" /><path
       style="clip-path:url(#SVGID_4_);fill:#FFFFFF;"
       d="M234.5,237.9l-2.4,0.1c-2.5,0.1-4.4-2-4.2-4.5l0.1-2.5   c0.1-2.6,2.3-4.8,4.7-4.9l2.3-0.1c2.5-0.1,4.4,1.9,4.2,4.5l-0.1,2.5C239.1,235.7,237,237.8,234.5,237.9"
       id="path45"
       clip-path="url(#SVGID_4_)" /><path
       style="clip-path:url(#SVGID_4_);fill:#FFFFFF;"
       d="M221.7,238.3l-2.4,0.1c-2.5,0.1-4.4-1.9-4.2-4.5l0.2-2.4   c0.2-2.5,2.3-4.7,4.8-4.8l2.3-0.1c2.5-0.1,4.3,1.9,4.2,4.5l-0.1,2.5C226.3,236.1,224.2,238.2,221.7,238.3"
       id="path47"
       clip-path="url(#SVGID_4_)" /><path
       style="clip-path:url(#SVGID_4_);fill:#FFFFFF;"
       d="M208.9,238.7l-2.4,0.1c-2.5,0.1-4.3-1.9-4.1-4.4l0.2-2.4   c0.2-2.5,2.4-4.6,4.8-4.8l2.3-0.1c2.5-0.1,4.3,1.9,4.1,4.4l-0.2,2.4C213.6,236.5,211.4,238.7,208.9,238.7"
       id="path49"
       clip-path="url(#SVGID_4_)" /><path
       style="clip-path:url(#SVGID_4_);fill:#FFFFFF;"
       d="M196.1,239.1l-2.4,0.1c-2.5,0.1-4.3-1.9-4.1-4.4l0.2-2.4   c0.2-2.5,2.4-4.6,4.9-4.7l2.3-0.1c2.5-0.1,4.3,1.9,4.1,4.4l-0.2,2.4C200.8,236.9,198.6,239.1,196.1,239.1"
       id="path51"
       clip-path="url(#SVGID_4_)" /><path
       style="clip-path:url(#SVGID_4_);fill:#FFFFFF;"
       d="M233.6,256.2l-2.4,0c-2.5,0-4.4-2-4.3-4.6l0.1-2.5   c0.1-2.6,2.3-4.7,4.8-4.8l2.4-0.1c2.5-0.1,4.4,2,4.3,4.6l-0.1,2.5C238.3,254,236.1,256.1,233.6,256.2"
       id="path53"
       clip-path="url(#SVGID_4_)" /><path
       style="clip-path:url(#SVGID_4_);fill:#FFFFFF;"
       d="M220.6,256.4l-2.4,0c-2.5,0-4.4-2-4.3-4.5l0.2-2.4   c0.2-2.5,2.3-4.7,4.8-4.7l2.4-0.1c2.5-0.1,4.4,2,4.3,4.5l-0.1,2.5C225.3,254.2,223.2,256.3,220.6,256.4"
       id="path55"
       clip-path="url(#SVGID_4_)" /><path
       style="clip-path:url(#SVGID_4_);fill:#FFFFFF;"
       d="M207.7,256.6l-2.4,0c-2.5,0-4.4-2-4.2-4.5l0.2-2.4   c0.2-2.5,2.4-4.6,4.9-4.7l2.4-0.1c2.5-0.1,4.4,2,4.2,4.5l-0.2,2.4C212.4,254.4,210.2,256.5,207.7,256.6"
       id="path57"
       clip-path="url(#SVGID_4_)" /><path
       style="clip-path:url(#SVGID_4_);fill:#FFFFFF;"
       d="M194.7,256.8l-2.4,0c-2.5,0-4.4-2-4.2-4.4l0.2-2.4   c0.2-2.5,2.4-4.6,4.9-4.6l2.4-0.1c2.5-0.1,4.4,1.9,4.2,4.4l-0.2,2.4C199.4,254.6,197.2,256.7,194.7,256.8"
       id="path59"
       clip-path="url(#SVGID_4_)" /><path
       style="clip-path:url(#SVGID_4_);fill:#FFFFFF;"
       d="M232.7,274.4h-2.4c-2.5,0-4.5-2.1-4.4-4.7l0.1-2.5   c0.1-2.6,2.3-4.7,4.8-4.7l2.4,0c2.5,0,4.5,2.1,4.4,4.7l-0.1,2.5C237.4,272.3,235.3,274.4,232.7,274.4"
       id="path61"
       clip-path="url(#SVGID_4_)" /><path
       style="clip-path:url(#SVGID_4_);fill:#FFFFFF;"
       d="M219.6,274.4h-2.4c-2.5,0-4.5-2.1-4.3-4.6l0.2-2.4   c0.2-2.5,2.4-4.6,4.9-4.7l2.4,0c2.5,0,4.5,2,4.3,4.6l-0.1,2.5C224.3,272.3,222.1,274.4,219.6,274.4"
       id="path63"
       clip-path="url(#SVGID_4_)" /><path
       style="clip-path:url(#SVGID_4_);fill:#FFFFFF;"
       d="M206.4,274.4H204c-2.5,0-4.5-2.1-4.3-4.6l0.2-2.4c0.2-2.5,2.4-4.6,4.9-4.6   l2.4,0c2.5,0,4.4,2,4.3,4.6l-0.2,2.4C211.2,272.3,208.9,274.4,206.4,274.4"
       id="path65"
       clip-path="url(#SVGID_4_)" /><path
       style="clip-path:url(#SVGID_4_);fill:#FFFFFF;"
       d="M193.2,274.4h-2.4c-2.5,0-4.4-2-4.2-4.5l0.2-2.4c0.2-2.5,2.5-4.5,5-4.6   l2.4,0c2.5,0,4.4,2,4.2,4.5l-0.2,2.4C198,272.4,195.8,274.4,193.2,274.4"
       id="path67"
       clip-path="url(#SVGID_4_)" /><path
       class="st14"
       d="M183.8,188.3v7.9l-5.9,28.4c0,0-10.6,13.9-10.6,21.7c0,7.9-6.8,65.5-6.8,65.5s-13.5,1.2-15,0   c-1.5-1.2-5-10.6-5-10.6l19.1-90l15.9-25.1L183.8,188.3z"
       id="path69"
       clip-path="url(#SVGID_4_)" /><polygon
       style="clip-path:url(#SVGID_4_);fill:#191918;"
       points="147.8,221.1 175,217.7 167.6,193.9 147.8,195.2  "
       id="polygon71"
       clip-path="url(#SVGID_4_)" /><path
       style="clip-path:url(#SVGID_4_);fill:#282827;"
       d="M147.5,173.8c2.3-4.1,18.1-4.8,22.2-2.1c-5.4,14.2-26.5,69.7-22.2,84.2   c4.4,14.5,4.4,12.1,6.7,13.1c2.4,1,3,10,2.6,15.2c-0.5,5.5-1.9,17.9-2.2,19.7c-0.3,1.7-22.6,1.4-26.5,0c-5.7-2-6-1.7-7.1-8.3   C119.9,289.1,116.2,228.7,147.5,173.8"
       id="path73"
       clip-path="url(#SVGID_4_)" /><path
       style="clip-path:url(#SVGID_4_);fill:#252524;"
       d="M183.8,189c0,0-12.7-18.1-14.4-17.3c-1.8,0.8-12,34.4-12,34.4l17.7,11.5   L183.8,189z"
       id="path75"
       clip-path="url(#SVGID_4_)" /><path
       style="clip-path:url(#SVGID_4_);fill:none;stroke:#000000;stroke-width:2.3841;stroke-miterlimit:10;"
       d="M147,147.6   c5.5-22.3,27.5-35.7,49.2-30.1c21.7,5.6,34.8,28.3,29.3,50.5"
       id="path77"
       clip-path="url(#SVGID_4_)" /><path
       style="clip-path:url(#SVGID_4_);fill:none;stroke:#000000;stroke-width:2.3841;stroke-miterlimit:10;"
       d="M105.9,135.8   c11.3-45.7,56.5-73.3,100.9-61.7c44.5,11.6,71.4,58,60.1,103.7"
       id="path79"
       clip-path="url(#SVGID_4_)" /><path
       style="clip-path:url(#SVGID_4_);fill:none;stroke:#000000;stroke-width:2.3841;stroke-miterlimit:10;"
       d="M64.9,124.1   C81.9,55,150.3,13.1,217.6,30.7c67.3,17.5,108,87.8,90.9,156.9"
       id="path81"
       clip-path="url(#SVGID_4_)" /></g><g
     id="g83"><defs
       id="defs85"><rect
         id="SVGID_115_"
         x="-1460"
         y="-320"
         width="1920"
         height="1080" /></defs><clipPath
       id="SVGID_6_"><use
         xlink:href="#SVGID_115_"
         style="overflow:visible;"
         id="use89" /></clipPath></g><g
     id="g91"><defs
       id="defs93"><rect
         id="SVGID_117_"
         x="-1460"
         y="-320"
         width="1920"
         height="1080" /></defs><clipPath
       id="SVGID_8_"><use
         xlink:href="#SVGID_117_"
         style="overflow:visible;"
         id="use97" /></clipPath></g></svg>