<?xml version="1.0" encoding="UTF-8" standalone="no"?>
<!-- Generator: Adobe Illustrator 19.1.1, SVG Export Plug-In . SVG Version: 6.00 Build 0)  -->

<svg
   xmlns:dc="http://purl.org/dc/elements/1.1/"
   xmlns:cc="http://creativecommons.org/ns#"
   xmlns:rdf="http://www.w3.org/1999/02/22-rdf-syntax-ns#"
   xmlns:svg="http://www.w3.org/2000/svg"
   xmlns="http://www.w3.org/2000/svg"
   xmlns:xlink="http://www.w3.org/1999/xlink"
   xmlns:sodipodi="http://sodipodi.sourceforge.net/DTD/sodipodi-0.dtd"
   xmlns:inkscape="http://www.inkscape.org/namespaces/inkscape"
   version="1.1"
   id="Layer_1"
   x="0px"
   y="0px"
   viewBox="0 0 1062.1 1024.2"
   style="enable-background:new 0 0 1062.1 1024.2;"
   xml:space="preserve"
   inkscape:version="0.91 r13725"
   sodipodi:docname="wheel.svg"><metadata
     id="metadata355"><rdf:RDF><cc:Work
         rdf:about=""><dc:format>image/svg+xml</dc:format><dc:type
           rdf:resource="http://purl.org/dc/dcmitype/StillImage" /></cc:Work></rdf:RDF></metadata><defs
     id="defs353"><defs
       id="defs276"><rect
         height="1014.9"
         width="683.1"
         y="9.2"
         id="SVGID_44_" /></defs><clipPath
       id="SVGID_45_"><use
         id="use280"
         style="overflow:visible;"
         xlink:href="#SVGID_44_" /></clipPath></defs><sodipodi:namedview
     pagecolor="#ffffff"
     bordercolor="#666666"
     borderopacity="1"
     objecttolerance="10"
     gridtolerance="10"
     guidetolerance="10"
     inkscape:pageopacity="0"
     inkscape:pageshadow="2"
     inkscape:window-width="1178"
     inkscape:window-height="1004"
     id="namedview351"
     showgrid="false"
     inkscape:zoom="1.84339"
     inkscape:cx="333.94131"
     inkscape:cy="660.64399"
     inkscape:window-x="2329"
     inkscape:window-y="226"
     inkscape:window-maximized="0"
     inkscape:current-layer="Layer_1" /><style
     type="text/css"
     id="style3">
	.st0{clip-path:url(#SVGID_2_);fill:#C4007A;}
	.st1{clip-path:url(#SVGID_2_);fill:#7D5279;}
	.st2{clip-path:url(#SVGID_2_);fill:#8DC6E0;}
	.st3{clip-path:url(#SVGID_2_);fill:#0099A2;}
	.st4{clip-path:url(#SVGID_2_);fill:#C0CE2E;}
	.st5{clip-path:url(#SVGID_2_);fill:#E19F1B;}
	.st6{clip-path:url(#SVGID_2_);fill:#FFED00;}
	.st7{clip-path:url(#SVGID_4_);fill:#EAEAEA;}
	.st8{clip-path:url(#SVGID_4_);fill:#6E504A;}
	.st9{clip-path:url(#SVGID_6_);fill:#624842;}
	.st10{clip-path:url(#SVGID_8_);fill:#6E504A;}
	.st11{clip-path:url(#SVGID_10_);fill:#624842;}
	.st12{clip-path:url(#SVGID_12_);fill:#00425D;}
	.st13{clip-path:url(#SVGID_14_);fill:none;stroke:#000000;stroke-width:16.593;stroke-miterlimit:10;}
	.st14{clip-path:url(#SVGID_14_);fill:#CD8D52;}
	.st15{clip-path:url(#SVGID_14_);fill:#002F44;}
	.st16{clip-path:url(#SVGID_16_);fill:#D7B395;}
	.st17{clip-path:url(#SVGID_16_);fill:#008FD1;}
	.st18{clip-path:url(#SVGID_18_);fill:#006E9F;}
	.st19{clip-path:url(#SVGID_18_);fill:#FFFFFF;}
	.st20{clip-path:url(#SVGID_20_);fill:#822927;}
	.st21{clip-path:url(#SVGID_22_);fill:#006998;}
	.st22{clip-path:url(#SVGID_22_);fill:#F4F4F4;}
	.st23{clip-path:url(#SVGID_22_);fill:#7C2724;}
	.st24{clip-path:url(#SVGID_24_);fill:#FFFFFF;}
	.st25{clip-path:url(#SVGID_26_);fill:#F4F4F4;}
	.st26{clip-path:url(#SVGID_26_);fill:#7C2724;}
	.st27{clip-path:url(#SVGID_28_);fill:#FFFFFF;}
	.st28{clip-path:url(#SVGID_30_);fill:#006E9F;}
	.st29{clip-path:url(#SVGID_32_);fill:url(#SVGID_33_);}
	.st30{clip-path:url(#SVGID_35_);fill:#006E9F;}
	.st31{clip-path:url(#SVGID_37_);fill:#624842;}
	.st32{clip-path:url(#SVGID_37_);fill:#D7B395;}
	.st33{clip-path:url(#SVGID_37_);fill:#DFCDB5;}
	.st34{clip-path:url(#SVGID_39_);fill:#D9BBA0;}
	.st35{clip-path:url(#SVGID_39_);fill:#D7B395;}
	.st36{clip-path:url(#SVGID_41_);fill:#6E504A;}
	.st37{clip-path:url(#SVGID_43_);fill:#86605A;}
	.st38{clip-path:url(#SVGID_43_);fill:#624842;}
	.st39{clip-path:url(#SVGID_45_);fill:#D7B395;}
	.st40{clip-path:url(#SVGID_45_);fill:#3C2B27;}
	.st41{clip-path:url(#SVGID_45_);fill:none;stroke:#AD9175;stroke-width:8.297;stroke-linecap:round;stroke-miterlimit:10;}
	.st42{clip-path:url(#SVGID_45_);fill:#6E504A;}
	.st43{clip-path:url(#SVGID_45_);fill:#FFFFFF;}
	.st44{clip-path:url(#SVGID_45_);}
	.st45{fill:none;}
	.st46{clip-path:url(#SVGID_45_);fill:#6B222C;}
	.st47{clip-path:url(#SVGID_48_);fill:#822927;}
	.st48{clip-path:url(#SVGID_48_);fill:#FFFFFF;}
	.st49{clip-path:url(#SVGID_50_);fill:#D7B395;}
	.st50{clip-path:url(#SVGID_50_);fill:#D9BBA0;}
	.st51{clip-path:url(#SVGID_50_);fill:#FFFFFF;}
	.st52{clip-path:url(#SVGID_50_);fill:#008FD1;}
	.st53{clip-path:url(#SVGID_50_);fill:#006E9F;}
</style><g
     id="g5"
     inkscape:transform-center-x="5.5651154"><defs
       id="defs7"><rect
         id="SVGID_1_"
         x="270.70001"
         width="791.5"
         height="965.79999"
         y="0" /></defs><clipPath
       id="SVGID_2_"><use
         xlink:href="#SVGID_1_"
         style="overflow:visible"
         id="use11"
         x="0"
         y="0"
         width="100%"
         height="100%" /></clipPath><path
       class="st0"
       d="M 720.1,473.5 398.4,222.2 C 477.7,120.8 591.3,65.3 720.1,65.3 l 0,408.2 z"
       id="path13"
       clip-path="url(#SVGID_2_)"
       inkscape:connector-curvature="0"
       style="fill:#c4007a" /><path
       class="st1"
       d="m 720.1,473.5 -397.7,91.8 c -29,-125.4 -3.2,-241.7 76.1,-343.1 l 321.6,251.3"
       id="path15"
       clip-path="url(#SVGID_2_)"
       inkscape:connector-curvature="0"
       style="fill:#7d5279" /><path
       class="st2"
       d="m 720.1,473.5 -172.5,370 C 430.9,789.1 351.3,690.8 322.4,565.4 l 397.7,-91.9"
       id="path17"
       clip-path="url(#SVGID_2_)"
       inkscape:connector-curvature="0"
       style="fill:#8dc6e0" /><path
       class="st3"
       d="M 720.1,473.5 899,840.4 c -115.7,56.4 -234.8,57.5 -351.4,3.1 l 172.5,-370 z"
       id="path19"
       clip-path="url(#SVGID_2_)"
       inkscape:connector-curvature="0"
       style="fill:#0099a2" /><path
       class="st4"
       d="m 720.1,473.5 399.3,84.9 c -26.8,125.9 -104.6,225.6 -220.3,282 l -179,-366.9 z"
       id="path21"
       clip-path="url(#SVGID_2_)"
       inkscape:connector-curvature="0"
       style="fill:#c0ce2e" /><path
       class="st5"
       d="m 720.1,473.5 317.2,-256.9 c 81,100 108.8,215.8 82,341.7 L 720.1,473.5 Z"
       id="path23"
       clip-path="url(#SVGID_2_)"
       inkscape:connector-curvature="0"
       style="fill:#e19f1b" /><path
       class="st6"
       d="m 720.1,473.5 0,-408.2 c 128.7,0 236.2,51.3 317.2,151.3 L 720.1,473.5 Z"
       id="path25"
       clip-path="url(#SVGID_2_)"
       inkscape:connector-curvature="0"
       style="fill:#ffed00" /></g><g
     id="g27"><defs
       id="defs29"><rect
         id="SVGID_3_"
         y="9.2"
         width="683.1"
         height="1014.9" /></defs><clipPath
       id="SVGID_4_"><use
         xlink:href="#SVGID_3_"
         style="overflow:visible;"
         id="use33" /></clipPath><path
       class="st7"
       d="M549.5,934.6c0,18.3-90.1,33.2-201.2,33.2c-111.1,0-201.2-14.9-201.2-33.2c0-18.3,90.1-33.2,201.2-33.2   C459.4,901.4,549.5,916.3,549.5,934.6"
       id="path35"
       clip-path="url(#SVGID_4_)" /><path
       class="st8"
       d="M267.6,937c0.6,0.1,1.6,0.1,2.8,0.2c10.9,0.7,42.7,1.7,45-0.2c2.6-2.2,6-2.2,5.6-8.2c-0.4-6,3-18-4.7-16.4   c-7.7,1.6-33.8,2.4-39.8,2.4c-6,0-6-2.5-6-2.5c-3,3.2-4.9,9.2-4.9,14.2C265.4,931.4,264.5,936.7,267.6,937"
       id="path37"
       clip-path="url(#SVGID_4_)" /></g><g
     id="g39"><defs
       id="defs41"><path
         id="SVGID_5_"
         d="M316.2,912.4c-7.7,1.6-33.8,2.4-39.8,2.4c-6,0-6-2.5-6-2.5c-3,3.1-4.9,9.2-4.9,14.2c0,5-0.9,10.3,2.1,10.6    c0.6,0.1,1.6,0.1,2.8,0.2c10.9,0.7,42.7,1.7,45-0.2c2.6-2.2,6-2.2,5.6-8.2c-0.4-5.6,2.6-16.6-3.4-16.6    C317.1,912.3,316.7,912.3,316.2,912.4" /></defs><clipPath
       id="SVGID_6_"><use
         xlink:href="#SVGID_5_"
         style="overflow:visible;"
         id="use45" /></clipPath><path
       class="st9"
       d="M261.7,927.7c5.5,5.7,24.1,7.1,31.6,7.1c7.5,0,24.6-1.4,28-4.8c3.4-3.5,6.3,8.2,6.3,8.2l-33.1,12.5l-34.4-6   L261.7,927.7z"
       id="path47"
       clip-path="url(#SVGID_6_)" /><path
       class="st9"
       d="M268.5,913.5c3.1,4.1,14.8,7.1,29.2,5.2c14.4-1.9,20.1-3.8,24.4-8.1c4.2-4.3-54.3-1.4-54.3-1.4L268.5,913.5z"
       id="path49"
       clip-path="url(#SVGID_6_)" /></g><g
     id="g51"><defs
       id="defs53"><rect
         id="SVGID_7_"
         y="9.2"
         width="683.1"
         height="1014.9" /></defs><clipPath
       id="SVGID_8_"><use
         xlink:href="#SVGID_7_"
         style="overflow:visible;"
         id="use57" /></clipPath><path
       class="st10"
       d="M365.8,918.3c-0.4,12.1-4,17.8,4,18.6c8,0.8,75.4-1.6,86.6,0c11.2-4,7.9-14.7-5.7-18.6s-23.8-11.9-36.7-11.9   s-44.3-0.6-46.6,0C365.2,907,365.9,915.4,365.8,918.3"
       id="path59"
       clip-path="url(#SVGID_8_)" /></g><g
     id="g61"><defs
       id="defs63"><path
         id="SVGID_9_"
         d="M367.4,906.4c-2.2,0.6-1.5,9-1.6,11.9c-0.4,12.1-4,17.8,4,18.6c3.6,0.4,18.8,0.1,35.7-0.2    c21.1-0.4,44.7-0.7,50.9,0.2c11.2-4,7.9-14.7-5.7-18.6c-13.6-3.9-23.8-11.9-36.7-11.9c-8.6,0-25.4-0.2-36.4-0.2    C372.2,906.2,368.2,906.2,367.4,906.4" /></defs><clipPath
       id="SVGID_10_"><use
         xlink:href="#SVGID_9_"
         style="overflow:visible;"
         id="use67" /></clipPath><path
       class="st11"
       d="M461.9,921.6c3.1,2.2,2.9,6.5-2.6,10c-5.4,3.5-45.5-0.8-55.5-1.2c-10-0.4-18.7,2.3-26.3,2.7   c-7.6,0.4-13.5-4.8-14.8-6.1c-1.3-1.3-2.5,14.4-2.5,14.4l116.3-0.6c0,0-3.4-23.3-4-23.7C471.9,916.7,461.9,921.6,461.9,921.6"
       id="path69"
       clip-path="url(#SVGID_10_)" /><path
       class="st11"
       d="M366.1,911.7c6,1.8,17.9,3.4,39.5-0.2c9.7-1.6,18.2-1.8,21.1-5.4c7.4-9,2.4-6.9,2.1-7.4   c-0.3-0.5-66.9,9.5-66.9,9.5"
       id="path71"
       clip-path="url(#SVGID_10_)" /></g><g
     id="g73"><defs
       id="defs75"><rect
         id="SVGID_11_"
         y="9.2"
         width="683.1"
         height="1014.9" /></defs><clipPath
       id="SVGID_12_"><use
         xlink:href="#SVGID_11_"
         style="overflow:visible;"
         id="use79" /></clipPath><path
       class="st12"
       d="M279.7,670.7c2.4,32.5,2.4,157.5,1.2,170.8c-1.2,13.2-15.5,65.6-15.5,72.8c0,7.2,52.5-0.8,54.9-2   c6-38.5,44-140.4,48-171.2c4,76.3,8,135.2,0,146.1c-8,10.8-6.4,19.7-2.3,23.3c4,3.6,46-1.6,56.1-2.8c10-1.2-6-10.9-3.2-24.1   c2.8-13.2,7.9-202.1,3.9-213.6C388.8,662.3,279.7,670.7,279.7,670.7"
       id="path81"
       clip-path="url(#SVGID_12_)" /></g><g
     id="g83"><defs
       id="defs85"><path
         id="SVGID_13_"
         d="M279.7,670.7c2.4,32.5,2.4,157.5,1.2,170.8c-1.2,13.2-15.5,65.6-15.5,72.8c0,7.2,52.5-0.8,54.9-2    c6-38.5,44-140.4,48-171.2c4,76.3,8,135.2,0,146.1c-8,10.8-6.3,19.7-2.3,23.3c4,3.6,46-1.6,56.1-2.8c10-1.2-6-10.9-3.2-24.1    c2.8-13.2,7.9-202.1,3.9-213.6c-10.6-2.4-28.6-3.2-48.3-3.2C331.1,666.8,279.7,670.7,279.7,670.7" /></defs><clipPath
       id="SVGID_14_"><use
         xlink:href="#SVGID_13_"
         style="overflow:visible;"
         id="use89" /></clipPath><path
       class="st13"
       d="M279.5,706.8c10.2,2.9,72.6,7.5,89.2,7.8c16.6,0.3,51.3-3.6,60.4-9.1"
       id="path91"
       clip-path="url(#SVGID_14_)" /><rect
       x="363.6"
       y="710.6"
       class="st14"
       width="16.6"
       height="12.4"
       id="rect93"
       clip-path="url(#SVGID_14_)" /><path
       class="st15"
       d="M424,730.3c-2.4,23.9-4.5,158.7-12.1,162.5c-7.6,3.8-22.5,5.5-16.9,6.9c5.5,1.4,12.1-2.1,8.6,3.5   c-3.5,5.5,4.4,8.8,12.8,6.9c8.3-1.9,23.5-3.5,25.9-7.3c2.4-3.8-9-177.3-9-177.3L424,730.3"
       id="path95"
       clip-path="url(#SVGID_14_)" /><path
       class="st15"
       d="M368.1,742.3c-7.8,19.7-50.6,148.6-54.2,151.7c-3.6,3.1-14.5,6-10.6,6.7c3.9,0.8,5.5,2.1,2.1,3.4   c-3.4,1.3-8.8,3.9-6.5,4.1c2.3,0.3,2.9,1.9-2,5.9c-5,4-8.6,6.2-12.2,7.5c-3.6,1.4,48.2-0.3,48.2,0c0,0.3,33.4-149.5,33.4-149.5"
       id="path97"
       clip-path="url(#SVGID_14_)" /></g><g
     id="g99"><defs
       id="defs101"><rect
         id="SVGID_15_"
         y="9.2"
         width="683.1"
         height="1014.9" /></defs><clipPath
       id="SVGID_16_"><use
         xlink:href="#SVGID_15_"
         style="overflow:visible;"
         id="use105" /></clipPath><path
       class="st16"
       d="M317.6,483.5c3.8,18.7-1,45.9-3.9,51.1c-1.4,2.6,24.8,12.9,50.4,12.8c24.9-0.1,49.3-10.6,47.2-16.2   c-4.4-11.4-10.3-25-13.4-45.6C394.9,464.9,317.6,483.5,317.6,483.5"
       id="path107"
       clip-path="url(#SVGID_16_)" /><path
       class="st17"
       d="M352.1,537.8c1.5-0.4,20.6-0.1,22.2-0.5c11.9-2.8,20.4-4.3,37.3-8.4c17.5-0.5,16.6,0.6,22.3,5.6   c12.4,11.1,3.1,152.2-4.8,189.2c-10.2,4.9-32.2-5-58.7-12.1c-7.6,9-79.4,20.6-93.4,15c-1.1-29-31.8-182.5-19.4-192.1   c5.6-4.3,39.1-5.1,56.1-4.7C336.9,535.1,352.1,537.8,352.1,537.8"
       id="path109"
       clip-path="url(#SVGID_16_)" /></g><g
     id="g111"><defs
       id="defs113"><path
         id="SVGID_17_"
         d="M411.6,529c-17,4-25.4,5.6-37.3,8.4c-1.6,0.4-20.7,0.2-22.2,0.5c0,0-15.2-2.7-38.4-8    c-17-0.4-50.5,0.4-56.1,4.7c-12.5,9.6,18.3,163.1,19.3,192.1c14.1,5.5,85.8-6,93.4-15c26.4,7.1,48.5,17,58.7,12.1    c7.9-37,17.3-178,4.8-189.2c-4.9-4.4-4.9-5.7-15.9-5.7C416.1,528.8,414,528.9,411.6,529" /></defs><clipPath
       id="SVGID_18_"><use
         xlink:href="#SVGID_17_"
         style="overflow:visible;"
         id="use117" /></clipPath><polygon
       class="st18"
       points="313.7,529.9 319.3,557.9 331.7,560 332,568.5 363,579.7 316.9,528.8  "
       id="polygon119"
       clip-path="url(#SVGID_18_)" /><polygon
       class="st18"
       points="412.4,529.9 406.8,557.9 394.3,560 394.1,568.5 363,579.7 409.1,528.8  "
       id="polygon121"
       clip-path="url(#SVGID_18_)" /><path
       class="st19"
       d="M312.3,526c5.8,11.9,50.8,53.7,50.8,53.7c9.4-6.2,47.5-46.4,49.1-55.2C413.7,515.6,312.3,526,312.3,526"
       id="path123"
       clip-path="url(#SVGID_18_)" /></g><g
     id="g125"><defs
       id="defs127"><path
         id="SVGID_19_"
         d="M374.3,537.3c-1.6,0.4-20.7,0.2-22.2,0.5c0,0-14.7-2.7-37.2-7.7c11.3,15.3,48.1,49.5,48.1,49.5    c8.2-5.4,38-36.5,46.7-50.3C394,533.1,385.7,534.7,374.3,537.3" /></defs><clipPath
       id="SVGID_20_"><use
         xlink:href="#SVGID_19_"
         style="overflow:visible;"
         id="use131" /></clipPath><polygon
       class="st20"
       points="368.5,546.8 357.5,546.8 340.9,533.1 385.1,533.1  "
       id="polygon133"
       clip-path="url(#SVGID_20_)" /><polygon
       class="st20"
       points="382.8,630.2 343.2,630.2 357.5,546.8 368.5,546.8  "
       id="polygon135"
       clip-path="url(#SVGID_20_)" /></g><g
     id="g137"><defs
       id="defs139"><path
         id="SVGID_21_"
         d="M323.8,536.4v4.3c4.8,5.3,10.5,11.2,16.1,16.7h15.6v-19.7c-1.8,0-3,0.1-3.3,0.2c0,0-2.7-0.5-7.6-1.4H323.8    z" /></defs><clipPath
       id="SVGID_22_"><use
         xlink:href="#SVGID_21_"
         style="overflow:visible;"
         id="use143" /></clipPath><path
       class="st21"
       d="M328,545.3L328,545.3c2.6,2.8,5.4,5.6,8.1,8.4l0,0C333.4,550.9,330.6,548,328,545.3"
       id="path145"
       clip-path="url(#SVGID_22_)" /><path
       class="st22"
       d="M347.2,538.3l-10,2.3l-9.2,4.7c2.6,2.8,5.4,5.6,8.2,8.4l14.2-12.8L347.2,538.3"
       id="path147"
       clip-path="url(#SVGID_22_)" /><path
       class="st23"
       d="M350.4,537.5l-3.2,0.7l3.2,2.6l3.6-3.2c-1,0-1.6,0.1-1.9,0.1c0,0,0,0,0,0s0,0,0,0   C352,537.8,351.5,537.7,350.4,537.5"
       id="path149"
       clip-path="url(#SVGID_22_)" /></g><g
     id="g151"><defs
       id="defs153"><path
         id="SVGID_23_"
         d="M374.3,537.3c-1.6,0.4-20.7,0.2-22.2,0.5c0,0-14.7-2.7-37.2-7.7c11.3,15.3,48.1,49.5,48.1,49.5    c8.2-5.4,38-36.5,46.7-50.3C394,533.1,385.7,534.7,374.3,537.3" /></defs><clipPath
       id="SVGID_24_"><use
         xlink:href="#SVGID_23_"
         style="overflow:visible;"
         id="use157" /></clipPath><polygon
       class="st24"
       points="352.9,537.8 331.6,553.9 306.1,528.8 328.6,528.8  "
       id="polygon159"
       clip-path="url(#SVGID_24_)" /></g><g
     id="g161"><defs
       id="defs163"><path
         id="SVGID_25_"
         d="M378.4,536.4c-1.3,0.3-2.7,0.6-4.1,0.9c-0.3,0.1-1.6,0.1-3.3,0.2v19.9h15.5c5.8-6.2,11.6-12.7,16.2-18.4    v-2.6H378.4z" /></defs><clipPath
       id="SVGID_26_"><use
         xlink:href="#SVGID_25_"
         style="overflow:visible;"
         id="use167" /></clipPath><path
       class="st25"
       d="M378.9,538.2l-3.1,2.5l14.2,12.8c2.6-2.9,5.2-5.8,7.6-8.6l-8.5-4.4L378.9,538.2"
       id="path169"
       clip-path="url(#SVGID_26_)" /><path
       class="st26"
       d="M374.7,537.2c-0.1,0-0.3,0.1-0.4,0.1c-0.3,0.1-1,0.1-2.1,0.1l3.7,3.3l3.1-2.5L374.7,537.2"
       id="path171"
       clip-path="url(#SVGID_26_)" /></g><g
     id="g173"><defs
       id="defs175"><path
         id="SVGID_27_"
         d="M374.3,537.3c-1.6,0.4-20.7,0.2-22.2,0.5c0,0-14.7-2.7-37.2-7.7c11.3,15.3,48.1,49.5,48.1,49.5    c8.2-5.4,38-36.5,46.7-50.3C394,533.1,385.7,534.7,374.3,537.3" /></defs><clipPath
       id="SVGID_28_"><use
         xlink:href="#SVGID_27_"
         style="overflow:visible;"
         id="use179" /></clipPath><polygon
       class="st27"
       points="373.6,537 394.9,553.9 420.3,528.8 397.8,528.8  "
       id="polygon181"
       clip-path="url(#SVGID_28_)" /></g><g
     id="g183"><defs
       id="defs185"><path
         id="SVGID_29_"
         d="M411.6,529c-17,4-25.4,5.6-37.3,8.4c-1.6,0.4-20.7,0.2-22.2,0.5c0,0-15.2-2.7-38.4-8    c-17-0.4-50.5,0.4-56.1,4.7c-12.5,9.6,18.3,163.1,19.3,192.1c14.1,5.5,85.8-6,93.4-15c26.4,7.1,48.5,17,58.7,12.1    c7.9-37,17.3-178,4.8-189.2c-4.9-4.4-4.9-5.7-15.9-5.7C416.1,528.8,414,528.9,411.6,529" /></defs><clipPath
       id="SVGID_30_"><use
         xlink:href="#SVGID_29_"
         style="overflow:visible;"
         id="use189" /></clipPath><path
       class="st28"
       d="M411.2,554c27,72.1,17.1,144.6-25.9,164.8c-42.2,19.8-58.8,44.7-5.9,50.2c50.7,5.3,65-30.8,66.8-32.4   c3.7-3.2,20.5-139.1,20.5-139.1L411.2,554z"
       id="path191"
       clip-path="url(#SVGID_30_)" /><path
       class="st28"
       d="M369,595c4.4,13.3,12,109.5,8.5,113.9c-3.5,4.3-10,7.1-9.7,1.2C368,705.9,369,595,369,595"
       id="path193"
       clip-path="url(#SVGID_30_)" /></g><g
     id="g195"><defs
       id="defs197"><path
         id="SVGID_31_"
         d="M324.7,724.8L324.7,724.8L324.7,724.8c20.2-3.2,39.8-8.1,45-12.5c3.5-14.4,0.8-101.7-0.9-119.4    C368.5,620.1,341.3,700.8,324.7,724.8" /></defs><clipPath
       id="SVGID_32_"><use
         xlink:href="#SVGID_31_"
         style="overflow:visible;"
         id="use201" /></clipPath><linearGradient
       id="SVGID_33_"
       gradientUnits="userSpaceOnUse"
       x1="-857.868"
       y1="1032.0214"
       x2="-856.868"
       y2="1032.0214"
       gradientTransform="matrix(-10.3374 -3.0256 -3.0256 10.3374 -5371.0127 -12597.6377)"><stop
         offset="0"
         style="stop-color:#399AD6"
         id="stop204" /><stop
         offset="0.4867"
         style="stop-color:#1B94D3"
         id="stop206" /><stop
         offset="1"
         style="stop-color:#008FD1"
         id="stop208" /></linearGradient><polygon
       class="st29"
       points="369.4,737.9 289.1,714.4 328.5,579.8 408.8,603.3  "
       id="polygon210"
       clip-path="url(#SVGID_32_)" /></g><g
     id="g212"><defs
       id="defs214"><path
         id="SVGID_34_"
         d="M411.6,529c-17,4-25.4,5.6-37.3,8.4c-1.6,0.4-20.7,0.2-22.2,0.5c0,0-15.2-2.7-38.4-8    c-17-0.4-50.5,0.4-56.1,4.7c-12.5,9.6,18.3,163.1,19.3,192.1c14.1,5.5,85.8-6,93.4-15c26.4,7.1,48.5,17,58.7,12.1    c7.9-37,17.3-178,4.8-189.2c-4.9-4.4-4.9-5.7-15.9-5.7C416.1,528.8,414,528.9,411.6,529" /></defs><clipPath
       id="SVGID_35_"><use
         xlink:href="#SVGID_34_"
         style="overflow:visible;"
         id="use218" /></clipPath><path
       class="st30"
       d="M263.5,677.9c14.5,0.5,51.9-93.9,52.4-131.7c0.5-37.8-65.8,18.1-65.8,18.1L263.5,677.9z"
       id="path220"
       clip-path="url(#SVGID_35_)" /></g><g
     id="g222"><defs
       id="defs224"><rect
         id="SVGID_36_"
         y="9.2"
         width="683.1"
         height="1014.9" /></defs><clipPath
       id="SVGID_37_"><use
         xlink:href="#SVGID_36_"
         style="overflow:visible;"
         id="use228" /></clipPath><path
       class="st31"
       d="M138.8,307.2c4.4,31.4,9.9,101.6,74.2,100.6c64.3-1,39.4-123.4,39.4-123.4L138.8,307.2z"
       id="path230"
       clip-path="url(#SVGID_37_)" /><path
       class="st32"
       d="M540.1,368.4l-2,19.8c-2,19.8,24.2-17.7,24.2-44.3c0-26.7-7.1-36.2-16.1-27.8"
       id="path232"
       clip-path="url(#SVGID_37_)" /><path
       class="st33"
       d="M177.5,218c-7.8,57.6,4.3,205.3,33.2,251c24.9,39.4,96.3,53.6,161.8,56c67.8,2.5,165.9-51.9,176.3-136.9   c10.4-85,12.4-192.9,0-213.6C536.3,153.7,194.1,95.6,177.5,218"
       id="path234"
       clip-path="url(#SVGID_37_)" /></g><g
     id="g236"><defs
       id="defs238"><path
         id="SVGID_38_"
         d="M177.5,218c-7.8,57.6,4.3,205.3,33.2,251c24.9,39.4,96.3,53.6,161.8,56c67.8,2.5,165.9-51.8,176.3-136.9    c10.4-85,12.4-192.9,0-213.6c-6.5-10.9-103.8-32-197.2-32C266.9,142.4,185.4,159.8,177.5,218" /></defs><clipPath
       id="SVGID_39_"><use
         xlink:href="#SVGID_38_"
         style="overflow:visible;"
         id="use242" /></clipPath><path
       class="st34"
       d="M543.8,410.5c-24.8,42.2-77.7,102.7-153.1,109.7c-75.4,7-136.6-14-155.2-25.8c-18.7-11.7-23.6,50.6-20.1,53.1   c3.5,2.5,401.3,2.3,399,2.8c-2.3,0.5-34.6-167-34.6-167L543.8,410.5z"
       id="path244"
       clip-path="url(#SVGID_39_)" /><path
       class="st35"
       d="M225.9,117.1c69.1-12.4,127.2-1.4,156.2,19.4c36-15.2,131.4-23.9,163.2,30.9c31.8,54.8,44.1,104.6,34.4,125.4   c-9.7,20.7-150.3-2.8-163.8-54.4c6.8,21.6,8.4,36.9,16.1,48.1c1.3,1.8-4.5,7.6-6.6,7c-32.3-9.8-105.6-40.6-122-67.1   c-5.5,30.4-29.4,60.9-67.8,67.1c-14.4,2.3-44.4,9.7-41.3,6.2c0.4,9.1-7.8,55.2-11.9,57.4c-3.1,1.7-2.5-7.8-3.9-23.2   c-5.4,7,0.4,20.5-2.3,23.2c-6.9,6.9-3.1,19-3.1,19s-35.6-5.9-35.6-84.7C137.4,212.5,156.8,129.5,225.9,117.1"
       id="path246"
       clip-path="url(#SVGID_39_)" /></g><g
     id="g248"><defs
       id="defs250"><rect
         id="SVGID_40_"
         y="9.2"
         width="683.1"
         height="1014.9" /></defs><clipPath
       id="SVGID_41_"><use
         xlink:href="#SVGID_40_"
         style="overflow:visible;"
         id="use254" /></clipPath><path
       class="st36"
       d="M373.9,111.5c35.9-15.2,131.4-24,163.2,30.9c31.8,54.8,49.8,143.3,40.1,164.1   c-9.7,20.7-142.4-31.8-164.5-73.3c6.8,21.6,11.7,42,19.4,53.2c1.3,1.8-0.4,4.2-2.6,3.6c-32.3-9.8-109.7-37.1-126.1-63.6   c-5.5,30.4-40.1,62.2-78.8,65c-38.7,2.8-49.8,33.9-56.7,40.8c-6.9,6.9-3.1,19-3.1,19s-35.6-5.9-35.6-84.7S161.9,128.6,231,116.2   C300.2,103.7,344.8,90.8,373.9,111.5"
       id="path256"
       clip-path="url(#SVGID_41_)" /></g><g
     id="g258"><defs
       id="defs260"><path
         id="SVGID_42_"
         d="M440.6,100c-26.6,0-51.8,5.2-66.7,11.5c-29-20.7-73.7-7.8-142.8,4.7c-69.1,12.4-101.9,71.4-101.9,150.2    c0,78.8,35.6,84.7,35.6,84.7s-3.8-12.1,3.1-19c6.9-6.9,18-38,56.7-40.8c38.7-2.8,73.3-34.6,78.8-65    c16.4,26.5,93.7,53.8,126.1,63.6c2.1,0.6,3.8-1.7,2.6-3.5c-7.7-11.2-12.6-31.6-19.4-53.2c22.1,41.5,154.9,94,164.5,73.3    c9.7-20.7-8.3-109.2-40.1-164.1C518.4,110.4,478.1,100,440.6,100C440.6,100,440.6,100,440.6,100" /></defs><clipPath
       id="SVGID_43_"><use
         xlink:href="#SVGID_42_"
         style="overflow:visible;"
         id="use264" /></clipPath><path
       class="st37"
       d="M571.5,228.6C547.1,164.3,464.4,91.4,414,108.8c-50.4,17.4-122.6,17.3-140.6,17.3   c-18,0-115.9,34.1-144.3,93.3C100.8,278.6,100.8,59,100.8,59l487.4-69.1L571.5,228.6z"
       id="path266"
       clip-path="url(#SVGID_43_)" /><path
       class="st38"
       d="M579.8,293.4c-8.1,6.6-138.1-21.8-165.4-60.1c2.4,17.3,59.8,63.7,106.5,74.9c46.7,11.2,56.7,5.7,59,3.9   C582,310.3,579.8,293.4,579.8,293.4"
       id="path268"
       clip-path="url(#SVGID_43_)" /><path
       class="st38"
       d="M434.4,285.4c-10.4-0.7-113.4-39.4-131-59.1c4.1,23.9,123.1,75.7,127.6,72.9   C435.4,296.5,434.4,285.4,434.4,285.4"
       id="path270"
       clip-path="url(#SVGID_43_)" /><path
       class="st38"
       d="M274.1,271.1c-18.3,10.7-49.9,15.8-72.8,20.9c-11.5,2.6-32.4,43.9-43.4,34.2c-11.1-9.7-32.5-65-25.9-109.9   c6.6-44.9-39.8,69.5-39.8,69.5s38.7,89.5,41.5,89.5c2.8,0,50.4-4.1,53.7-4.8C190.6,369.8,274.1,271.1,274.1,271.1"
       id="path272"
       clip-path="url(#SVGID_43_)" /></g><path
     style="fill:#d7b395"
     inkscape:connector-curvature="0"
     clip-path="url(#SVGID_45_)"
     id="path282"
     d="m 179.1,316.1 c -9,-8.4 -16.1,1.1 -16.1,27.8 0,26.7 26.2,64.2 24.2,44.3 l -2,-19.8"
     class="st39" /><path
     style="fill:#3c2b27"
     inkscape:connector-curvature="0"
     clip-path="url(#SVGID_45_)"
     id="path284"
     d="m 318.9,393.6 0,0 c 12,0 21.8,-9.8 21.8,-21.8 l 0,-20.3 c 0,-12 -9.8,-21.8 -21.8,-21.8 -12,0 -21.8,9.8 -21.8,21.8 l 0,20.3 c 0,12 9.8,21.8 21.8,21.8"
     class="st40" /><path
     style="fill:none;stroke:#ad9175;stroke-width:8.29699993;stroke-linecap:round;stroke-miterlimit:10"
     inkscape:connector-curvature="0"
     clip-path="url(#SVGID_45_)"
     id="path286"
     d="m 390.7,392.6 c -7.3,5.7 -32.1,5.7 -36.3,0"
     class="st41" /><path
     style="fill:#6e504a"
     inkscape:connector-curvature="0"
     clip-path="url(#SVGID_45_)"
     id="path288"
     d="m 175.2,299.6 c 7.9,11.1 2.7,51.3 7.2,48.9 4.5,-2.4 14.1,-44.4 11.9,-48.9 -2.2,-4.5 -19.1,0 -19.1,0"
     class="st42" /><path
     style="fill:#ffffff"
     inkscape:connector-curvature="0"
     clip-path="url(#SVGID_45_)"
     id="path290"
     d="m 324.3,351.5 c 0,6.3 -5.1,11.4 -11.4,11.4 -6.3,0 -11.4,-5.1 -11.4,-11.4 0,-6.3 5.1,-11.4 11.4,-11.4 6.3,0 11.4,5.1 11.4,11.4"
     class="st43" /><path
     style="fill:#ffffff"
     inkscape:connector-curvature="0"
     clip-path="url(#SVGID_45_)"
     id="eye1"
     d="m 336.9,363.2 c 0,2.6 -2.1,4.7 -4.7,4.7 -2.6,0 -4.7,-2.1 -4.7,-4.7 0,-2.6 2.1,-4.7 4.7,-4.7 2.6,0 4.7,2.1 4.7,4.7"
     class="st43">
	<animate attributeName="visibility"
       values="visible;hidden;visible;visible;visible"
       dur="3s"
       repeatCount="indefinite"/>
	 </path><g
     clip-path="url(#SVGID_45_)"
     id="g294"
     class="st44"><path
       style="fill:none"
       inkscape:connector-curvature="0"
       d="m 327.5,331.6 c 0,4.7 -3.8,8.6 -8.6,8.6 4.7,0 8.6,3.8 8.6,8.6 0,-4.7 3.8,-8.6 8.6,-8.6 -4.8,-0.1 -8.6,-3.9 -8.6,-8.6"
       class="st45"
       id="SVGID_x5F_46_x5F_" /><text
       id="text297"><textPath
         id="textPath299"
         startOffset="0%"
         xlink:href="#SVGID_x5F_46_x5F_"></textPath></text>
</g><path
     style="fill:#3c2b27"
     inkscape:connector-curvature="0"
     clip-path="url(#SVGID_45_)"
     id="path301"
     d="m 425.4,393.6 0,0 c 12,0 21.8,-9.8 21.8,-21.8 l 0,-20.3 c 0,-12 -9.8,-21.8 -21.8,-21.8 -12,0 -21.8,9.8 -21.8,21.8 l 0,20.3 c 0,12 9.8,21.8 21.8,21.8"
     class="st40" /><path
     style="fill:#ffffff"
     inkscape:connector-curvature="0"
     clip-path="url(#SVGID_45_)"
     id="path303"
     d="m 430.8,351.5 c 0,6.3 -5.1,11.4 -11.4,11.4 -6.3,0 -11.4,-5.1 -11.4,-11.4 0,-6.3 5.1,-11.4 11.4,-11.4 6.3,0 11.4,5.1 11.4,11.4"
     class="st43" /><path
     style="fill:#ffffff"
     inkscape:connector-curvature="0"
     clip-path="url(#SVGID_45_)"
     id="eye3"
     d="m 443.4,363.2 c 0,2.6 -2.1,4.7 -4.7,4.7 -2.6,0 -4.7,-2.1 -4.7,-4.7 0,-2.6 2.1,-4.7 4.7,-4.7 2.6,0 4.7,2.1 4.7,4.7"
     class="st43">
	<animate attributeName="visibility"
       values="hidden;hidden;hidden;visible;visible"
       dur="3s"
       repeatCount="indefinite"/>
	 </path><path
     style="fill:#ffffff"
     inkscape:connector-curvature="0"
     clip-path="url(#SVGID_45_)"
     id="eye2"
     d="m 433.9,331.6 c 0,4.7 -3.8,8.6 -8.6,8.6 4.7,0 8.6,3.8 8.6,8.6 0,-4.7 3.8,-8.6 8.6,-8.6 -4.7,-0.1 -8.6,-3.9 -8.6,-8.6"
     class="st43">
	<animate attributeName="visibility"
       values="hidden;hidden;visible;visible;visible"
       dur="3s"
       repeatCount="indefinite"/>
	 </path><path
     style="fill:#6b222c"
     inkscape:connector-curvature="0"
     clip-path="url(#SVGID_45_)"
     id="path309"
     d="m 297.4,431.1 c 0,38.9 33.7,70.5 75.2,70.5 41.5,0 75.2,-31.6 75.2,-70.5 l -150.4,0 z"
     class="st46" /><g
     id="g311"><defs
       id="defs313"><path
         id="SVGID_47_"
         d="M297.4,431.1c0,38.9,33.7,70.5,75.2,70.5c41.5,0,75.2-31.6,75.2-70.5H297.4z" /></defs><clipPath
       id="SVGID_48_"><use
         xlink:href="#SVGID_47_"
         style="overflow:visible;"
         id="use317" /></clipPath><path
       class="st47"
       d="M414,504.9c2-15.7-63-62.6-106.5-38.5c-43.5,24,9,72.4,22.8,72.4C344.1,538.8,411.9,521.2,414,504.9"
       id="path319"
       clip-path="url(#SVGID_48_)" /><path
       class="st48"
       d="M347.3,442.5h41.5c7,0,62.5-5.7,62.5-12.7s-5.7-12.7-12.7-12.7h-141c-7,0-12.7,5.7-12.7,12.7   S340.4,442.5,347.3,442.5"
       id="path321"
       clip-path="url(#SVGID_48_)" /></g><g
     id="g323"><defs
       id="defs325"><rect
         id="SVGID_49_"
         y="9.2"
         width="683.1"
         height="1014.9" /></defs><clipPath
       id="SVGID_50_"><use
         xlink:href="#SVGID_49_"
         style="overflow:visible;"
         id="use329" /></clipPath><path
       class="st49"
       d="M385.6,513.5c4.2,8.7,13.8,13.3,19.1,10.8c5.3-2.5,4.2-11.2,0-19.9c-4.2-8.7-21.3-17-26.5-14.5   C372.8,492.4,381.4,504.8,385.6,513.5"
       id="path331"
       clip-path="url(#SVGID_50_)" /><path
       class="st50"
       d="M446.6,497.3c4.5,20.2,0.4,35-17.9,39.2c-18.3,4.1-36.9-8.8-41.4-29c-3.1-13.6-0.9-26.8,7.8-35.3   c4.1-4.1,5.5-3.2,11.4-4.5c2.3-0.5,9.1-3.2,11.2-3.1c4.6,0.3,10.3,0.2,13.8,3.1c2.8,2.3,7.3,4.5,9.4,8   C444.2,481.6,444.9,489.7,446.6,497.3"
       id="path333"
       clip-path="url(#SVGID_50_)" /><polygon
       class="st51"
       points="454.4,530.7 406.6,543.1 401.8,532.8 448,515.9  "
       id="polygon335"
       clip-path="url(#SVGID_50_)" /><path
       class="st52"
       d="M489.4,638.8c1.7,20.2-33.8,52.1-56.4-13.1l-33.4-88.2l54-18C453.7,519.5,487.7,618.7,489.4,638.8"
       id="path337"
       clip-path="url(#SVGID_50_)" /><path
       class="st49"
       d="M339.2,507.7c-5.6,7.9-15.8,10.8-20.6,7.4c-4.8-3.4-2.2-11.7,3.3-19.6c5.5-7.9,23.8-13.3,28.6-9.9   C355.2,489,344.7,499.8,339.2,507.7"
       id="path339"
       clip-path="url(#SVGID_50_)" /><path
       class="st50"
       d="M281.7,481.5c-7.9,19.1-6.3,34.5,11.1,41.6c17.4,7.2,37.9-2.5,45.7-21.6c5.3-12.9,5.3-26.3-1.7-36.1   c-3.4-4.7-4.9-4-10.5-6.4c-2.2-0.9-8.4-4.7-10.5-4.9c-4.6-0.5-10.2-1.5-14.1,0.7c-3.2,1.8-7.9,3.2-10.6,6.3   C286.7,466.3,284.7,474.3,281.7,481.5"
       id="path341"
       clip-path="url(#SVGID_50_)" /><polygon
       class="st51"
       points="268.4,513 313.5,533.3 320,524 277.3,499.6  "
       id="polygon343"
       clip-path="url(#SVGID_50_)" /><path
       class="st52"
       d="M215.8,613.8c-5.1,19.6,10.1,71.3,58,14.2l47.5-99L271,502.2C271,502.2,220.9,594.2,215.8,613.8"
       id="path345"
       clip-path="url(#SVGID_50_)" /><path
       class="st53"
       d="M366.5,616c0,2.4-2,4.4-4.4,4.4c-2.4,0-4.4-2-4.4-4.4s2-4.4,4.4-4.4C364.5,611.6,366.5,613.6,366.5,616"
       id="path347"
       clip-path="url(#SVGID_50_)" /><path
       class="st53"
       d="M366.5,657.5c0,2.4-2,4.4-4.4,4.4c-2.4,0-4.4-2-4.4-4.4s2-4.4,4.4-4.4C364.5,653.1,366.5,655,366.5,657.5"
       id="path349"
       clip-path="url(#SVGID_50_)" /></g></svg>